<mxfile host="app.diagrams.net" modified="2021-08-06T02:49:46.545Z" agent="5.0 (Windows NT 10.0; Win64; x64) AppleWebKit/537.36 (KHTML, like Gecko) Chrome/92.0.4515.107 Safari/537.36 Edg/92.0.902.62" etag="A741P8qAVooaMDmu5UsR" version="14.9.4" type="github">
  <diagram id="5Ki9kbRpwYglzMnirjGP" name="Page-1">
    <mxGraphModel dx="2310" dy="931" grid="1" gridSize="10" guides="1" tooltips="1" connect="1" arrows="1" fold="1" page="1" pageScale="1" pageWidth="827" pageHeight="1169" math="0" shadow="0">
      <root>
        <mxCell id="0" />
        <mxCell id="1" parent="0" />
        <mxCell id="Nr-5HNH66WC3xI2fJL6_-24" value="" style="rounded=0;whiteSpace=wrap;html=1;fontSize=15;" vertex="1" parent="1">
          <mxGeometry x="-90" y="1020" width="1500" height="960" as="geometry" />
        </mxCell>
        <mxCell id="Xova7BRaURqqxDnmJqIO-1" value="" style="rounded=0;whiteSpace=wrap;html=1;" parent="1" vertex="1">
          <mxGeometry x="-90" y="50" width="1500" height="950" as="geometry" />
        </mxCell>
        <mxCell id="XXc0s3nX-W4njj7dWcA6-2" value="&lt;span&gt;executeTask&lt;/span&gt;" style="rounded=1;whiteSpace=wrap;html=1;fontSize=15;" parent="1" vertex="1">
          <mxGeometry x="120" y="60" width="120" height="60" as="geometry" />
        </mxCell>
        <mxCell id="XXc0s3nX-W4njj7dWcA6-4" value="查询 数据库，调用 listRobotTasksCanExecute 方法，获得可执行任务列表" style="rounded=1;whiteSpace=wrap;html=1;fontSize=15;" parent="1" vertex="1">
          <mxGeometry x="75" y="190" width="210" height="80" as="geometry" />
        </mxCell>
        <mxCell id="XXc0s3nX-W4njj7dWcA6-5" value="可执行任务即：触发时间小于now()" style="text;html=1;strokeColor=none;fillColor=none;align=center;verticalAlign=middle;whiteSpace=wrap;rounded=0;fontSize=15;" parent="1" vertex="1">
          <mxGeometry x="290" y="220" width="130" height="20" as="geometry" />
        </mxCell>
        <mxCell id="XXc0s3nX-W4njj7dWcA6-6" value="" style="endArrow=classic;html=1;fontSize=15;exitX=0.5;exitY=1;exitDx=0;exitDy=0;entryX=0.5;entryY=0;entryDx=0;entryDy=0;" parent="1" source="XXc0s3nX-W4njj7dWcA6-2" target="XXc0s3nX-W4njj7dWcA6-4" edge="1">
          <mxGeometry width="50" height="50" relative="1" as="geometry">
            <mxPoint x="170" y="480" as="sourcePoint" />
            <mxPoint x="220" y="430" as="targetPoint" />
          </mxGeometry>
        </mxCell>
        <mxCell id="7W9C7AiGitJRjh3ZuJ_5-3" value="" style="edgeStyle=orthogonalEdgeStyle;rounded=0;orthogonalLoop=1;jettySize=auto;html=1;fontSize=15;exitX=0.5;exitY=1;exitDx=0;exitDy=0;entryX=0.5;entryY=0;entryDx=0;entryDy=0;" parent="1" source="XXc0s3nX-W4njj7dWcA6-4" target="7W9C7AiGitJRjh3ZuJ_5-2" edge="1">
          <mxGeometry relative="1" as="geometry">
            <mxPoint x="180" y="390" as="targetPoint" />
          </mxGeometry>
        </mxCell>
        <mxCell id="7W9C7AiGitJRjh3ZuJ_5-2" value="&#xa;&#xa;&lt;span style=&quot;color: rgb(0, 0, 0); font-family: helvetica; font-size: 15px; font-style: normal; font-weight: 400; letter-spacing: normal; text-align: center; text-indent: 0px; text-transform: none; word-spacing: 0px; background-color: rgb(248, 249, 250); display: inline; float: none;&quot;&gt;遍历 任务列表&lt;/span&gt;&#xa;&#xa;" style="rounded=1;whiteSpace=wrap;html=1;fontSize=15;" parent="1" vertex="1">
          <mxGeometry x="120" y="320" width="120" height="60" as="geometry" />
        </mxCell>
        <mxCell id="7W9C7AiGitJRjh3ZuJ_5-4" value="删除 任务" style="rhombus;whiteSpace=wrap;html=1;fontSize=15;" parent="1" vertex="1">
          <mxGeometry x="125" y="420" width="110" height="80" as="geometry" />
        </mxCell>
        <mxCell id="7W9C7AiGitJRjh3ZuJ_5-5" value="调用 userVideoDao&lt;br&gt;.selectByDocIdContainsDeleted(docId)&lt;br&gt;查看上传视频信息，返回 UserVideoDO" style="rounded=1;whiteSpace=wrap;html=1;fontSize=15;" parent="1" vertex="1">
          <mxGeometry x="45" y="550" width="270" height="100" as="geometry" />
        </mxCell>
        <mxCell id="7W9C7AiGitJRjh3ZuJ_5-6" value="boolean isAuditPass&lt;br&gt;任务类型非曝光为true，代表审核通过" style="rounded=1;whiteSpace=wrap;html=1;fontSize=15;" parent="1" vertex="1">
          <mxGeometry x="95" y="700" width="170" height="80" as="geometry" />
        </mxCell>
        <mxCell id="7W9C7AiGitJRjh3ZuJ_5-7" value="" style="endArrow=classic;html=1;fontSize=15;exitX=0.5;exitY=1;exitDx=0;exitDy=0;" parent="1" source="7W9C7AiGitJRjh3ZuJ_5-2" target="7W9C7AiGitJRjh3ZuJ_5-4" edge="1">
          <mxGeometry width="50" height="50" relative="1" as="geometry">
            <mxPoint x="390" y="430" as="sourcePoint" />
            <mxPoint x="440" y="380" as="targetPoint" />
          </mxGeometry>
        </mxCell>
        <mxCell id="7W9C7AiGitJRjh3ZuJ_5-8" value="" style="endArrow=classic;html=1;fontSize=15;" parent="1" edge="1">
          <mxGeometry width="50" height="50" relative="1" as="geometry">
            <mxPoint x="180" y="499" as="sourcePoint" />
            <mxPoint x="180" y="550" as="targetPoint" />
          </mxGeometry>
        </mxCell>
        <mxCell id="7W9C7AiGitJRjh3ZuJ_5-9" value="" style="endArrow=classic;html=1;fontSize=15;exitX=0.5;exitY=1;exitDx=0;exitDy=0;entryX=0.5;entryY=0;entryDx=0;entryDy=0;" parent="1" source="7W9C7AiGitJRjh3ZuJ_5-5" target="7W9C7AiGitJRjh3ZuJ_5-6" edge="1">
          <mxGeometry width="50" height="50" relative="1" as="geometry">
            <mxPoint x="460" y="650" as="sourcePoint" />
            <mxPoint x="510" y="600" as="targetPoint" />
          </mxGeometry>
        </mxCell>
        <mxCell id="7W9C7AiGitJRjh3ZuJ_5-11" value="将 UserVideoDO 转为 UserVideoDTO" style="text;html=1;strokeColor=none;fillColor=none;align=center;verticalAlign=middle;whiteSpace=wrap;rounded=0;fontSize=15;" parent="1" vertex="1">
          <mxGeometry x="200" y="810" width="150" height="20" as="geometry" />
        </mxCell>
        <mxCell id="7W9C7AiGitJRjh3ZuJ_5-12" value="&lt;span style=&quot;color: rgb(0 , 0 , 0) ; font-family: &amp;#34;helvetica&amp;#34; ; font-size: 15px ; font-style: normal ; font-weight: 400 ; letter-spacing: normal ; text-align: center ; text-indent: 0px ; text-transform: none ; word-spacing: 0px ; background-color: rgb(248 , 249 , 250) ; display: inline ; float: none&quot;&gt;调用 ruleService&lt;/span&gt;&lt;br style=&quot;color: rgb(0 , 0 , 0) ; font-family: &amp;#34;helvetica&amp;#34; ; font-size: 15px ; font-style: normal ; font-weight: 400 ; letter-spacing: normal ; text-align: center ; text-indent: 0px ; text-transform: none ; word-spacing: 0px ; background-color: rgb(248 , 249 , 250)&quot;&gt;&lt;span style=&quot;color: rgb(0 , 0 , 0) ; font-family: &amp;#34;helvetica&amp;#34; ; font-size: 15px ; font-style: normal ; font-weight: 400 ; letter-spacing: normal ; text-align: center ; text-indent: 0px ; text-transform: none ; word-spacing: 0px ; background-color: rgb(248 , 249 , 250) ; display: inline ; float: none&quot;&gt;.checkExecute(userVideoDTO)，&lt;/span&gt;&lt;br style=&quot;color: rgb(0 , 0 , 0) ; font-family: &amp;#34;helvetica&amp;#34; ; font-size: 15px ; font-style: normal ; font-weight: 400 ; letter-spacing: normal ; text-align: center ; text-indent: 0px ; text-transform: none ; word-spacing: 0px ; background-color: rgb(248 , 249 , 250)&quot;&gt;&lt;font face=&quot;helvetica&quot;&gt;判断是否满足执行任务的条件&lt;/font&gt;" style="rhombus;whiteSpace=wrap;html=1;fontSize=15;" parent="1" vertex="1">
          <mxGeometry x="55" y="860" width="250" height="120" as="geometry" />
        </mxCell>
        <mxCell id="7W9C7AiGitJRjh3ZuJ_5-14" value="" style="endArrow=classic;html=1;fontSize=15;exitX=0.5;exitY=1;exitDx=0;exitDy=0;entryX=0.5;entryY=0;entryDx=0;entryDy=0;" parent="1" source="7W9C7AiGitJRjh3ZuJ_5-6" target="7W9C7AiGitJRjh3ZuJ_5-12" edge="1">
          <mxGeometry width="50" height="50" relative="1" as="geometry">
            <mxPoint x="480" y="840" as="sourcePoint" />
            <mxPoint x="530" y="790" as="targetPoint" />
          </mxGeometry>
        </mxCell>
        <mxCell id="7W9C7AiGitJRjh3ZuJ_5-15" value="执行任务" style="rounded=1;whiteSpace=wrap;html=1;fontSize=15;" parent="1" vertex="1">
          <mxGeometry x="120" y="1090" width="120" height="60" as="geometry" />
        </mxCell>
        <mxCell id="7W9C7AiGitJRjh3ZuJ_5-16" value="" style="endArrow=classic;html=1;fontSize=15;exitX=0.5;exitY=1;exitDx=0;exitDy=0;entryX=0.5;entryY=0;entryDx=0;entryDy=0;" parent="1" source="7W9C7AiGitJRjh3ZuJ_5-12" target="7W9C7AiGitJRjh3ZuJ_5-15" edge="1">
          <mxGeometry width="50" height="50" relative="1" as="geometry">
            <mxPoint x="390" y="1040" as="sourcePoint" />
            <mxPoint x="440" y="990" as="targetPoint" />
          </mxGeometry>
        </mxCell>
        <mxCell id="7W9C7AiGitJRjh3ZuJ_5-17" value="" style="endArrow=classic;html=1;fontSize=15;exitX=0;exitY=0.5;exitDx=0;exitDy=0;entryX=0;entryY=0.5;entryDx=0;entryDy=0;" parent="1" source="7W9C7AiGitJRjh3ZuJ_5-4" target="XXc0s3nX-W4njj7dWcA6-2" edge="1">
          <mxGeometry width="50" height="50" relative="1" as="geometry">
            <mxPoint x="50" y="420" as="sourcePoint" />
            <mxPoint x="100" y="370" as="targetPoint" />
            <Array as="points">
              <mxPoint x="-30" y="460" />
              <mxPoint x="-30" y="90" />
            </Array>
          </mxGeometry>
        </mxCell>
        <mxCell id="7W9C7AiGitJRjh3ZuJ_5-18" value="" style="endArrow=classic;html=1;fontSize=15;exitX=0;exitY=0.5;exitDx=0;exitDy=0;" parent="1" source="7W9C7AiGitJRjh3ZuJ_5-12" edge="1">
          <mxGeometry width="50" height="50" relative="1" as="geometry">
            <mxPoint x="-20" y="800" as="sourcePoint" />
            <mxPoint x="-30" y="460" as="targetPoint" />
            <Array as="points">
              <mxPoint x="-30" y="920" />
            </Array>
          </mxGeometry>
        </mxCell>
        <mxCell id="7W9C7AiGitJRjh3ZuJ_5-19" value="成功 删除" style="text;html=1;strokeColor=none;fillColor=none;align=center;verticalAlign=middle;whiteSpace=wrap;rounded=0;fontSize=15;" parent="1" vertex="1">
          <mxGeometry x="200" y="500" width="70" height="20" as="geometry" />
        </mxCell>
        <mxCell id="7W9C7AiGitJRjh3ZuJ_5-20" value="通过 userId 生成key，并查缓存得到 user account group，据此得到 TaskRule，并检查任务是否可以执行" style="rounded=1;whiteSpace=wrap;html=1;fontSize=15;" parent="1" vertex="1">
          <mxGeometry x="380" y="867.5" width="220" height="105" as="geometry" />
        </mxCell>
        <mxCell id="7W9C7AiGitJRjh3ZuJ_5-22" value="调用 TaskFilter 的check方法，遍历&amp;nbsp;taskFilterHandlerList，返回任务是否可以触发" style="rounded=1;whiteSpace=wrap;html=1;fontSize=15;" parent="1" vertex="1">
          <mxGeometry x="660" y="871.25" width="210" height="97.5" as="geometry" />
        </mxCell>
        <mxCell id="7W9C7AiGitJRjh3ZuJ_5-23" value="其中 taskFilterHandlerList 在ruleService&amp;nbsp;@PostConstruct时进行初始化设置" style="text;html=1;strokeColor=none;fillColor=none;align=center;verticalAlign=middle;whiteSpace=wrap;rounded=0;fontSize=15;" parent="1" vertex="1">
          <mxGeometry x="600" y="810" width="340" height="20" as="geometry" />
        </mxCell>
        <mxCell id="7W9C7AiGitJRjh3ZuJ_5-24" value="" style="shape=image;verticalLabelPosition=bottom;labelBackgroundColor=#ffffff;verticalAlign=top;aspect=fixed;imageAspect=0;image=data:image/png,iVBORw0KGgoAAAANSUhEUgAAAd8AAACBCAYAAACB87BrAAAgAElEQVR4Ae2d6VcTSfv+n7+nHhbzBQU8KMjAQUBERIJAjhAwskoUhmVEBZQtjKBshkUIhK1VVNAk4zA86Izk92b+qOt3qpPudGKWQkJAvV/kdJZK1V13XVWfWrv/89///hf0Ih+QBkgDpAHSAGkgdhr4Dzk7ds4mX5OvSQOkAdIAaYBrgOBLI3+a+SANkAZIA6SBGGuA4Btjh1Ovl3q9pAHSAGmANEDwJfhSj5c0QBogDZAGYqwBgm+MHU49XurxkgZIA6QB0sA3wZdlGVBTWYAzCey76y0xFof4hATEse/P9nAV9kfNV7g8028/fgPG4tOQXdmCkqwfq76Sdn987UYq42+D76V7mHy3j+XFUZRfSPiuAHzWtAC7aw9DpoxvtpuxNFxufIDa4rRvjiNSwfDfC3v/xMs//t9XL2ljABcDOg+h8pV33+H3//WR2pA2xyJfhb0fIU00Q8cYWGE/5l2f0V3GwDsP13//ghcPr8n2lQx+gjRtRnJAPkX8dtAwv7S/8fOR4nNpoQvpMUj/oPYq4Q9bXiz3Aawud/C8u7bQkhtd4HE9S3MdOCvo0/gLJtxb3MX6u000XYquLYoP6UoQPC4NfBN8ubEsqQC1Y06sSxO4lvL9VIy0mhnY3u/gcU16SAhFKgzG8mBecWO6Pe+b44iUBv9dbqyWLLiur8RV7as4B0kBDViofCVllXr/W4W2eTfCw/fo85Vx5yWkxXs4zxjibzzH4uYOLA1pYCwdt2bceGbOOhb4ShuTqNb6mL8vvIDEAD+LlFuswhxWhywpGwVKnusnMe9yoqde0VoJMpKiW68PAl+WWo0e6QvmR83IjrIdsSofSofAHk4D3wxfHilLKMRd+z5e9JUh4QQ3UuEc8C2/HbbRE01Tbqysd3EmCr5l7BRujB8/fBNrZiG9siCfMaS3bMAyuQhr5yUwdhmtG270VyceD3yXHyAzCn4WLdtohIumDj2j4OiPdrX5FIUvYwko6nNhw/4IOd/h0pY2z/SeABxKA4eCL4/0TMMyNt6N42r8wXvJzDANyTGNmrIBjEp7WHnrwNigf0+XsURkVg1g2L6DlQ+fsLD0AubyDMRrGkrGUlBwx4rJlzyObQy1VaNh2g37QKU6Mo2vtvpNr83dv6L+pjiHx1N45zkmpF2sOfexurmNkd46ZHjzFnaaTjNFKWSzQN5F4CuSL56/cPCNZb7Y1REsO56jNI6h4OE73OuyYG64GoxVoefDDjqKPTryTDt3oOTuAqxvP8H+ahOP7pTgtF+5R9aGSDx82lkKA1/GMnHT+hnrC/eQGeexj8X9gvq5f7A604ZzyndCWk3E+co+DNgcWN7ew8KKHZ2mAnkaXtFh2cg+pPEmddQdWHbRLC8lzXDw5TDMNDzGoM0F+/s9LK7Y0XXrkp/NkeoOTycQvjzevO4tbGxaUaaZPWMJBjx8ty/PiCj20ZUg9qNp4NDwZXm9mHFtovHCt8LXCevEOOqMNSi/PYrJLTfmekvVkXRi8TDmnbt42teGcsMtmPrWsex4B3O+b61Zd/0ZFl17eNbXKodpsNhgfekP37i0Au/0ayO6V9wIBt+4Ygtsro8Yam9AaVkVKpotePp2H8/u5MigZkk5KKo0Ql/Zir6XbsyPtEIvfzZCX5yNU14wiNjs6XiEz7sIfEXyxUUb2IBrhRzLfLGsbky57KhJSUDF2CaaK37DJB/dp5jxu2sTDZka+K69xdDIb6gwmGB6/BJ21w7ulyWrnSYRP8vwXXuDQUtXyHhk+Nr7kJOUDJ36SkKCpkMZl9WBZ45PGK7z7BVIvfkCdscrNGbHH8iexMJ+WJ17GH/cjorKWhh/W8KCcwc9lSlqPBHhG0UdKjoIB9/4ogHMOXcx1nsX1ytuovbhGpZcH9Gt95VFpLrD0wmEb3z2PUw49jAcsP+CZf2GSdd7mC8evE1R8kNXgvVJ18Dh4Xu+A+MuJ1oLD15RZAC5tmHOi1MbnuyOd5BeW1DgBVnxwB6kuXakeT8zloH6OTcWekvV/xT17UBauq9OG7L4YrRL/vBVCoKxC2hcCA7fM412SG9HcVkzuko6l4esc6fVtHg8kab7RGwWybvcWM20I10FggcOifE+f4nky2Pz4aedo5EvltSEYXkzzwU0vlhEVWoDhtf6kXOxF1bXPCoSNfB9acEl77QjY/nyOru23EXskeErWVCgzF7w9Xq7v36CbbiSXJ/Qrfdpmo/Ssjs2sb45iWvnDHiwuY/pzst+MzAi9shane9UNx0xlowbz75gbeSmGlck+PrKPPwavYg9alzy5qvg085p+i603alEqloHs9C06IatV6/WC5G6o4Uvn00wWT9jdbYd570zB6ot8ka8l6g/7/O/8htdCao/igaiBF8X2r4ZvnOo0KzrJOj7Mf6iH0VxfAesDlUTbtgHjZoRSTL0g3uQnjXKo2PG4lEx6oY0WqceH+JTYLXPDw7fuMIBzLt2MdbXjsqyq7iQekptXLQFHg6+IjbzuDzwDZ13HoY3VsrOW+11stUzEve3KXSnQk7vkGu+0coXY+Xo3tpFV8k1dK6MoYiV4d7mNPRlT7GyOYJCbwMvQ/P5HXWaWU6fr1lbauQyEbUnUjzcN/LId30MFUUlKFBfxcg47d/4s8RitK3sY27dgfW1YRSc8v0uYo8SZmWoKqiulPKMBnyVtMLVHSU9WR9h4KuEi0s45a2HqaiZ8N8/IFJ3ZPjO30NmUjLSTbOwOzbRfNE3g6WkwwoH8MJF8FX8Qdcfs8MRJfgeZuQ7i3INfLVC46OC6okQRyEmbnuOq7AEVI65IT25pTZojJ1BTcCarxJvuJEvTy/bZMHw0g7WXG5Izs+Yez6A4nRfI8vjCQ/fyDbLcfA1X1fovPMwcmNlt6BUBYIHDtnndGpeRfLlsflwI1+RshDJF2MX5ZHnY1MTBpf4JqdctNjXcLttEZLtHjK08NUcNQqcNhe1R4ZvmHi4zZHWfBUf82vWr5tyh2i6I9+vDETsUcLYB2/4/VcbP38fHfiK6VBJO9y0c2JuEx7M/4EVh39d1O6c53mLVHcCO5Oro3V+68aqLQTfsPpQ/ETX7xvKh4dv7kNY+dTxN6zPeEZ/oQGk9t7HftWMSLyjk5yz6ki3hI+ErXeRok6L5eD20sFHvloxxyedR3ZZJ4ZfubE8YFCnBHmY8PD1jtYj2Bwp7zwdGb6C5yLDdSo8Nh8WvtHJF2OnUTPlxljfCCbl877JME45MTT+xm+TUSRoimvD/7xwIMS5b0Thy842YPjdP3hq3cDquwUYzvo6ZSL2KGFWA0a+cQmJSEzwrR2XWr5AmmhS9xAo/1uzGP0a5WjokOdf1keIkS9jOWi27cM+NwSDvtRbD8tgnvUf+Srx8GuouqPtTF7rWsea46XfmrkSB5OXILZwO8fnX+U3un7fwKHy85XfoeGrq57BmuMFDCHO4qWWD+L3F3a0lX99rlYEQHzdan28Se0h82nmtItluJzju8FFap0Na85tdBsvIS01A/mNY5h+e3D4nrlogP5KlrrZiwul6NFffmDn3zF5tOZG4OhHEZaIzSJ5jy58E1Axuo+NJ7fUTotir3KNVb54Z8k6uwZrf4Xc8JcM7sK2uQvbo+sqXCLBl9ss4meReETgy29oUf5kB+tLvcg+VQDz8j5sT275HQMTsUde833hu3kHHzFWTXzB6kit2sHL6dqGxNfBlV3UcZfRtuaGtbNA9Q/PfzTKSy37UPCNM6LX4caQybe5St53EXBmXKTuaPXM4vPQvPAFqzNB1nyTGjDs/AePqr6e4VHspauvESdffJ++OBR8eSWstf6NtYnbfo2QIgalx87XK7U9efV3ganXxGIL5p0uDHe2oKzciErzOKbef8Zw3Xm1IeIVufaZE+t8qti1D9vEPbRbffDlwD6br9w8wLPb2fbkV/XGFdmpnh52imkBq44t9LTUoURvgP5WP0Y33Zjr9j+WxBvMyrF/sGZ7gioD3/1sxLWCc6o9QjYL5F3bWCk+015F86X8J7P1NTbe2GGuNnjzXoYLZ3yji1jlK6dzC8tvdzHZdlH2WXbnljyVO9mWq/pQBJoifhaJR4ZvhJtsJJePY9HlQPsVDxBOFVsw5/oTD8p9u5RF7Em8PIAZZbdzhbLb+U88qPDFE5/bjUnHJ0wOtKPcUIf6oTdYDdhZzcs0GuWlaCPUtDNjWaif/4K1FSuabhpRamhCs2UWU+v+I1+RuhOo5/j8Hkw5PsHSkKmWuydfaTBOfcHqc7O60VKxk67fJ2io3L4ut2+GL4tLQ2HnOuwfNtGc9/WmCcXZmY2LWNz+E8ONQTYJCQCITxNmVg/BYt/B6odPsK2u4UFL6Vew57tRkzPykZOTjlMsDTf94Bt6/Yt3DHoNHgCxuHRc7ZjF5Ks9rDv3sbL5AaNDd5ATZFQf/0szehY+wu5dB/Nf/4psczRGvrzxDbUmrs2XUhZMV4Bay2ssbO/LsJNcf6HTe65WCROLfPGdsdy+Ye9oKqVhWf6sHV2JQFNEGyLxcPhyewJfyu0lWVIZ7kluLAxVqXcW49PnpZYdSNIoirz6ELGHh8mQz8w61XO+XQHnfLmW08t6MWBzwr69i/nFGbTo/c+2R6u8lHhCwZf/npBlQufzLSxu/y2ft+5rKYbxiT98RepOIHz5efi87nfYCJjCl9MseIipD3sY6yzFmYDd0IrNdP26QSeffD8++Sb4sl+a8WjpL2y8W4e5ONWv13oSCp+xc6gLOI50EuwiG76fikFldfxldeZqH55u7WNpyYqqX3wzNFQ2x182VAaHL4Nvg+8lMzpaTchNDT3ijXXhnP5Fr04j6+vGMO34jIGak9cxiLVfKL3DVxLy4fH5MD71MspbLaihByucuEEO1YvD1Ytvgu9JdDqf0uLThnzNl98W0vLQiHSarqIKS89rJg2QBkgDJ1ADPwx8T2KHgGw6XM+Q/Ef+Iw2QBn5UDRB8T2CP6EcVG+WLGlLSAGmANODRAMGX4EtTUqQB0gBpgDQQYw0QfGPscOr1Uc+fNEAaIA2QBoTgm5LiuwEAiYZEQxogDZAGSAOkgcNpgOBLI1+abiINkAZIA6SBGGuA4Btjh1Nv8XC9RfIf+Y80QBr4ETRA8CX4Uo+XNEAaIA2QBmKsAYJvjB3+I/TYKA808iANkAZIA4fTAMGX4Es9XtIAaYA0QBqIsQYIvjF2OPUWD9db/FH8x1gc4hMSQj5b+UfJJ+WD9E4aCK4Bgu9PAF/+iLpzFY8wuPQR9g97WFixozPgMXa8gvAHxl9ufIDa4rRD9YKjFU+4Sut5BJ77q8cAeu7vvYWW3Og+BSfwcXjBbFPuL/7Vowk3BnCR+dtz1rQAu2sPQ6YMP1/n3Xf45Un7qMrANGPhZ57m1YH/QbLeVR/jydPVPrIz0K5ofmbsDGqm3bAP3pD9dBD/RNMOiis4QMgv3+4Xgu9PAN/4S32wOvbw7PGvKK9UHuC+g55K//PbjOXBvOLGdHueHxAOWsGiFU+4dFlSNgr0lZ4nWdVPYt7lRE+997O+BBlBnsEcLr5Iv4nCV1qy4Lpil3ItzlGfA6ykk1YzA9v7HTyuSffzdVJWqffpXFVom/d/Zq7yX+UaCz/ztE4SfA/iH8VPdP12QJDvjs53BN+fAL58tCDZH+KCd/TFWDIMT79g7YkJ8ZoRWbQa82jFI1rxwz0IXjSOSOGE4asZIUaKM9zvjJ3CjXGCb+DIV/GZiH+UsHQ9OoCQb7/dtwTfI4Bv2cg+pPEmJKqw+7ohZSwFhXeeY0LaxZrT8xjEkd46ZMT7picZS0Rm1QCG7TtY+fAJC0svYC7P8AemYRqSYxo1ZQMYlfaw8taBsUEzsjUjv8Kej5CW7iNTA9qEMxlIT0uW4wo7hbvQhXQ1HwnINDzGoM0F+/s9LK7Y0XXrEnTK77kPYHWFmArWxBMt/ygVPxx8+ZR7OJt5HCJlEQhfHm9e9xY2Nq0oS/GUmRwmAnzjq61+08pz96/4jXzVPIWBr3h5RUc/IiNfET+XDH6CNN2BkrsLsL79BPurTTy6U4LTGl0ylopLd62YfLUH++YbPG7WwzTlm3YW8Y+nTKOTdyU9un47ZMh3wX1H8D0m+MYVW2BzfcRQewNKy6pQ0WzB07f7eHYnR22ME4uHMe/cxdO+NpQbbsHUt45lxzuY8xPUMEyGrxPWiXHUGWtQfnsUk1tuzPWWIsHbqCUZpmB3fcTjhgIkBXnGMUvKQVGlEfrKVvS9dGN+pBV6+bMR+uJsnPLGE180gDnnLsZ67+J6xU3UPlzDkusjuvXJsj2i8YjAV8Q/SqUOB99INvM4RNIKhG989j1MOPYwrFmzFYFvXFqBd1q5Ed0rbnwTfAXLK1r6keE70470pGTo5Fcm6mbcsA9UqjoU8bMM37U3GLR0ocJggunxS9hdO7hf5tEPL4ukignYXLt42ntX1nyDxYoJ+8HhG628Kxqja3CAkF++3S8E32OC75lGO6S3o7is6fUnnctD1rnTaoNWPLAHaa4dad4wjGWgfs6Nhd5SNYwMX9c2zHlx6nfZHe8gvbagQPlfXAYqLA6su/axIm2gr9uMgrM+gCsVKNJ0cZq+C213KpGqxMuy0LTohq1Xr6bN44oUjwh8Rfyj2i2PuINvshKxWSQtLXwZy4TJ+hmrs+04r+nMyGH8IOWBVWK8r2xUm9kFNC58G3x9cYRfo4+Wfjh8AzeR8c9a+Ir4WYavZEGBd3ZH1ondX89XZc134Kyisfir6JAODt9o5V3xNV2/HTLku+C+I/geE3zjCgcw79rFWF87Ksuu4kLqqQCA6VA1wRsdo3e04WnI9YN7kJ41qqNaD3znUJHgm65O0Pdj/EU/ijRgYEyH86VmtFrsmNt2Q9q0wZgVH5Bm+MZcqURxCae8NqWiZuLrdclowDeSfxRb+DXcyFcJF85mkbRksM7fQ2ZSMtJNs7A7NtF80b8Dw8MEg9Rkq282Q7GHHTF8eXlHSz/yyNc2iJKiEhTILwPabP4jXyVf4fwsw/f5HXWaWbaRr2tbamQdMpYk27wyVKXqki8J1D4/GHyjmXclX3QNDhDyy7f7heB7TPDlm56yTRYML+1gzeWG5PyMuecDKE73QJT/Xj0RYv104rZvnZVPO7tmUa6Bb6QKEZ9qQPe6G/aRm2o8/D+RoJmY24QH839gxeFvV+BxmEjxiIx8I/lHm8dw8BWxWSStQLCujtb5+Y7bIwPabkGpCikPrLLP6VSYKHYfPXyjpx+RNV8RP3vWfM1IVka1AevaiuaVY0UeTfofNfL57+t9FL7fopd3JU66fjtkyHfBfUfwPQL4llq+QJpoUtdKlZ74msX4VSPMhRmfdB7ZZZ0YfuXG8oDBswlKGbmM/eodbSijjhIU5JxVb87gGfmGhi8fTaTlFCAj1X+UltW2CWmjH7nehpDbEQ6ajOWg2bYP+9wQDPpSr01lMM8efOQbDf9oK3Qo+B7EZiW+YGXBf9OC9VrXOtYcL9GY7T9zIIeZ802ZKnEGux49fL0j30Pqh9seCb6ifo4M3yiPfKOQ92BlR98Fhwn55WB+IfgeAXxzurYhrfUjxzvty+Iuo23NDWtngQrfMxcN0F/JUqePuXCLHv0l38wgxQtEvm61Pt6kjrAYi0faxTJczvHdBCMyfDPQMO/GwuNyNS0eT2GvC9LSA78d0IzlosXuxnRHvmqnUqFYnBG9DjeGTL7NMfIadJCzqOHi4fFFyz+qbSHWfEVtFikLLVhZfB6aF75gdSbImm/U4JuAitF9bDy5pXa0lPwq10h+joZ+eFoR4SuojUjw5WmV8GUVjQ9ZyDXf8P6JVt4VX9P1YGAhf0X2F8H3COAbn9uNSccnTA60o9xQh/qhN1h1vPIbKaWYFrDq2EJPSx1K9Abob/VjdNONuW7f0ZPEYgvmnS4Md7agrNyISvM4pt5/xnDdeRWOkeDLK8H5RjvsDieGfjPjekUNqtpmMOP4jNEW/7VIPu1XOfYP1mxPUGXgu5+NuFZwTk6LsSzUz3/B2ooVTTeNKDU0odkyi6n1YCPf0PFwe6LlH6WChx75itksUhZa+Mp5yO/BlOMTLA2ZalkEhlHsU66803M2X7kRiGe3s+3Jr97dz5XITvWt2/P/ZLa+xsYbO8zVBm+YMlw44wsTrrz4/6Oln4jwFdSGCHyTKqawxPdC8B31hltosCzAGmTDVST/RCvvStllXj6Ffzt1kAq/3jynhKFrZOCQj3w+IvgeAXz5mcf0sl4M2Jywb+9ifnEGLfqA87lx6bjaMSufZ1x37mNl8wNGh+4gR3M+l99IILN6CBb7DlY/fIJtdQ0PWkrV2/xxIYvAl8WlIb9pFL/b/4D9w99Y3tjAQ3MpUjQbspRKEf9LM3oWPsLuXdfVrucmZJnQ+XwLi9t/y2c0+1qKYXzyNXx5XOHiiZZ/FJtDwZf/LmIzEyiLQLDyM9h53e+w8W4BhrMeIAaGUexTrsqaZrBNWfy7XoMPrPw/TFeAWstrLGzvyxu5JNdf6Cz2DxPez9HRTyT4ivpZBL781pWFrTOYer2HlTdbGLxjQL3m9pKKLyP5J1p1R06HMTQZdfi3/RSaTvn7X2sPvfeBhXwR2RcE3yOALwkvsvDIR+Sj70UD/CEY43d12K+KU5eAvhfbyc6TW88IvgRfddqUKurJrahUNsdXNiwtAc5OHUYzaMqZdBg9HRJ8Cb4EX9IAaSCMBs5eOoV/WxJQqDkZQBCKHoR+Vl8SfMNUup9VFJRvalhIA6QB0sDRaoDgS/ClUQ9pgDRAGiANxFgDBN8YO5x6k0fbmyT/kn9JA6SB70EDBF+CL/V4SQOkAdIAaSDGGvjP//3f/yHSKyUlJWKYSHHQ75H9TD4iH5EGSAOkgZ9DAwRfgc4HVYafozJQOVM5kwZIA7HSAMGX4EuzGqQB0gBpgDQQYw0QfGPs8Fj1qigd6sHHQgN//fUX+CsWaVEapOkfSQMEX4IvNZykgW/WAMGXgPgjATGWeSH4UsP7zQ1vLIVKaZ3MRp7gezLLherLyS8Xgi/B99jgq9MlIfn0aSTpdMdmAzVSh2ukCL6H8x/p7+f1H8H3iOCr02WipKUXt/SZRwYW3aVeWF1u+XFzgY+pk1zbuHMpulC7+uhPSC/uITMMLHmYQFv4Z2ljCIUB/8tssGHFxZ+Jm+3no8sPHX5xrD+p8/td22DFws88Pf3Q/yDNtCPdmwedLgP1M27Yh6pD2qa18zDvdbpzMD13Y2W4Rk7rIP45TLoi/yX4/rzwENEHhQmtD4LvkcH3Mu6uuvG86/KRNc661HxcqaiGnr+apvHC5UJfk/dzxXVkpx4PfKXlJzAodinX0gKkBcA349YcbO93MHDrgp+P0i6We/JUUYuOBTfCw/fo/cwbkJME34P456gbP4Jv6Mb1qH1P8X/fvif4fsfw1VY+zyg4+qNdbRqiI1/tCFH7/4O+1+lSYJwk+AaOfBU/ivhHCXtUV4Lv9w2Ao9IFxRtZFwTfKMM37FTwYjcuqNOWp5FjHMTw0h+wv/+ExdVVdDcWI1UzOuSN7pW2GUy92sPK2/ewdNxE8/PgU53h4KvTiaVV3GbF5MtdrDn3sfrmPX5/1IjsZN/oORC+PN7Ch9vYeDOLynOecHIYzfRssEqYdHPWb1p57mGp38hX+U84uIj7+Qxyaodgse9g5cNnLCwv4u6NHL91Zp3RCslhhckwhDGJ+9qBp5ZW5GtmDkRGviJ+Lhv+DOn5PZT9ugjr28+wv95Ef9t1nPUr9/O48usspl7vYeXNWwyYK1GvmXYW8Q8Po9NFJ+9KesGuBN/IjWwwv9F35DeCb7Thm1aAa9UmVFS34/ErN+aftKNC/mxCRWk+UryNbPK1Ycw5d/H0UTsM1fW41beOZdefeFBxVgVRqmECNtcexvvbccPYiObflzHz6uDwFUkrqXQENtdHWLpuo9xQixvm3/Hs7T7G2wpUewLhm5z/AJMO/zVbIfhmXvFOK7fg4aob3wRfQT+fKR3BvHMX4/0dsg/r+yUsO7bQWpSs5ssDXxesU5NounkLN8xPMbXlxvyjCpz2lpcM39kuZKWmIUV+5aJx1r8sRPwsw3f9LYZ/70aVsQH1A69gd/2FnkpfuadVTWHJtYtnj7zlPjKLyRXfmq/ScIfrnPAw0cq7kl6wK8GXIBJMF/RdZF0QfKMMX0V0Ol34tciMym60txlx3tu463QX0WJzw/a4UoXCtf6/IC33IEcJk6xH10v/Bl9NT958FXzaWSStc7ftkN4+RYk3LR5vWtZlXMxKV+3Rwleny0X9zGesznXhl6SA0bEfpDywOpOcpMaj2qzLxe3Fb4OvL47wftYP7UGa/w0Zig912Wh+4cbCo3LVHhm+rvdoveyzMf+3LUivR3DF+z8O32AbybQbrkT8LMP35QiueGcUZJ2s+NtTNrznt7FNl1wml7uy4cqX9/DT8tHKu5JesCvBN3IjG8xv9B35jeB7TPBVKl9Scop3JHUepinf+qZOl4yqp25ITxvVKVKd7jxuWQ8O30hp8d+Trg7jhWsXT/t/Q3VlGXIzvn6Yhge+D5CTmoYL9fOwOzZhLvSNIHk8PEwwSE21+0bQij0c4EcJX50uFbWTbtiHTV4fezoCFRxuEy3qqNYD3xeoOu3rRJyuGMTEwhBKvB0LeeS7ZEHZteu4Ir+M6FgKXhahypTnW4avtU2dZuY21ky4sfH7LbkzINs85caKpdbXOfCW+0HgG828K+UV7ErwJYgE0wV9F1kXBN9jgu+ZS2b0LHzEisP/qJCys5fDt/qZG9JYo6YR9hw50Y62FJGHW/ONlBaPQ6dLQ379CCzLO1hzuSE5P2PeOgT9BR+QAsG6+rRJnUZX7JABbf8dFSqkPLDKz0pV86GEPXr4puHmlL9/lY6BNHVHtd0D33nc0KxvKzYqV5E1XxE/e9Z8WxTqmswAACAASURBVDXw9R+98nLgNmtB+y0brpR4lPxqrwfNu+KDYFeCb+RGNpjf6DvyG8H3GOCr0xXAvLQP+wsLjBXl3pGUAa1zvpEvr5xllj35bOk5dcq0AObl4KOtUPAVTUvbGCSl/YJ8wz1YXruxPFyDZG/6WrBe797AmuMVbud/PfKNdBZYSevo4esd+T7r9PpYGbVex5WCC74ZBb7hynU4+Ir6OTJ8U1EbzZFvFPKulFewK8GXIBJMF/RdZF0QfI8Mvpdwx+7G89+Kvh7xJZnwyOHGcL1vk41Ol42mgDOt55uWseZ8j4c3i5GRkY2i2+N4/vaA8BVM61yhERXXLqpTsbzylAzs+sFfhq/3Jhu65MswL37B6myQNd8IN+JQKmZk+CbjxtN9bIz5pt6V/ypXnS60n3kYvu65PtniG+XqkpFRaEBJQYZaLtEY+eoE/RwJvtxmudOl8WHoNd/w/olW3hVfB7sSfCM3ssH8Rt+R3wi+RwbfNFQ/+wdrS2OoNfLdzyZcv5IlN/h8c1XTwj7WVmfRUn8L5UYzzCPzmN7wH/lywN2acGKDTwO79mGbeoCuEHdVCj3yFUvrfMMiVh3b6LvbiLJKIyoaBzH2xo35B75jQFr48sYjuegRph2f8XtzrgqywDCBjQyfTs8sUm4E4tntbBvr9O5+rkZ+hm+am/83p30TG2/tuHvT6A1jQG66LwyfXg3lZ/5/z47fP2C5dxeVN0yobp3E9PvPsDT9otocFfgKlqkIfNOqn2OZr7/znfDyLncbrJL/VLTi13D+iVbelbRyr+rwb6cOr4p9/if4EkQUfdD1YFog+B4RfLkQk/PM6Fv0resq67n8t9MXG3DPug3b+7/ls56P7+hhGvOHLw/Hz46ezS5CQcEFpIS5pWEo+IqmpUu6AP1v8/LZ0nXnPlbeODBmaUNBmq+hDQQrP0d6+eEWNt4twpjpCRcYhqevfYVbi+Trko+MvvTk/KdeQd3vm1h4vy9v5JJcu/hN7x8mnJ/5cZycmxb8vvIXVj98xtLaOnrulqu3iZTTiMK0M49HpExF4MtvXVncPodpfs737TaG24xoCnLON5J/opV3OR2dDuZaHf5t18Gc4vM/wddf39xX9CIfiGiA4PsdVRadLguN8/7HUkQKmcJQY3BYDeh0Oky26rBv1PndCIbgS9o6rLZ+1v8TfE84fM/mVXqnW42oaHqG547PGLp1nnrXJ7zcfrQGRZehg6tTh2fZvlEvzyPBl+D7o2k9Vvkh+J7wRpxP4/LpWL7my2/5ONJ3C1mam1rESiiUzs/dyGYW6fCvWYer3p3vih4Ivj+3LhQd0PXgOiD4nnD4kqgPLmryWex8RvCNna9J1z+Wrwm+BF+awiYNfLMGCL4/FhAI8LErT4IvNbzf3PBSRY1dRSVfk69JAz+WBgi+BF+CL2mANEAaIA3EWAP/+e9//4tIr5SUlIhhIsVBv0f2M/mIfEQaIA2QBn4ODRB8BTofVBl+jspA5UzlTBogDcRKAwRfgi/NapAGSAOkAdJAjDVA8I2xw2PVq6J0qAdPGiANkAZOrgYIvgRf6vGSBkgDpAHSQIw1QPCNscOpJ3pye6JUNlQ2pAHSQKw0QPA9ZvgyFof4hATEMUY9z2Mui1hVOtF0SBsEAlGtULjvTysE32Nu8M+aFmB37WHIlBERvoydQc20G/bBGxHDHrQyMpaAcxWPMLj0EfYPe1hYsaPTVABdQKeAsTRcbnyA2uK0Q9kQrXjC5ZPlPoDV5Zbvjc3vj619Sa4ttORGt8NT2PsnpLkOnA3wmdZGHkZrh/Je2hjAxYD/hdJG3n2HXxzrI7UhyyIWfub5uzrwP0jWuzjjzQNP96bVDftAZUjbtH45zPvAenEQ/xwmXf7fwt6PkCaa5XrCCvsx7/qM7jIG3nG6/vsXvHh4Tc5/yeAnSNNmJAeU8WHTD/b/X9rf+OlD1dhCF9JjkH4wm0S+O6xWT2J9D5dvgu8xwzetZga29zt4XJMesZEKbGTCFexBf4u/1AerYw/PHv+K8spaGH9bwoJzBz2V/me8GcuDecWN6fa8iPaGsyFa8YRNIykbBfpKXOWv+knMu5zoqfd+1pcgI+l44CstWXBdsUu5FucgKaBhDKWNpKxST570VWibdyM8fKNTXuH8zH87SfA9iH8i5SvS7xl3XkJavIfzjCH+xnMsbu7A0pAGxtJxa8aNZ+asY4GvtDGJakVbyrXwAhIDNBYpf7H8/bBtAjuB9T2c/wi+xwzfcIUT+NtRwpePFiT7Q1zwVk7GkmF4+gVrT0yI11TYw1YQJU/RikeJL9LV0yuO/mhXm67oyFc7QtT+/6DvGTuFG+ME31D1QsQ/B/V5YPjEmllIryzIZwzpLRuwTC7C2nkJjF1G64Yb/dWJxwPf5QfI1NTbQLtP4udotgknpb6H8zPBN8rwZUl1GPiwD0ud/7SsrnoGax9mUe4dbcVXW/2mhubuX/lqJMlYKi7dtWLy1R7sm2/wuFkP05T/tDNjicisGsCwfQcrHz5hYekFzOUZAcDUecIsOWHf/h/mlxbRVpXj1wsu7PkIaem+X4VNOJOB9LRkOa6wUzqa6Sw+fZ1peIxBmwv293tYXLGj69YldfpaNJ6ykX1I402qjcEaUsZSUHjnOSakXaw597G6uY2R3jpkxH89og1XGSPZzCuQSFqB8OXx5nVvYWPTirIUj01yGM30bLDKKaINj02h4SvqZyH9GKYhOaZRUzaAUWkPK28dGBs0I1szcyAy8hXxs2d6tgMldxdgffsJ9lebeHSnBKc1IBGpF5H84/ldoO5EyDu7OoJlx3OUxjEUPHyHe10WzA1Xg7Eq9HzYQUexp9zF8hXZHpF4+LSzFAa+jGXipvUz1hfuITPOYx+L+wX1c/9gdaYN55TvhNqWRJyv7MOAzYHl7eDLVZHqcjS1qtSnk1LfFXuCXQm+0YYvO42qiS9Ye9boAw5LQKllD+sTTerUYlxagXfqsBHdK24Eg29SxQRsrl087b2LcsMtNFismLD7wzexeBjzzl087WuTw5j61rHseAdzfoIK88SiQcw6/+cNY4KpbwN2pwO/Fp1SwyQZpmB3fcTjhgIkeSufVjAsKQdFlUboK1vR99KN+ZFW6OXPRuiLs3HK2zjGFw1gzrmLsd67uF5xE7UP17Dk+ohufbKclmg8kSosty2u2AKb6yOG2htQWlaFimYLnr7dx7M7OWq+lDyEq4yRbBZNKxC+8dn3MOHYw7BmPV8EviLa4DYF65Co+RUsLxH9MBlATlgnxlFnrEH57VFMbrkx11uKBG+5y/CdaUd6UjJ08isTdTP+a74ifpbhsvYGg5YuVBhMMD1+CbtrB/fLPPrh+ROpF5H8w3+PRt5ZVjemXHbUpCSgYmwTzRW/YZJ3rlLM+N21iYZMDXzX3mJo5LeQ+RKxR8Q/MnztfchRy4KXSRISNJ3SuKwOPHN8wnCdZ69J6s0XsDteoTE7Xq07IvYkFvbD6tzD+ON2VIRYropUl0XbBBF7VP3L+z2Cz3SJ6FCkbRGp74o9wa4E3yjDlzv5TMMyNt5bUXbK26uMv47uN/vyWlBgITB2AY0LweF7dWDPbwMPi7+KDskfvsVymHakeRtBxjJQP+fGQm+pWomK+nYgzXeomy14mIZ5Nxb7ytQwLC4DFRYH1l37WJE20NdtRsFZH8AVuyNNDaXpu9B2pxKpqj1ZaFp0w9arV9PicUWKJ1KFlf3caIf0dhSXvWnx75LO5SHr3Gm/tOT0wlRGEZvPCKSlrYx8dGGyfsbqbDvOazozchg/SHlglRgf97XNYbTh8WHokS//3RMm/JqviH5k+Lq2Yc7z2Zjd8Q7SawsKNPBVNvZor9oNVyJ+luEiWVDgBYWsE7u/nkXqhYh/opF3ltSEYXnz3gU0vlhEVWoDhtf6kXOxF1bXPCoSNfB9acGlBG+bwPLlvRPaeipij4h/gm24klyf0K33pO3xTQKyOzaxvjmJa+cMeLC5j+nOy34zZiL2eNqWTnWTIV+uuvHsC9ZGbqpxidTlaGmVxyPHdULqu2JPsCvB9wjgy9Lb8NS1hwflHnjFFQ1iwbkOU7pP/EphhIIvY0momnBjZahKbZT51Gftcx98GdPJYeyDRu9ow9OQ6wf3ID1rlEclcphxN1aHq9V4eNrXhj9DGm9Wp3X5dzzs+VIzWi12zG27IW3aYMzy9YQ9YcI35kq+4hJOeW1KRc3E1+uS0YBvXOEA5l27GOtrR2XZVVxI9Y3kFTuUa7iRrxImnM0iaclgnb+HzKRkpJtmYXdsovmifweGh9HCSXk/2RpktH7E8BXRD/eNB75zqPCCg3+XoO/H+It+FHk7FvLI1zaIkqISFMgvA9ps/iNfET/LcHl+R51mVvS7bqnxdiYi1wslnbAzAwJ1RyTvjJWje2sXXSXX0LkyhiJWhnub09CXPcXK5ggKvZ2TyPmKXJe5PZHi4WHkke/6GCrUsuBlUoyM0/7tD0ssRtvKPubWHVhfG0aBd7Ag51vAP4p+tG0U/2/gKxrwVdIK19Zp0z0p9V1rU+B7gm8QsQQ66aCfFaDaHlfI53dzf9uG9CL4Nn8lbOC0M+9BVk/4QMttCNxYooRRGnDtVZq47Tn+ECQeHpdcib1hguUvPtWA7nU37CM31elzjw3h4ZuY24QH839gxeF/xCdwR2404Mvzn22yYHhpB2suNyTnZ8w9H0BxsE5OmJ6wiM0iaQWCdXW0zs933H8yoO0WlPo1jCXIPqf7qtEKpQ2lvMLBxRcmdHmJ6Ecucz7t7JpFuQa+SvzKVWTNV8TPsi41R3IC86jYrD1uF1gvFJsC/6t8z69KPNo6o7xX6o4cLkLeGbsIs92Nx6YmDC7xTU65aLGv4XbbIiTbPWRo4SuQL8UG7VVrTyT/cJsjrflq/ZD166bcGZzuyPfTn4h/lDDastDGrbyPDnw97aHWL8p7rX+UNMPBV0SHPG+R2haR+q7YE+xK8D0C+HJHZ7VtyrsgC+JycHvJjcm2XD9xK4URqoE90Mh37FfvaEMZdZSgIOesDH5l5BBu5MvTSsspQEaq/yhNzsNGP3I107rhoMlYDppt+7DPDcGgL/XaVAbz7MFHvqWWL5AmmtS1ZKXnu2YxBvVjfNJ5ZJd1YviVG8sDBnXKS/VzCPgexGYlrlBpacF6rWsda46Xfmto/P9ymAhngZV0QmnD9/vhpp0Vn9rD6Ien5Rn5Hg6+on6OBBeReiHin2jlnbHTqJlyY6xvBJPyed9kGKecGBp/47dhMHK+vCPfCGURKR6ed1H4srMNGH73D55aN7D6bgGGs76RsYh/lDCrmtk5nn5cQiISE3wzZqJ1OXzbIuYftexPSH1X7Al2JfgeEXzZxR5YXR9gvt6KMb5edtEnbG1BhGtgS/j0saahDrXmuz7epI6wGItH2sUyXM7x7bYOtuZbr1nzVdaAFx6XqxtoeDyFvS5Icm/eZzuTe/ZuBPaUeZ5YnBG9DjeGTL7NMfIadJCzqOHi4XHldG1D4mtnys7LuMtoW3PD2lmgwvfMRQP0V7JUm/n/ih79Jd/sIUXTYZBtC1UZBW0WSUsLVhafh+aFL1idCbLmqylTbluoVzhtyHliCagY3cfGk1sh75AWyc98XS+SfqICX0E/i8BFpF6I+Cdaeef2WGfXYO2vkMuyZHAXts1d2B5dV8tWJF8i9ojEIwJffkOL8ic7WF/qRfapApiX92F7cku9SQr3n4g9ctuimdXjI0a+4XR1pFbtAIvUZU958VmD4G2LqD08nBzXCanvij3BrgTfMI1fMIeJfsfYFbRJbkzZNrEecPciDraz+crNHjy7nW1PfvXufq5EdqoHdkkVU1jia5p857C823kB1oANV4nFFsw7XRjubEFZuRGV5nFMvf+M4brzasXnu51n+I5ovmu60oSbvRtYdn5Am2a38/lGO+wOJ4Z+M+N6RQ2q2mYw4/iM0Rb/tUheuSrH/sGa7QmqDHz3sxHXCs55BM+yUD//BWsrVjTdNKLU0IRmyyym1oONfEPHw30cn9uNSccnTA60o9xQh/qhN1gN2I2ZYlrAqmMLPS11KNEboL/Vj9FNN+a6gxzbClUZBW0WSUsLXzkP+T2YcnyCpSFTLYvAMIF6EtWG8r/M1tfYeGOHudrg1U8ZLpzRdpbC+1lEP1GBr6CfReAiUi9E/BOtvOd0bmH57S4m2y7K5ZzduSVP5Wpnu0TyJWKPSDwyfCPcZCO5fByLLgfar3iWO04VWzDn+hMPyn031RGxJ/HyAGaU3c4Vys15/sSDCl88InWZl1e4toX/LmKPUu6hpp2ZoA6jVd8VezIvn8K/nTpIhb5NiwTfI4NvHAp7/5Ar4YveUr+RCRcZX89V1iwCr70GT+PJe6eFrTOYer2HlTdbGLxjQH3A7SX5ulZm9RAs9h2sfvgE2+oaHrSU+vVg+fSQfBZ42SWf832x/PU5XxaXhvymUfxu/wP2D39jeWMDD82lSNHs1FWEFP9LM3oWPsLuXdfVrucmZJnQ+XwLi9t/y2c0+1qKYXzyNXx5XOHi4WdC08t6MWDjZ5N3Mb84gxZ9wPnluHRc7ZiVz0GvO/exsvkBo0N3kKM5f6rYHKoy8t9FbGYCaQWClZ+hzet+hw3NlF5gGMU+5SqqDTW8rgC1ltdY2N6X9SS5/kKn92ypEia8nwX0E2Hdk6cjsuYr4mcRuIjUCyXvLIx/hOqOQN75Tnheh4e9Mz4pDcvyZ+0MkFi+IpeFSDwcvoFtCv8sec/js6Qy3JPcWBiqUo8+8unzUssOJGkURd76I+QfdgoZ8rl+p3rOtyvgtrQidVkpr8NqVYnnpNR3bg9jDE1GHf5tP4UmzaY2gu8RwVcRAV1DT6uSb8g3pAHSwI+uAX6f7/G7OuxXxanLgzzPBF+Crzol+qNXAsofNfSkAdJArDXA0hLg7NRhNMM35cxtIPgSfAm+pAHSAGmANHBEGjh76RT+bUlQz3wr8Cf4HpHDFQfTlXrapAHSAGmANBCoAYIvwZd6vKQB0gBpgDQQYw0QfGPs8MDeD32mHjFpgDRAGvj5NEDwJfhSj5c0QBogDZAGYqwBgm+MHU493J+vh0tlTmVOGiANBGqA4EvwpR4vaYA0QBogDcRYAwTfGDs8sPdDn6lHTBogDZAGfj4NEHwJvtTjJQ2QBkgDpIEYa4DgG2OHUw/35+vhUplTmZMGSAOBGiD4Enypx0saIA2QBkgDMdYAwTfGDg/s/fCbbscnJPg99SgwDH3+vnrNVKbfV3lR/aLyOg4NEHyPGb5nTQuwu/YwZMo4sp6n55FePehfdMiP/XphX0J7dS4SAx44H0sB8sfCXW58gNritK/y7XkcWPBHLkquLbTk+p5XGw2bIz3mj6fBwwR9TFvAs5p52FBlmnff4ReH9lGMgfkI55/AsIf5LPIowMPEH+6/jJ1BjeYRmQfxT7h46TeC6fegAYLvMcM3rWYGtvc7eFyT/hWEoiWg+LweTDv2MDnQgQrDTdQ+XMWSy4nOq0lHlmYk2xnLg3nFjen2vK9sYEnZKNBXeh4OXz+JeZcTPfXez/oSZAR5Xm+k9ML9LgpfacmC64pdyrU4R30mqpJGqDJNyir1PvC+Cm3zwZ9xrMQRzj9KmGhcTxJ8D+KfaOSd4iBIH6cGCL7HDN9YFH7+fSckew+yvCNdPqqqte7DPlR1bNPdonAJ91DsaPlOGL7WuzgThdkC/pDyG+ME38CRr1KeIv5RwtKVAPq9aoDgG2X4sqQ6DHzYh6XOfzpVVz2DtQ+zKPeO2uKrrX5TkHP3r3w9AmSJyKwawLB9BysfPmFh6QXM5RmI9wIguc4Gaa4DZxkDK+yXR4h3LzHwRq32uRtDpjPg648Vo/uQRuv8QJt6yYjy4mw1LsZ0nrSWnLBv/w/zS4toq8rxm5ouG9mHNN6kfheskSwZ/ARpugMldxdgffsJ9lebeHSnBKcV8Oc+gNUVYkp5oQvpAXALB18+nZ5peIxBmwv293tYXLGj69YlvwdWM5aCwjvPMSHtYs25j9XNbYz01iEj3jd1HQhfHm9e9xY2Nq0oS/GEk8NEgK9ImfKGIpjflAYk7JS7xj8sgjbkdAzTkBzTqCkbwKi0h5W3DowNmpGtmTkQGfmK+DlSuXvynYpLd62YfLUH++YbPG7WwzTlhn3whp/2w/nHE0/4eiGadx6OXuSD49IAwTfKFZCx06ia+IK1Z40qBHjjVWrZw/pEkzpFGZdW4J2CbET3ihvB4JtYPIx55y6e9rWh3HALpr51LDvewZyfIDcarNgC26YFlxhDonEGL17/gf7qU2DsMlo3/kR7EQdxAirH3JCe3Arb0CQWDWLW+T9vWiaY+jZgdzrwa9Ep9X/C8F17g0FLFyoMJpgev4TdtYP7Zckem5NyUFRphL6yFX0v3ZgfaYVe/myEvjgbpw4A3/iiAcw5dzHWexfXK/h0+hqWXB/RrfekxStVHPeR6yOG2htQWlaFimYLnr7dx7M7OWq+AuEbn30PE449DGvW4UXgK1Km3KZwcGGC/omkDTkdGb5OWCfGUWesQfntUUxuuTHXW4oEr59l+M60Iz0pGTr5lYm6GTfsA5Wqf0T8LMM3TLlze5IqJmBz7eJp711Zzw0WKybsB4dvtPLObaIX+eC4NEDwPYIKeKZhGRvvrSg75Rk1sfjr6H6zD0uD/2iYFzpjF9C4EBy+xQN7kObakaaMGlkG6ufcWOgt9YAsvQ1PXQsw6Bh+aX+JnqFpTPyaB5ZwE48ddtSmisO3qG8H0nyHOvJkLAMN824s9pWpDZQwfCULCrwjS3l62e6zWRF6NKad0/RdaLtTiVTVP1loWnTD1qtXbT7TaIf0dhSXNVBPOpeHrHOn1TBa+DKWCZP1M1Zn23E+LmB07AcpD6wS4+PUeHx5C12mnjI//LRzJG3I6XD4urZhzvPZmN3xDtJrCwo08A22kUwLXxE/y/CNUO5XZT17Zmpk++KvokM6OHyjlXelvOhKAD4ODRB8jwC+TIbiHh6Ue0aocUWDWHCuw5Tua8yVwg4FXz4NXDXBGyajd0Tiaez1g3uQnjXKIxfGDHiwvYXbOXEotbxEU1UPJi1GxGV2YdILHJGRr5zWuBurw9V+ILk2/BnSeLM6zSwM3+d3fNPMPB98fdNS4xd3NOCr+DAu4ZTXR6momfBfS40rHMC8axdjfe2oLLuKC6m+kbzyfxm+8/eQmZSMdNMs7I5NNF/0lJ02TDBITbb6RtBK2FBl6vv9cPAV0QZPi8nwnUNFgk93Cfp+jL/oR5G3YyGPfG2DKCkqQYH8MqDN5j/yVewO52cZvmHKnbEkWc8rQ1WqDviSAF8eOci0czTzruSLrgTf49AAwfco4OsdzdoeV8jrrLm/bUN68fV6Ji/wUA01Y8mongixNjpxW57SZiwbTba/cf96JhrmZnD9dAOG5zqQfu132L0jZjH4etIKbATlBtWbFrdVGL7TZiSro9HgoIkGfBNzm/Bg/g+sOPz9pD3Cw/2YbbJgeGkHay43JOdnzD0fQLGmI8ThqwXr6midumSgVEoZ0HYLSlVIeWCVfU6nwkQJG6pMfb8H94nyO7+G84+INuQ4ZPjOolwDX20a/L3Imq+In2WthCl3xWatxr5lw5USj7a8lPeSRquejkf4vAf6gj4ThGOpAYLvEcCXF2BW2yakVxYUxOXg9pIbk225XzXSPFyohlrt4Y/96h2RKCOTEhTknJWhzsFa/uQLnjQ34N78I2SzYrQvj6KszqaOJtQNV2O3/DdcFd5EZYlnw5XoyLfU8gXSRJO6LqvYuGYxqnmL1Agr4g4HFyWM7B95g9bXZ3sZy0GzbR/2uSEY9KVeH5XBPOs/8tXGFZ90HtllnRh+5cbygEHdbKYF67Wudaw5XqIxO17NE49DDuPd3KaNM9j7UGWqhA235usLE+YoljIrEkYbPB4RAEWCr6ifI5V71Ee+Uci74mu6EnSPQwME3yOCL7vYA6vrA8zXWzHG190u+qb+tAUdrqHma1vr403qKIyxeKRdLMPlHN/acU7XNuaGxzEyzqGYhptWO7oHPmDibrYKD5GjRsHWfOsD1nx5WtJaP3K8U5Ys7jLa1tywdhaoaUVqhJW8M5aLFrsb0x356n+V37TXULudWZwRvQ6+o9u3uYqvU3ObtSPfMxcN0F/JUjcY8biLHv0FyXoXKd7RuRasLD4PzQtfsDoTZM03avBNkHegbzzx7xD55TuCf0S0ERX4CvpZpNxL+JKJxocs5JpveP9EK+9af9N7AnCsNUDwPSr4sitok9yYsm1iPeAuSByiZ/OVm0Z4djvbnvzq3f1ciexUD6gTiy2Yd7ow3NmCsnIjKs3jmHr/GcN151Vg6W6+wPqrP/D0frH8XXH/Fl68+hs9lb41y/j8Xjx38ptstKOi8iZq76/AFnCTDb7beYbvrOY7UStNuNm7gWXnB7RpdjvH53Zj0vFJjqfcUIf6oTdYdbzyGyWKNMJc5Hz6sHLsH6zZnqDKwHc/G3Gt4JyaL6UihIQvy0L9/BesrVjRdNOIUkMTmi2zmFr3h2+KaQGrji30tNShRG+A/lY/RjfdmOv2He3SwpenG5/fgynHJ1gaMlV7AsMo9ilX0TJVwme2vsbGGzvM1QZvuZfhwhlfBy2Sf0S0ERX4CvpZpNyTKqawxNff+e50wy00WBZgDbLhivsonH+ilXelLOhK4D0ODRB8jwy+cSjs/UNeS3zRW+o35Rtu3YqvX/UaPI0wn57MrB6Cxb6D1Q+fYFtdw4OWUr8bPTC+mcvlhqU+VQbFebMEfgvG2znahjwB58t7MWBzyreXXPDeXlJ7rIdPIctnipdd8jnfF8tfn/Pl09zpZZ547Nu7mF+cQYved+6YC1ikEVaEHv9LM3oWPsLuXbPVjliVMKHgy39PyDKh8/kWFrf/KQ/9dQAAAP5JREFUls8T97UUw/jEH74sLh1XO2bls6Xrzn2sbH7A6NAd5GjOugaClZ+hzet+h413CzCc9fgxMIxin3IVLVM1vK4AtZbXWNjelzUiuf5CZ7GvzHi4cP4R0kaU1nxF/CxS7vzmLoWtM5h6vYeVN1sYvGNAveb2kopv+JWF8U+08q5Nj94TgGOtAYLvEcE31gVJ6VHjQRogDZAGvh8NEHwJvurUKlXc76fiUllRWZEGvm8NEHwJvgRf0gBpgDRAGoixBgi+MXY49Va/794qlR+VH2mANBANDRB8Cb7U4yUNkAZIA6SBGGuA4Btjh0ejx0RxUM+bNEAaIA183xr4/0sPyBYqfbalAAAAAElFTkSuQmCC;" parent="1" vertex="1">
          <mxGeometry x="890" y="865" width="399.17" height="107.5" as="geometry" />
        </mxCell>
        <mxCell id="X8-YmAEyeT0cLUdq3Hq5-1" value="" style="html=1;verticalAlign=bottom;labelBackgroundColor=none;endArrow=block;endFill=1;dashed=1;exitX=1;exitY=0.5;exitDx=0;exitDy=0;entryX=0;entryY=0.5;entryDx=0;entryDy=0;" parent="1" source="7W9C7AiGitJRjh3ZuJ_5-12" target="7W9C7AiGitJRjh3ZuJ_5-20" edge="1">
          <mxGeometry width="160" relative="1" as="geometry">
            <mxPoint x="290" y="990" as="sourcePoint" />
            <mxPoint x="450" y="990" as="targetPoint" />
          </mxGeometry>
        </mxCell>
        <mxCell id="X8-YmAEyeT0cLUdq3Hq5-2" value="" style="html=1;verticalAlign=bottom;labelBackgroundColor=none;endArrow=block;endFill=1;dashed=1;exitX=1;exitY=0.5;exitDx=0;exitDy=0;entryX=0;entryY=0.5;entryDx=0;entryDy=0;" parent="1" source="7W9C7AiGitJRjh3ZuJ_5-20" target="7W9C7AiGitJRjh3ZuJ_5-22" edge="1">
          <mxGeometry width="160" relative="1" as="geometry">
            <mxPoint x="490" y="1000" as="sourcePoint" />
            <mxPoint x="650" y="1000" as="targetPoint" />
          </mxGeometry>
        </mxCell>
        <mxCell id="Xova7BRaURqqxDnmJqIO-3" value="调用&amp;nbsp;FalconHelper&lt;br&gt;.countRobotTaskConsume()" style="rounded=1;whiteSpace=wrap;html=1;fontSize=15;" parent="1" vertex="1">
          <mxGeometry x="90" y="1220" width="180" height="80" as="geometry" />
        </mxCell>
        <mxCell id="Xova7BRaURqqxDnmJqIO-4" value="根据任务类型 执行不同操作" style="rounded=1;whiteSpace=wrap;html=1;fontSize=15;" parent="1" vertex="1">
          <mxGeometry x="120" y="1380" width="120" height="60" as="geometry" />
        </mxCell>
        <mxCell id="Xova7BRaURqqxDnmJqIO-5" value="addFakeView" style="rounded=1;whiteSpace=wrap;html=1;fontSize=15;" parent="1" vertex="1">
          <mxGeometry x="120" y="1500" width="120" height="60" as="geometry" />
        </mxCell>
        <mxCell id="Xova7BRaURqqxDnmJqIO-6" value="&lt;span&gt;1、随机获取机器人账户&lt;br&gt;&lt;/span&gt;2、随机设置曝光次数" style="rounded=1;whiteSpace=wrap;html=1;fontSize=15;align=center;direction=east;" parent="1" vertex="1">
          <mxGeometry x="362.5" y="1500" width="165" height="60" as="geometry" />
        </mxCell>
        <mxCell id="Xova7BRaURqqxDnmJqIO-8" value="" style="endArrow=classic;html=1;fontSize=15;exitX=0.5;exitY=1;exitDx=0;exitDy=0;entryX=0.5;entryY=0;entryDx=0;entryDy=0;" parent="1" source="Xova7BRaURqqxDnmJqIO-4" target="Xova7BRaURqqxDnmJqIO-6" edge="1">
          <mxGeometry width="50" height="50" relative="1" as="geometry">
            <mxPoint x="230" y="1590" as="sourcePoint" />
            <mxPoint x="275" y="1560" as="targetPoint" />
            <Array as="points">
              <mxPoint x="445" y="1440" />
            </Array>
          </mxGeometry>
        </mxCell>
        <mxCell id="Xova7BRaURqqxDnmJqIO-9" value="" style="endArrow=classic;html=1;fontSize=15;exitX=0.5;exitY=1;exitDx=0;exitDy=0;entryX=0.5;entryY=0;entryDx=0;entryDy=0;" parent="1" source="Xova7BRaURqqxDnmJqIO-4" target="Xova7BRaURqqxDnmJqIO-5" edge="1">
          <mxGeometry width="50" height="50" relative="1" as="geometry">
            <mxPoint x="310" y="1530" as="sourcePoint" />
            <mxPoint x="230" y="1550" as="targetPoint" />
          </mxGeometry>
        </mxCell>
        <mxCell id="Xova7BRaURqqxDnmJqIO-11" value="VIEW" style="text;html=1;strokeColor=none;fillColor=none;align=center;verticalAlign=middle;whiteSpace=wrap;rounded=0;fontSize=15;" parent="1" vertex="1">
          <mxGeometry x="95" y="1480" width="40" height="20" as="geometry" />
        </mxCell>
        <mxCell id="Xova7BRaURqqxDnmJqIO-12" value="" style="endArrow=classic;html=1;fontSize=15;exitX=0.5;exitY=1;exitDx=0;exitDy=0;entryX=0.5;entryY=0;entryDx=0;entryDy=0;" parent="1" source="Xova7BRaURqqxDnmJqIO-3" target="Xova7BRaURqqxDnmJqIO-4" edge="1">
          <mxGeometry width="50" height="50" relative="1" as="geometry">
            <mxPoint y="1400" as="sourcePoint" />
            <mxPoint x="50" y="1350" as="targetPoint" />
          </mxGeometry>
        </mxCell>
        <mxCell id="Xova7BRaURqqxDnmJqIO-13" value="" style="endArrow=classic;html=1;fontSize=15;exitX=0.5;exitY=1;exitDx=0;exitDy=0;entryX=0.5;entryY=0;entryDx=0;entryDy=0;" parent="1" source="7W9C7AiGitJRjh3ZuJ_5-15" target="Xova7BRaURqqxDnmJqIO-3" edge="1">
          <mxGeometry width="50" height="50" relative="1" as="geometry">
            <mxPoint x="-20" y="1230" as="sourcePoint" />
            <mxPoint x="30" y="1180" as="targetPoint" />
          </mxGeometry>
        </mxCell>
        <mxCell id="Xova7BRaURqqxDnmJqIO-14" value="increaseFakeViewCount" style="rounded=1;whiteSpace=wrap;html=1;fontSize=15;" parent="1" vertex="1">
          <mxGeometry x="90" y="1670" width="180" height="60" as="geometry" />
        </mxCell>
        <mxCell id="Xova7BRaURqqxDnmJqIO-15" value="sendMessage" style="rounded=1;whiteSpace=wrap;html=1;fontSize=15;" parent="1" vertex="1">
          <mxGeometry x="120" y="2000" width="120" height="60" as="geometry" />
        </mxCell>
        <mxCell id="Xova7BRaURqqxDnmJqIO-16" value="" style="endArrow=classic;html=1;fontSize=15;exitX=0.5;exitY=1;exitDx=0;exitDy=0;entryX=0.5;entryY=0;entryDx=0;entryDy=0;" parent="1" source="Xova7BRaURqqxDnmJqIO-5" target="Xova7BRaURqqxDnmJqIO-14" edge="1">
          <mxGeometry width="50" height="50" relative="1" as="geometry">
            <mxPoint x="725" y="1440" as="sourcePoint" />
            <mxPoint x="715" y="1350" as="targetPoint" />
          </mxGeometry>
        </mxCell>
        <mxCell id="Xova7BRaURqqxDnmJqIO-19" value="" style="endArrow=classic;html=1;fontSize=15;entryX=0.5;entryY=0;entryDx=0;entryDy=0;exitX=0.5;exitY=1;exitDx=0;exitDy=0;" parent="1" source="Xova7BRaURqqxDnmJqIO-14" target="Xova7BRaURqqxDnmJqIO-15" edge="1">
          <mxGeometry width="50" height="50" relative="1" as="geometry">
            <mxPoint x="-35" y="1820" as="sourcePoint" />
            <mxPoint x="795" y="1430" as="targetPoint" />
          </mxGeometry>
        </mxCell>
        <mxCell id="Xova7BRaURqqxDnmJqIO-22" value="" style="shape=image;verticalLabelPosition=bottom;labelBackgroundColor=#ffffff;verticalAlign=top;aspect=fixed;imageAspect=0;image=data:image/png,iVBORw0KGgoAAAANSUhEUgAAAu0AAAFFCAYAAABYGdN5AAAgAElEQVR4Aey9+VMcy5YmWH+PPxKIl+yG2ATGvkOymliTHVKABGhHIBCpBSRAQmIn2VISkpAEKV1dXSRdka9fPVXP2CzV091mUzNmU2ZTNWY9NdNdNa9qpqy/MY/IiIxMcgkgpQvo/JAWmREe7sfP+cL98+MnTv7F7373O9CHdEAYIAwQBggDhAHCAGGAMEAYOLoY+AsyztE1DtmGbEMYIAwQBggDhAHCAGGAMMAxQKSddhpop4UwQBggDBAGCAOEAcIAYeCIY4BI+xE3EK2uaXVNGCAMEAYIA4QBwgBhgDBApJ1IO62sCQOEAcIAYYAwQBggDBAGjjgGiLQfcQPRyppW1oQBwgBhgDBAGCAMEAYIA0TaibTTypowQBggDBAGCAOEAcIAYeCIY4BI+xE3EK2saWVNGCAMEAYIA4QBwgBhgDBApJ1IO62sCQOEAcIAYYAwQBggDBAGjjgG/uL3v/896HPydBCWGAb6HA0d0PN18p4vsinZlDBAGCAMEAa+NwaItJ/QRQsR9qNB2LkdvvdDTe3RREIYIAwQBggDhIGThwEi7UTaySP/jXclaOA8eQMn2ZRsShggDBAGCAPfGwNE2om0nyjS/vPPP4N/jtJOw/d+qKk9mkgIA4QBwgBhgDBw8jBApJ1I+5EiuIcl20TaT94gRRMP2ZQwQBggDBAGCAO/B5F2Iu1E2ik8huLuT+g4cBwnOUEfjogIehfkONqOZCZiTRj4thg4EaRdEASE6wXoBeHYkI9vLfNhPdbH9f7j4mkXwuKRUd2JkrTjg1lfg7Eg6BEWHn6snkFf/aFrviceIa0Gxuo8xIYFDr9CZB4azE8x92oX1smziDxG4znhxTdeSD+kH8JAYDDwm5D2+ioBXxsEnPIyKJeUCfirvt8rnz/V+J4YknME2HsFLOf4LneUQLMfmTnBP98g4A9V2vv3W5NufUIk7q624c9TyaInX58Qh7WtNvzXL5UYydRL5zIy8HW3Df91qwBVCdK5w8p9HEh7WGozLi98wNrLDXTkO21aMPATnrz9w56Pdf0msr08K54wzeuxzl5Ewj7uca9HSLmESdvPuGBwysfLCAUjmLM9Q2uy6/mE5gUs2z7C3Jz8zRbO6X0v9uiG68s6fwmJh+ire9/381sQElDY0Y8GQ8I36/d+5AlUWX/9EvKvYPLlLpYWxnAmNTwgfc+48BLrL1bRXV+F/MxEWgDS7k9AcBWoZ4LqCQzpJD0eTo9HkrTHnhJQmyp9brcI8EfaT2cL+HhOwHy2K5E4yuDYj8wnh7Qb8bdvmrHbFSGS9lhTGf6frXr87z8QaRfi6nH9yS5mxrqQEe2KV5FsL91BZXk1DOpPcSai90FKA0LahRL0PbNj8nymy8SZ1GmF9dkt5LrJE98wjYXX7zHUkOhSPpDPICft1vUHqFfrhn8vSEWEmzyBbNdXXYKQg84VOx725Xyzfvtq/1td09IvIToPDWPbWH8yidJTrljer1yCEI7qe7tYu208UXrcrx6o/OEIDemP9HfSMfDbkfZGAbF+JlpOVk1G/6T9pBvpJJH291NV+KfpVEQnhOHcw2b8d49K8fc/CGnnxKToxlusLw8hM3wvyRHJ9qPzfp8Lf3gPDGkPx5nRz1gbNylhCoIQgTNjX7BypxHhfp5dfzIe5LpI2i39SPkN2vYmrxZy6+3eo3xea7+E8AKcW97F3I3KQ2GCh1edGdvF+mgLedjJw04LN8IAYcALBvZF2uWwlpp8AVtdAnbPCpgvEhCvmkSbawR8NQqqiX4v8ZbrOeOjHj6h+SPtYVmuYTTvy/YSIV5HRrqApTYBv54TsNMh4H6OgBiVzP4mTyFcwOJ5Aau5rvVHZwr443kBbQ4CxtvKyhSw0iZg95yAD20CbmcKiFK1pVXm8iIBr88K+EOXgPk8ARcOEB6jT4hA60AZ/uO7ZvzLbiv++UM9/tv7aSg+7QxF0SeEofhsIb6+asSff23Bf9qswHJbDCJU4So9Uy3AajbOD1bibz+04B9/qsXngQScVpXh4TAtg2X4m5+a8ecPtfj1ShImlt3DY1qwfTEb/+GXEnSfTsDL9zV4eNGAP6tIuxZ5fPVLDo/xVUYOwRHbMhXgjy8b8I+fW/B/vqnCm744xLv0KwLNA2X4n9/xftXjT0MpeLzahn98IIX98Lr8ySzjSwivQf/LXdxq8xxKoYW0c+KfUjOMkcW3sLz+iPmVFVxqyXfBmDtp5/dkX32F9eePUeHwiHICnlJ3E2bLeyy/+YS5pXl0nklxIUzxplVYX4yhSC/hXnB43+92JCkDqr7+sUvIyvTVYuWa0m8/bcW0LinhPEL+MGZt2ziXL0AQTqFhyg5z8ymxTn+kXYhqwc03u7jVGu8iQ2T9Y6y+mcGZKLkf/vteMvIJ1ocXUXJuHlMvPsHybAM3ukuVcUPI6seUze7Sdzm0ab/hOv5scdT7darNgvWXEyg5ZHx7ifkjrA8797WrJGOMjuRhJQwQBn4EDOyftJsEWGoEdGQI6CsX8GuvgMcZTjKrmbR3CJivEdDO66kQsNsr4FG6sx6ufH+kXR/tDKN52CHAE2mPTBLwtkfAy0oBbekCzpUK2PHQli9jczm6jAL+WO8k+/xcU42AvzQ6dwwiTwt43yvgBW+L96tS6ted085+aZE5Nl3A514BG+VSPVerBWx2HCCmvb4I/2BvwJ+G03GhNRnXrxTj3/3Siv8wEKtkjImpL8Lf7zbh349no9+UivHxavyX3TpYKp3EXiTt23X4N49zMWhKxcRkDf7J3oR3rVKYCyeuie0l+L/tTfh397JwzZSGx4/K8B/fuJP2NnzpisPiZgM2LuXhbzfzUN5ZBqhIuxZ5wnz0SybtvsrIpD2ythB/t9uEv+Yyd6RibLQa/9neiO1mZ7/iW0vwD/Zm/PtxR78eV+Jv37mSdn8yy9gS0i5j0vYGnV7CuLSQ9rCiEUxvf8DYwHlUVjeh4foalmw/4Up5jEJU3Ul7WMYVTGy5xptHFN/CzPYH3L/RgzM1LWi6YcXS1ia6cp1ZO4TcIczYXsLkeC6F0xcx7ia/PiHPEcrTgasrdngi7f7aEgy3sbhxB3mCgAjjNOaevcNQfSQEoRDnrD+hr0h6fkTSvnwDmVHRiFQ+UQh3kEVBiEXd5Besjncoixi+YCm/vYO1CZNCBv3Jw+0lkva1Fxi5fQlVNc1oGnoKi+1nXKuQ9CxEZ6Ko2ojy6vMYfGrHzJ3zKBd/G1FenKE4LWTb+zr6k+eo90vIGcRj2wbaU53jnK/+ertWdONnWB+d9/quk7f76DyRNcIAYeBHwcCBSHup4nkTcKVFwK7qBUnNpN0kYE89Z1wHfX+kXTYSL3etxTNpr6oU8LVFQKrD283Lnq0X8McaYV/buYm5Av50TkCz7FXXC5jsFrCm8r7Lbcnb97wtrp9Pla794nL7klnciWgRkCzLrBcwato/aU+7dAb4YECHynOcmHcK5XlOUtr9sBl4lo0sRxl9QjSmnrXhP91LVIi9SNrfFqEp0fECaUIclt+4luGhLryebLmexES8eLeXtH/ti0SNuR5/ZzPifzPH4XRfpQtp1yKPr37JpN1XGZm0Z7Xk4OnAaWTIMifEYOZ5G/7hfpLSd9N4E7CZh2K5TGICnruRdn8yKzgVvchP0aZaxMnX+FEk24/7kKQQUomcRoTpFUIeX3EJ57trECdjQ0hDx4IdC4MVShk1aReEVDQ9+oSV6T6cdjy3vC3DzR1YZy4ou2SCkIy2WTvmBsqUeoSwGvS/2oW5JU48xz3W65vjKFbVI8vP22mf90za/bUlJPbgnm0eNZEC0vueYsA8hYneHAhhTRjaWkFDnJO0y95s+Wi1fcKVcufzJXp9Xz9GRaR0TgirxJUXrrsb/uThfRJJ+5NbyFMWBDnoXHbVDy+nNYxE1pOnoxZ5jnK/pMWcTdwd8dQ/X+f0ERzjMYhNrkTP4i5mrpW47Pb4upeuEVEjDBAGfjQM7J+0NwgKYeDKMvJMMEZnCIhm0u5WT4OjHvULd5zYaolp90aA+flOowC7alFxUAML0QI2egVMOVL06U9LHvs+x8uEvC2+GHDP8CL2q96pH7l9XzJzr75aZl72QNljagrxf9ib8dfj2bjRmoDS7HCFjEphHREwW9rwj1MpiEsLVz4XppqBpXREO4iqFB6TpYTD6BPCMbLUhn+dThXr4795PXKmGKnuSIx6yB7z31+Jgr4yG3/5pBIPKvXIvFKlkHYe0qJFnjAf/ZJJu68yMmlXjknhOCX2PxJ3LG341xm5X2EYnG8D5tMQJpP2BKlfcniMFpkVmxfcxJzNN2mXyaj66P4yKK9PHxbp8DbHwThpx9qdRoVsS6T9ClKiopHYNAPL1gZM2SoPuhCFugk7LCNGlcc6GuUjO7COdyiLWR6eYny4C8tIrUikCgbeYX3S6bGW+8WP3ki7oKEtQajFtdevYMrUo/z2U3TUDWDylhF6nsHmxRgKHQsU6UXU+6gqKkWe8jEgOdZJ2qUFwA6unZEymuiLzJjfXkdTooPEa5CH90ck7VPdznAYIQq143as325Q9Cz1+3AvomrRj9iOuLA5mv2SSPtbnC9w2oHL7O8jCNGon3SGGFnmriPHEcLk71667l+/pCPSEWHg5GHgQKRdnapR9AobBWXreT+k3Vc9HGycrB6WtHMC7E6kDwJkmWR/rhQQJggoKt3rwffUlrt+5Lbl+txDevh593r4uYOQdk6mz/QU4etmI/7F3gbstuDvVwvRnSd7zMNhXm4D/tC+97OcgTgX0p6JJIW4huMmJ+0KuZXqcSftnlI+/vW1GJeFQ+61ahVp1yaPr37JpN1XGZmsx5Rl4P2zRvx511UHzn7pcWOhDZiTSLy8GOH9cpJ2/zIrNtdA2q2W2yhXCKlETjOSohQCFJFlwrW5d1jecpIdTvDdSbua9K+MtbqEa7iTJXVZ9/zYab0vYF0ZQLrDo+9pASE9q5497VraEoQMdCx+xtXKVLTNTKMyth3m2QtILB2FRbUb4C+mXS3H4lCVuNDIuvwa1jlnSkgt8vB6pJj2LhVpj0TNhOviSGrvsKTdlbh6s4W8KDqK/Tqop52/fBqXyTFehqKai7j59DNGTRkK1rl+6UM6IAwQBggDTgwciLTLW/NckbKnXfaQ8zhv7nmXf3PCyb3dPBxFVrz8Iqq6HtnTrn5pk997WNLO23Yn7WF6AZEetvhl+bwdc4oFfO0UUC4IGGgT8NoRa8vLc1mPnKdd9U+fEenRqGzNwZ/et+G/PDwtvmiqeIkXstFcm+D6KYtC+H5Iu0ZP+/90PdqFtOddV5N2h6fdjzwy6eZH937JpN1XGf6SrT4hFrMvWvFPzwox1Jzo6HsSVp44FyO8jvM87Gc9C6nKgiUWi5tq0u5fZhlPQvYgHtm4R9n5LMjX+FEd1qI+L38XhEyYFndhmTWjprzM4W2uRNe0K5kU63GQ/9JL61jdeor2DA+e9nu9Ko+1w3vtlh9bX3oXSzYL6hNbcHPrZ/QVe5ZdJpXuMe2KJ9lHW4IQhjOjXzBqasfl2SFkCAb0WcZQ0bqE5ZFaZdzQQtq5rtJ6nsP67Dby9JkwLdkx2ZOl1KFFHl7H9yPtjl0PH/qR7X9U+yVkXceU7bXXdzVk+f0di4Y+wKra3fBXnq47J3LSBemCMPBjYGD/pN1PLHphiYCvJkHZ0hb0Am6ZBNhUf9IiknZP9biFsXAi3FYn4E+1knfbGyh5OX8x7WlKDLC0iPg3Nb7r9NSWEC/gba+Am2lSqMxwvCuB8RTTfvkAMe11PFQoEDHtFcm4UBejhLlwEmqaaHIhoTwe+1+X0hWvOs+EklmRhI6ySIVcS+Ex3j3tCrnVENPui7TzerTIk+ajXzJp91WGE3B9Ygo+7rbhL3uc8f1yPL/saefyZPRV4l926/G2Kw6ZOdFovGTA//qLk7RrkVnGkhDdDvP2r7hR5/Scy9f40S9p1xsxsGXHSJPzpVMei94654G0O/5cSQjLgWn+C1Ye741pX5voUDzwnDjHZ1eiMNM184oQ2YqRrV9wqdeMua3HqIxwxbwsvzfSzq/zmG1/bWVeeo0Z8wRuizLFo+nRMq7c3MLEOafnVStpF7IH8Mi2ha7K8xizvUaX24u/WuTRTtqzcNZix8MLucrCQNaJ1qMWeXhdR7VfYnaerTnUHDK0RYztJ9J+YBxpxRuV+zHIHdn5ZNp5/6S9Q8CiW/YYddaXsHgBr3sEvK6SMp9cqRLwhx4B1xwvk3EgyaR9xU/2GF42u0jAn7oFDGU5M8VkR/B0cAKSE53nePaYj7XO3/mOCYRnj3nX68gek+HMHjPllqlGC8B5m3dMAt60CfiTSYDBsRCQ7+XZY37iWV8qpEw1PCsOz65z2/HioVaZYzOk+3j2mNYMAVdqBNgO8CJqek8l/vlLPT70p6GnJRmX+grxP3xow9/dTlAIuZT5pAFfzRm40p6CG9dL8DefW/C1z+kR10LaEztK8Z/tjkwspjQ8elyBv33rjHOX/xHVH2nXIo+vfsmk3VcZTrT1CTHiC7f/71YZps+n4IIpA7OPyvE3266edv3pOIwtGfGvPLzI3op/WM7Fxrorafcns4wPQYiH8eEXrEx1KS+Aytf40S9pF9LQOreL1ZXH6GhqQFmNCaZbM3iw7p2083rDcgfwYOsTbrelKoRAyljyFuaLnag4Y0R11wQevP4Ec+tppQy/VxBS0DZnx+P1LVhn+lzk5kQ/IVf+Iygpe8zCaK/yx1AZjkWtlrYiG+ex9uwd7l8ziO0XD7/C3LPPGKh27hBIMe3+/1xJEIrQY7XjweIG1tdH9vybrBZ5tJP2aFTf+xWri6Ooq+HZZIwozXOmxFTb19t3LfJItjh6/eKLxsapz1idPHvo/xeovLsL61grvYhKYUEuY5C354bOn0xSSnb1bdf9k3ajgOpCZ572Bbc87ZyYpqUKWGoVsHtewM+tAm6kunq15fAYY5EAW7fnfO+y4XiO9N5qATvnpZzsX3sFjCVLpJ3Hfv9V3+89fqYdaSi5PJkZAiytAr4cME+7IosgoKJcavOXcmHP5MLbEvO0tzvytLe75mnn17XKXFEs4M1ZAfZuAZZCAZcPkqc9MQrdI+Vi7vT/b7cVf/5gxP84lYWadGc6Rx77XdJViH/7pgn//GsL/q+tarzvT0SKIxyEE1wtpJ3naW+7UY6/eS/lM//jQDKmPLyI6o+0a5FH76NfMmn3VYb3iX+iSlKxuVqPf/jUgn/6qRafriXg9pwraZcIfhhOF55CdVkUTiVE4p4bafcns4wffgzPu44Hbz5i7GIZYt1CtPyRdvH+tGZcnHqFhdefxdzhg2cNMI76Ju08D3jO1U2sv5xHTYLkKReESKTUm3F7+WesvPmExdU1XOss80i8cq/ZxHzk01eLXCZTX/HhPDZ7wBESp6UtociMOZsdt1ulTDWnu57A6hZKxEm7OuZb/u6eF53HSucPvBPL8mw4erfFtRZ5tJJ2bpOwdBOuzzvfM1C/X6C2vbfvWuTh9x61fgn6eORfXMfymw2YcqQXf7310d95npqz5r4dq24v+vq7j677nuBJP6QfwsDJwsD+SbuGfzIlkPz2IJGJ6Y92lEn7t+q3PiEKD566prv015b78xBbcgP3N3extPQIdQfY8XGvj37/9s/bj2YDId2EG0sfsP7Sis5iaaF1WB3kX/8JVuskKtPjER3h3GE5bL10Pz0fhAHCwEnBwP5Je4NAf35xDLYv/RHJk3r9W5D20yVJ6G5ORnfzaVzoM+B/+dIM+zlnzL8/XXoaLMLiC3Hm/C0Y8z3HiHu6h87RxHNUMCDkd6HvfDOy4g/nYVf3R0hswOWlHXGHxD2LkbocfafngDBAGPhRMUCk/RgQ8IOA0x+RPKnXvwVpb7/fKKXEtLfhXz7U478ZTUGe44+mtOjxIPaje2hS+hExIIRFIS6tALluWYx+RF1Qn2kMIAwQBtwxsC/S7n4z/T66gNJCJk9imW9B2g+rJ3pOju5zQrYh2xAGCAOEAcLAccEAkXbytCuZZA5LTo/C/UTaafA9LoMvyUlYJQwQBggDhIH9YIBIO5H2E0Xaj8LCwV2G/TyQVJYGcMIAYYAwQBggDBAGPGGASDuRdiLtqn+OdSfcgfjt6cGjczQgEwYIA4QBwgBhgDCwHwz8xe9+9zt4+0RGRnq95u0eOu9dn6Qb0g1hgDBAGCAMEAYIA4QBwsBBMECk3cei5SAKpXvoQSQMEAYIA4QBwgBhgDBAGAg0Boi0E2mn3RTCAGGAMEAYIAwQBggDhIEjjgEi7UfcQIFepVF9tPInDBAGCAOEAcIAYYAwcPwwQKSdSDutrAkDhAHCAGGAMEAYIAwQBo44Boi0f2MDsaBghIQE04PwjfVMHoPj5zEgm5HNCAOEAcIAYYAwoB0DRNq/EZlkQibqRp5g7tUurOPtEBgj4v6NdE0PvPYHnnRFuiIMEAYIA4QBwsDxxMCxJ+2MMZRmB6M7/miR4uSeF1h/sYKz1eXITolBEJF2WrTQooUwQBggDBAGCAOEAcLAATFwAkh7EAbbBbwpDDoyIGAsGBWju1gz1xwZmWhVfTxX1WQ3shthgDBAGCAMEAYIAxwDRNoPuNrx9QAxFoTyu7tYv9NAHvZvoF9fuqdrNLARBggDhAHCAGGAMHASMXBsSTuLDsZ2r4C/6vv9ns/X5mAkOsJRWEoIvvaEoCspBE9NAuxdoXhWEYysECmchgXrMNMt4HWBq6c+ITcUX8+FwBh8sLCbwuEdWCdN0FNYDO020MKFMEAYIAwQBggDhAHCwCExcHxJe3AQypJ1qEsOxrRJwM9VwagTf+tQFx+kkGWJtIdiqy4EfWk6NOWEYPOcgPelQQhhDDwmvvaMgK9twUiXiT5j6GkUYK/SHfgF0tzr72Gd6kQkkXZ6SA/5kJ5EbwH1ibxghAHCAGGAMEAY2B8Gji1plw3NQ1F8xbSLpL03FDdinB7zrKJQfD0bgiIHoQ5OCsGn3lAMRDu870Iw1ntCMZXsvEduz9dRFxIGQR+GiPgSdC/sYvpyAYXHEGGlRQthgDBAGCAMEAYIA4SBQ2PgByHtIWgOchLwkKQQvGgORrnjHAvSYfSsgG3Hy6zRmSH4U3cI6vYRGsNYGKrH7Xjy9g/ixzJ7FemCs01fZJ+u7W+lSfoifREGCAOEAcIAYYAw8KNh4Ich7U067wSah8gUlQj42h6MbMZgqhOwWxWE0H2EtnCPf2RKITJzi5FX2YOhJ59xtz350KuqHw2Q1F8ahAkDhAHCAGGAMEAYIAzsxQCRdsd2DYsNxjseRhOvw1KPgIf7DI1xB1fe4AdYH55F+D6Iv3sd9HsvYEknpBPCAGGAMEAYIAwQBn5EDJwI0j7QJmDLS552KaY9BL487dzwYmx8m4DXTSGwd4eg2odnXgtQ8od2iLRT/BrttBAGCAOEAcIAYYAwQBgICAZOBGlvqRHwx9YQmFJ4NhkdamOd6Ru1knZOxFMLQsX0kV8qdWJmGS3k3FuZ0tu7sN5thI487QEBqjc903nythAGCAOEAcIAYYAw8CNg4NiTdm6k4KhgTLUIsPdIedv/VKVTiOJ+SDsPkXnfK2AiyXv8uxZQ8H9ErRyzY5X+EVWxgxa9URkadAkDhAHCAGGAMEAYIAx4xsCJIO2BMm5ibgi+doXgjCrTzEHrzr72Dtb1cZSejoY+JJjIK22NEQYIA4QBwgBhgDBAGCAMHBgDRNod4OEx7VdaBHyqCEJwAEJaWGwNLi7uiOkfrePtB/6TpoMuGug+z6tU0gvphTBAGCAMEAYIA4SB44gBIu0yaY8MxuveUIwfMjRGDQKm0yMqKRsZKTH0J0u0sj7wylqNKfpOEw1hgDBAGCAMEAZ+TAwQaScySWSSMEAYIAwQBggDhAHCAGHgiGOASPsRNxCtpn/M1TTZnexOGCAMEAYIA4QBwoAaA0TaibTTypowQBggDBAGCAOEAcIAYeCIY4BI+xE3kHqFRd9pxU0YIAwQBggDhAHCAGHgx8TAsSLtkZGRtAqkRQZhgDBAGCAMEAYIA4QBwsAPhwEi7QT6Hw705KH4MT0UZHeyO2GAMEAYIAwcZwwQaSfSTqSdMPBdMBAUFARBEKDX63/4D9cD18dxnjxIdiI/hAHCAGHg+2KASDsRNiIOhIFvjgFOUIms712sEHH/vhMeEQzSN2GAMHCcMUCknQjbNydsx/kBIdkDM8CTh30vYeeLGK4XwlhgMEZ6JD0SBggDJx0DRNqJtBNpIAx8cwyQl90zaed6OemTDPWPiBRhgDBAGAgMBoi0E2Ej0hBgDDBdNJIrOlCYxEi3Dt0SaSfSTpN2YCZt0qNnPbKkStRWZCIimMZdwohnjJwEvRBpDzBh46BIvfAKT97+AY8u5h4L0sZYNHJarqAuP/qYyBuE4pFPsNo+40qZTpSZsSAYzL9i9VYddEzboB3WOC/aiduKf263xu7pv5Yy6oFAl2jExfkPWHu5gdYsbXKo7/+e37+n3Ym0ayPtjIUg5WwpmttPQceCcLq9FM1n4xCqEdPfEz/qthgLRmxhElJPB+95htTlTuL3QPQ9rsGAZlMcQo64nWX7RVUXouVmmfJpao7ZY3ctZeT6+JGlpaFpuAQFaXvHTS3PBcu6iImXu1iav4uyxB8Ph2pd0nci7XseyN8CFMchTztjMTA+smNh4z2s0+cRfQwGYcbSYVq248H59CNhZ3EAZ6W49MIOc/PehQRj8WiatmN9excT3amizIwloHnWjqneTM19EBIKUGCoQEH1LTywfcQlw97JQksZ+VlgUdW4Zv2CmbsmJOv31iWXOyrH72l3Iu1aSXswUjlpbzuFIBaEpDZO2uOPPJljTI+sC6WoKv/xwn0C0ffjRtqDoyMRlxqFuNRo5HSXwhNp11JGPRZy0t7olf8trdYAACAASURBVLRrey6YPhN1o9tYs46jKPLoj8Hq/tP3k0u0A2lb8rQH2NPOQuow+GYHl66OwbL1CKUhR3/g+J7kTSt42alzGLO9Q3fOXv0xVoKLz3cwsfAaa3caEMwYmIPkD9XtnzSw7CHM2jbQkri3LVlef2W4ty33ug3rlgGkHJPt2e9pdyLtWkm75F2XSVBCc4nodQ864ov/QBBX+Vk7bsdA9F0m7XwsO0795zucfDdIxqsn2bWU4fex5FQ0DBcjL3mvDtzr8PVcsOBsdFp2MXu9RJwbPMlE54ggH1cMEGkPNGnPG8G8zYLaZBNu296jJ991AGIsEtlnH2Lc+gGr27tY2XiFW/2NiNc5y2krE4KEqiGMWN5j+c1HzC3OwlQW7xIawiofwLr1ALUlQ7hr3cHyiy2MDju9wCz1CqZsdpcQETlUxDrXh9h9TCBMaMFN2xdcbazA2clNLL3awezcJGpSXbNjsPBMVPXP44H1Fyy/2MbE6FXkRDvzVeff+OBZHtsubtRKdbEIrttNdF14hLWVASRz0h7Fz9nQnS3pUSrzC/qKVHpN6MOEqoz80IbUPsb61hQMPsi2vzIsuBJXX+563Bng7fDtXV/2YvpGDL3ZhbnRdWdBqH6E1TePUebw3Purh7dVOPwR1gc9KOycw9SLj7A83cDA2UKEO+wZSLvLOvR39ETaBSEOhvZetBsyxGNfXx/4pzZDgBBnQHtvr/i7t7cWGW753eMM7eI1Xt79upBR67xWm6GkmvR63iGH3H5vuwFxbu1l1EqyiO21G5BhaId7OW8yye3yfnnSg7vu4ptK0GCMEslbnLEYTU2umOAEJjwrBaV9xWi8YUB9Txay0kMgE3sWGgvDjRKU5oe4EMDg7Ew03chEYqjjGfFTD5dLIpMJiCvNQnW/AQ1X8lFcGqF4/llsEmqGS5UwCXXIRPO5ROj3M4awIIRlnIahpxDGAQPqLuQgLzfMdUzjMmcmo6SnEA2DBtT3ZSMvz7WMP5m19IuXYUyHsKxklPQWomHAgNreLORkCYo8gey7JHM8YoszUXWN6zlP1LM6LMqf3d1x5O23Fv3IpFgONXQnzXLd3s7L1/lRSxmxXEIyaocLkZPgHLPV9fh7LtRlI5qXsP7yPgpU86p8nTGGwqJQ7PYI2CwKImIfYA4k65mO32ZhRKQ9wICN73wK6yonktnoWrNjoivFZeIMyjdjwfYON883o7ikCuVtZoy92MW9s85yWsqE5I9gZvsDxq53o6yyAcbra1jaeglThjOWTyLt25gav4/GmlqUtd/FxKYd0/3Fkndan4LcihoYKrpw/YkdM7e6YBB/18CQn7yvOFqWdg2PbO8wOfkQpsZ6lBgHcXvDjrWHZxEpk0VdMoxTO7AsTaKlrhYlxgGxzKK5BoLoLQ9CdEaFGLJyZmgT1ueP0cjDV8RPCZIc252S13sJ1blXMLU9i0qBQTpnQa1LmSdojHNOAMxwFxa+oHLbNj3d8wJWB/n3NtD4K8OSLmDC9homD/GYvE5/9mIsHFXjX7B6r0XUBb+He++LzTtYG29VyI+/evh9ImlffY5hcx/KK40wDj6BxfYel0vCRCyyANrdm77cz3siqzJp7+1thyFOIrQy8ZWJuFJGRb55GTVhFn87iL1E9p31CRkGsW5v57lccYZapX1P7XHCLsvDy8skfI8MKrLvIpNjEaGVtMfWFaGuJkK0VXR1IYz1EoGXdao7nYK64WJU1MYjMSMWqbU5MA7lIytOWvxysnm6oxRNYly8k6DHNxnQ1HFKISn+6uHtiQTvYj5KmhKlturz0DhchII0x7skIQJiM2KQkBGP4iulqGuOR4L4OwYJp50EV5bd11GXkIyaIQMq6xOQlBGD5Mps1A8Xo0g1pgUlJaN2iPc9DonpMUityYGRy5MqyaNFZq1ldImcRBpUes5FAyeVSQ49B7Dvop778mCQ9VybI3qdCzOc/dJiL1/6la/5sykv95uQ9pgkVA/nIyPGOWbLMvOjv+dCXZal9+ORl91TTtprK0PxV32/x6dKnTLequ+n79+GcJJeD69XIu0BJO2MhaFqfBcr5hroWDBKbn3C+nibQrg4YCNaLLC+uIsclQdKfyodSafCFXKvpUz+0I5LzLwc5z3XX6zUI5J22yuY0p2e7OSel7A+MyNT1X4gwiR0VQ+xZnuNrmznoiH90has60NIc7SlK7qDxe01NDrIBdcHf2nXutyP0yp5+Pmcfu/vBITWTWP95Shyg2vQ/0byrgt10y56FepnYH0zgaIg5wQQxXX//I6L7rkXqNj8GdbxVq+Dt6Yy2TcwY3uCJtUiQT1AabGX6B16PYUS2ROqK8Wl567eey31iKTdakamw8sk2tdihxobXLZA2F3dR1/ffZJ2FSGXPexqgstJskyaBSEDtSqSL5Jo8Vyv5KFXlVW3qa5Dfd7Td/WiQGpPqltdViTyDpLuTyb1fZ6++9Kbp2un+EuL3fEKXhkLRVp3KeprI5VnP7QwG02DmUhw7B6xoEgU9JegrMD5fGqpRyR4l1MR7XiOxFCQPte2uIyBCBHhpKy5O0HVL50SeiHvIgipicgpiVKVEZBxnssjLXK4LFpk1lJGlkfeLeC7XOlueg5U3yV5UlR6ltpqaHAu2LTYyxNe3M9p6ftvQtojElAxnIO0COeY7S671t8srgf3bdvocuy8ut/HghjiI4IQrpof3MvQ78MTTNJh4HVIpD2QpD2oHJdf2nG3PV6cPGM7VmF9OYZ81cAQlD2EGdsHjF4/j4qSAiRGhSoTrQxwf2UYE1A1bodluAaCPkz5GIZ3YL3XonjSJNI+jXJV2Eew4Qbuz95ArkqmQJC3hK4NWJ/cRLqKfIukff4i4hzn0i6+gXXhkvKb9zftwmtYFy8jQXUfX/zUTNqxMlKtbPnLuuHH5N5NWGd5+E4iWufsMDdFSeemexDjqEcss3TFpd6sq29dFjq8Lr7YaZ6xY/Zq0R47yG1qKiPGxXsm7ZrtFduNMdsOrpRJxCoodxhz22swxsreUm12F0n7w7POcBiOl/t2rJlrXfoYCLvLOvJ39ERWZa92uyFOCRvxRJLVhFv2csuhLOojJ/ry/fy8p3rdz8tyqcNfeBnZi65uWy7Ljy7EXhWOo5aHf1cvPtT3q7/70536uuxFb2iIQXCoTvkkcCLfzl9edWAlPB6VwwYUOhbsLDEZdcO5SA2XsSR54/3VIxI81Yuwcvt7Q3YO9yKqXG+jW3iYuu/q70wX5Oh7MFL4roIqe4kWmf2V8SZPfKMBzR08s4+TWAZiwSLKY3J94VjdliyPP3updeTtu7++8/t+E9Ieegplw9k47XBaeJNfy3mJtDvDJbXcQ2UCTzBJp4HXKZH2QJL2tH5M2d7hfF4wdMHB0OXfxJxbyAQnpMlGM0YW32PVZod1+xOmHw4h30HMOMj9leHXq8e9xKKPtzu9UDym3fYYZSrS7ukhCgR5K+QLhkmTsqvAQzsqRneVFIzKb3Otk1iwYJTd+YK1u41uk2AOutbtmOxOcyGZkm6CUHLrC1bNNWJ2jYKhHSz0l4jpHmWSzye40ttSvfKLXTJxXnZbCIgvtb6we0z3KOtKUxmfpF2jvVgiWubsWBgsF3Uk7kKIixOZaGmrR4ppNyFMJnAsFGc4ab9V56LPQNhd1pG/o5qkyt8PStplr7tcj6ejTO7VoTe8nPt5meT3qrz97oTcU3tayniSy9M5f7pTX+fYTu7wEkOuCn3h3vf0c6Wor48SsRRVWQB1jLnWeiQy6UxF6C0++bDEVZZH7VlW91v+rjt1CoXdRWgcctXBHtKuSp/oSWZ//fImj3ifSs9crsP2ndfhLo9yztGWLI/6nQH5O19EyOOcrCdfR/e2POnnNyHtQbEoHs5Eosqh5Ksfvq7587T7upeuBZ5okk4Dp1Mi7QEk7Tz8Qn6RU3283bI3/zcHsU4fh+SSXow8tWNpqNKFuMog91RGJqCW0XPIzC10/aTEOEnxdyLtjJ1C47QdC/0GhRQylgaTxY4HPRniOcZS0L7ompLReS5LuY/3mwUbMbi1ixvVe3chGEtC67yz3pj2VVgfDaDzkZPkMwf5nb6Ur9TLWCY6V+0Yd3vHgEV04JaXdI+yDTSVERdsm2hPcXrglPvlnRE/9uLlk7o3YH1qRmaQpC85paWoF431nGjS7nhBVYsH29OiQCTuyguwcSKJdyflLoRcbM8ZIy+TbpfwmH3IJN+vPso40XLk5I3Hqze0JiAmKcL1ExusPPu8rvCyPDRfSUUM0yOjpxRnypyZlbTWo4XgSdj8Np72IF0QdDo5Vp/3owSN3SlISo109D0SWV0ePO0BIO1cz+6ef7X3W7ZX4Ei7Z0+7lB1Lu91lubwdtdiUv/Sp3lGQ8bJ3hyVw2WO8yXuQ8yz1KqZ4aKiXd4wOUifdEzjiSbo8uC6JtAeItHNPcumtT7DODiAnMwdp4qcYpuldrNyqUzwhEWmVMOQlKb85eHMHfoZ1qlN5YVNLGR7bvHbfGYfNB9XotBLkpDgzTUjhMVo87anoUBFsbw9UVNkwbs9a0F3mughhrBh9G3bcaYtzkmRdDfq3djFY48j44iDN6jzqQfE9uLfNM+w4Y+5529JLnZ7jERkrx+VNVSaZAjMWNp9hfHUXg9VStgy+GOhYsmP6cp4iT1DyZUx6yBwjvUD7HK2n95JtWQ+ayuibMbL9KwaqXLPlyHVosZfY97RrmLK9gam0C6MeJh0t9Wgn7drsLvfhMEc1SZW/eyLVsudbTcrdQ1T2vBjKY9rl+PKMWiUkRV0Xr0Ou0+W8G+GWY+qV8BgHwZd/c9kVb73qxVN/MvkKldmvXnlsM3/JVPauck+pcCoSMbGu2WLYKZ7ZpQBZafGo4MdTrhjXUo8Wgifiludp7ytFdYX0svN++8TLizHkqowzElEsQWOz5Ijg/4FRdKMUJXnOlzPleP5Ae9oVeboTVLuHe98dCFTfRT1f9hDT7sgixNvRYi9ezt9Hi00j+c7MxWRlTmJB4ci5WIoaN/ty7CW1lqCpNdZlwaiWQUsZdflAfBezbm3NotLL/2WwsCA0penQdMp17glE21SHfwySjg6uIyLtGgY5LQBjLB/nn9rxsMf1z32Szj2H9ekIMhyhCpHGOaxsbeJaRyMKDZUwNNzA3Q07pi85CaaWMiH5Zsxs2zDS24GSshpUmO5j8vUnjDSqiLNmT3sYKkZ/xerCHVRV8mwyNSjKPOUy+Mvefb6DwF/adElFFt4Os23H5c+JmJhecRudjn8F5SE9Jbd+gXVjCSZjLQx1F9Bv+YSlybOIc9sOZQm9GLft4FZvLfLFzDGFiBMcISLRnbiresFI8oLvYn17C2czHGVYCAqGfpLaqqlAflUPri9/xsK9lj1/diW19RF3LjY4stRUoCArQSFE3PaayrBo1Ex+wcpD0542eB1a7CW2xfLQbbVjcmEDa6qXeGUMaqlHO2n3b3febkJOKL72CrBmH3yCk4m6+nhQ0s7rUMegqz3lcp1ybLkc1+7tPK+Le9bl8pycu6dzdL+Xh9KovfFyn7zKtM/sMbKtvR3FLCJDhSipjENCegySDGmoGjSgNN91Z4pnJMq5XIqqnjw0XU5GlCoOm9etpR4tBI/XxQm2SN56UnHakT0mPt51EeGtP/J5nq2lZtiRPSbdmT2m0JE9ho9Bad0laLqQiYzcaMRnnkJGUybOXAq8p13UjyhPMSqVLD25MA4XICfR9TkIRN8l0q7K0uPIHlPknj1Gg91lfXo7arFpUGwSqm4YUGVMELMGpTXmo3EoD+kxrn3nbYSX5qGpPwdZ2fzPlvgnEuGO8VqWQUsZFiIgOjkcYaF725Dr0XLk7yDVTX3G6ng7ItwwL9+fkCuNaZaMw7Ul10fHg5NQ0t3+dEekPVCkXSSa79Hr7jUW87Y/RVO8g1AGxaKg5zEmnu5gbXsXyxtvcPfmWaSoPAJMSxkWioTqmzBb3mPlzUcsrKziSkexyyCl1dPOHxrd6TZcm3sHy5YUK+8e/8zLJLTMY/7VTxhpcaan5OdZ1iBmbM/QrMqvywxjsNgWURXm9O4FxZTBNLaB2c1PsDx5jpH+ViSrrssPL2OxKO5fw9yrXTHcyGpbQrX8Al3eCBZsFtQ4MgzwxdI5qx1W2wKq1DqMLETb3Q3MvPwMy8YLjFxtRpLbRCLKzqKQ27eE6ZdflNCmtdv1LqFKTEMZXldw5lVMvtnBaG8xItwXIhrsJckThOz+t6Iss/3Fe7xX3LPoz+5aSTtvz5/deXq01hoBX8+HovUQL4jJxPakHDlBlxcEh+0Tt8N+PtxzGZ6dgrK+IilP+4UcFBZHuiykJSwxxNYWiTnU62ojwW2pbkdLPVoInlxnUMwpFJ0vQoMj3lzt/ZbL+DqK8mRIOdh5nvZ6nqfdLQd7UHQsck35qB8oQSPPZW4IR3LrtyHtnIyr87TXueVpV/flsH2X9JyA+NIs1PQb0Hg1H4ZSV5tqsZdaJm/ftdiUY0WfJuXMbxgoRt35DGSmhu4Zj3gbLESPlKY80SY8zr6Z/0GS286lljJhxTloGDKgotgZxuWtD97Os6BoZPeuwfJmA23pzkxJ6vK8b03VfEwLQfMx+PNDtez0fX9j5UnUF5H2fU6YJxEE1KfADQQRBdcxtrmLxcUpVLlNXMdRz5wo3O8UsFsVpLzgfJB+HJbY/lb3S15215h2KVzH9dxh5DuIPumewD2zpMuToUt2ug0Diz9j/eUaTPnOVJnu9uVj2m0TH9N0SuiTexn6fTIwcRLtSKSdSLuL9+0kgvx790kXlYOyLjNqHaFB37v9QLbHooOx3SvgbvzhtpEPQ2p/63vlGHglhMbDP7QeRsZA2ovqIrLxo2KAZZnQ02VEapRnD7usFxYWjI1eAZNJrjtP8nU60jN0lDFApJ1IO5F2woBXDMRkheJrRzCy3UIr9juoCYL0j6eHIbcn8V6ul/3qksoTqSAMHBwDoakh+MvOEJQ6/nyOdHlwXZLuvr/uiLQTYSPSQBj45hgICgpS/kDpJJLvg/aJ64Umvu8/8ZHOSeeEAcLAccQAkXYibEQaCAPfBQOcoJLHXS8uXrgeiLATaTiOpIFkJtwSBn47DBBpJ8L2XQgbPeS/3UNOuifdEwYIA4QBwgBh4PhjgEg7kXYi7YQBwgBhgDBAGCAMEAYIA0ccA0Taj7iBaGV8/FfGZEOyIWGAMEAYIAwQBggDh8UAkXYi7bSyJgwQBggDhAHCAGGAMEAYOOIYINJ+xA102FUZ3U8re8IAYYAwQBggDBAGCAPHHwNE2om008qaMEAYIAwQBggDhAHCAGHgiGOASPsRNxCtjI//yphsSDYkDBAGCAOEAcIAYeCwGCDSTqSdVtaEAcIAYYAwQBggDBAGCANHHANE2o+4gQ67KqP7aWVPGCAMEAYIA4QBwoAWDAQFB0PH2Hch70wXjeSKDhQmfZ/2tPT/IGVYUiVqKzIREfzt+0GkPYCkvWDoFzx5+wfxY93awZzFgr7GbOgD/ACkX95S2uHtrd2qO/ADVjj8EdYHJoT5kJGXkfu19voDpqZGUZ8deaA2GYtGTssV1OVHH+h+/kCp5bHavsDy5AXM/S1IEgL/wGT3/wTrdA9ifOhH60MeiL67t8VYBGof2GEZPrNvfQZCHrLF4YkAjRv+dUhYPdyY6T5unKTf2f3vlPlJnqf40bo+hLQAjNv71VWg5OH1WGd6EHuIPrD4Hozb3qE7x3Vu1OWbMWd7huYE1/NCkRkzW18w0Z257/lkv3rSJRpxcf4D1l5uoDXLVY791vWty/sbf1jWRUy83MXS/F2UJQZ/U90RaQ8wabfODcNgqEBBWT3q+9exZPsJl0vCAmpEfVIxCngbhip0z9i/C2m3LpjFfhWe6UDn+DbWXi2jzu2B1/LgMJYO07IdD86nH1gn4kLDIU+B4QxKW8wYfW7Hgrkm4AukwJL2w/fdXceHI+2Hl4ds4Z9wutvM/Tcn7TRu+NYjjRuHGzPdMXdUfjNWiksv7DA3H8yJw1gYqsftWBrrdcyJfF50fLITEXIIwnsQHQVKHrmeFXMNgg7RByY0Y8T2BdcqgpT5lrFgFAz9jLWpTkS51R3bOIelV9u4WhWrlD+IHvzdw6Kqcc36BTN3TUjWH23CzvuiZfxh+kzUjW5jzTqOoshv1yci7YEm7ePtEBwPAmOxaHxsx+Jg2Td5ABgLxZn7ASDtkyafZFckZipvPAsuQq/Vjqm+7H33Swv4/T3w7vLw8hH1s1i1WVAb4IeFSLtvMkW28K0ff1jm10XSTuOGz7GExo0TStpPncOYB0+wlueGl2EsC52rdox3JvvEj9b6DlsuUPLI9TzoyThUvxgrx+VNO0YanTvjTKjB9c1fMVzvPHfYfu/nfr5oyL1uw7plACnfIZxkP7J5K6t1/GHB2ei07GL2egmC3RZE3ure73ki7d+UtOtRdX/XJXSBsRAkVA1hxPIey28+Ym5xFqayeJcYMi1luKH9kXb+cCRUDmJ4wQbL6x3ML1vQ15ClLCp4HSLpmuhGTvsjPNj4CMvTDQx2FiJCBTh3YsbrrRyzY/12veIF8NcWS72CKZvd8zbmXJ+yBeivHkVm1SJC1EXqVUzZttHp2GbTUg/Xc1zFdQwtbGHp1Q7mli3oNWa66MedtPN60y9tYn1jCiWOBYI/e2ntO++Hvw9jUcjqnMLE0x1YNp5jsM0A46RreIy/vmuVx189P7otdCFhEPQePiH72x7dS9pp3FAcHzRu+B0z/Y0Z8nWmz8CZq3OYsH7A8uY7PJy8CUOCE6uMxcD4yI6Z/maUD6xhevMjFtdW0FuV5Do/6TNR3b+IqY2PWH6xhXvmc0h185bqTpXDNLaB2c2PWFiYxJniPty3baEzU/JA5t/44Llftl3cqBWUcZB7L321xXT1uLG1i8GaEOUeub/yUXO/wjNR1T+PB9ZfsPxiGxOjV5ET7fRQR7etwPpoGM13tmDZsKA+7wz6Fj/AsjwKQ5TULy3ycLn86UeuZ0ilC11qH8Zef8Tt9hTFHn71wzLFRc1EV4qin7Dax1jZfIhiRzgpY5k4u+Kcm622eVS52ZPL7KstxlLQsbSLa+UMjAkoH/0M66w0r7PTF/FgcxJFDoLOgitx9eWu190Vv/OpvhFDb3ZhbnTdnRGqH2H1zWOUOWT3Vw/vk8RtelDYOYepFxL/GThbiHDZ8apx/JGxxo8RzUtYf3kfBbq93nbGGAqLQrHbI2CzKOhAxJ5IuwaipDaIr+/i5Dt5FpF8Ig8/heSq23iw9RZ9xXrlgQnJH8HM9geMXe9GWWUDjNfXsLT1EqYM5+CppQyXwx9p1+UOYXr7A0b7O1FaXo+6q6tYtL3DJYMzXEcEreUZBs19KK80wti/BovtZ1wtD1dkdiftvO2yO3ZYR5uUwcNfW0yfgtyKGhgqunD9iR0zt7pgEH/XwJCfjFDHQ+KvHt62J3mCS+/BYltDwynpQdFST0j2DUxt7+D+4HmUV9Sh5sIi5rbf41qF0wPhTtp1yRcxvrWDEWO8oh9/9tLad1/Ykq/py8exYPuAsf5OET/N5imMW1xJu7++a5XHXz0/si3k7Wt1DK383arymst283WkccP7GEVY9T9m+sKWfI3pklH/8BesLD9Cu7EOhtqLuLG+i9XH51QOk0L0btgxs7yE6z2tKK1sQ9fUe1hfz6A83EFKg5JQJ9bzEK31dSg1DuA2v6e/WJkLmC4THQtfsGyZRGtdHUqbzbg5/RLztkVUhXFSF4ToDCmE5czQJqzPH6NRDmkxlCBJdoZoaSvpEiZtb9GdvZcgKX1nGvqlS4ZxageWpUm01NWixNGvRXON4sQR54Kl+6iu7sR1qx0z4/2orruJ8e1dXK+S5m+mRR4/+uFyu9fDhDx0W75gYawZ0TKh1KIfx27/7NVCcb7isdm1k18wP1ThtBeLwukiyR5Vw69g3TAjU+W0E+Xx05ZE2r/gShkD053BteV3mJvpFd8Fi2lfxcrdRmWOZ0kXMGF7DVOaZ5v5nU9ZOKrGv2D1XotiG+5gKjbvYG28VYka8FcP75fIJVafY1jmP4NPYLG9V0KatY4/MtZEXaX345FtAy2Je/vHSXttZSj+qu/3+FSpU+RX3+/vO5H2AJN2eeIWX4SxfcL4hWIXw+QP7cA6fd754LF4NE3bMddfrJBALWVEcPgJj4k29KH7bIUSt8ZYElrn7VjoNyhtiaC1jiDDsSpkLB7NM3ZYhipcy7h5tt1Ju5a2JJl9x1FrqUeUeaob0aKXMwLRafXoW/wVq9M9iHMMNlrqyb3+HlbHwCLJFoYz975g9Va9MqCpSTtjCTBOfcLK4/OIC3I+kNrt5bvv/h5Wfr1AxI/zxVimK0CP1ZW0a+k72eJwtuDEIzKlEJm5Hj4pMcoOlDabOl9gp3Fj7xhFWD0cVrn+dEW3sbD9BM0JTs8x9wha30ygUCaB+laYbXZMnE9X8MsyBjCt8pDrDHexuP0UzYnOek73vIDVcg1Jjnp4maXtJ2hytMWflRw+1m7cQrYbGczpf+8yH6qfFy1tBZXew4ptHU1JbjteocHOPmjpV9EdLG6voTHO2a/UC69gXe7HacYXGmGombRj5mohGAtH7eQuhurCwFgZLm3+iitl0n1a5NGiH6keC+qieNuRKBjawrr1HvIjnPOOFv0wpkP56C5WzTUSaT/VhdHtbXTnOPup1nne4AdYH3Uj0s1O/tripL198SMuGRiCCm7hwdAYbopzaziqxz+7hOKw7BuYsT1BU5yzL2oZtMynojf79RRKQqU6mK4Ul567eu+11CPxHzMyFf6TDpPFlY9x2bSGx4hl43pw37aNLi8LSRbEEB8RhHAVh1D33993Iu0BJu3W6QHk8Yk8vxKVPXOY3foJ/ZUx0gPDBFSNc4JV47KtbhjegfVei7hVwreW6jvmdQAAIABJREFU/JWRjerP0y6XCwoOdbQXhdpx1xh4EbQPXbPHFI18gnW8VVkZi2X8kHYtbfEyWsHvT2b14oh/tyyMoizJuVvhTx5Zz8s3q5TFiXyP+iiS9pmLSNCHIdb4GJatDbSlOduR6/FlU7k+rX2Xy7sfGdOL2FDLzAf0uoeupF2+z5cOeRmt8viqh2PjR7SFrONAHEVPO40bXscowurhSXvaxTewLl5GghsZU+NXIuivXDygLMmEG3NTqHEkHRDrsVxHiiosLKVnA9alK0rdKb2bsC46f/M2xHH00TnFgSTZVCLCKyPVCsFWy6OlrdiO1T3jDx+P1u+1KC+hau7XwiXF6cPlSLvwWtEZYznoWpdiw6XvUqgPC+/ALdsLtJ2WyKMWebToh9dj3byHwpBQxNY+wsLWS3TlOHfsRfm4Tf3YgpcTnVOO99biO5/CunxNXIiodc2/K3PJUOWeOdGfLSTS/gv6ihgyLm/gUmUrbvLMNyF1GHxlQa0jfEhsJ3sIs15Iu9b5lMV2Y8y2gytl0lwclDuMue01GGMdJF4jj5L4z1lnOAy/j78naK510YHWuVLsn0jabT53f9x1v5/fRNoDTdpVW+McgIXDkjeXp23SsqWupYxsYH+kPSS1FVdm3mJ5yxmvxgc0dYpIT4RcPKfqh6cy7p52LW2JgPaTPUZLPaI8szdQIHo585EcH4lgt1Wrv3pkPftLlcgnGzUp5dt8cryt1B8pe4G6jPzdPUxiPw++bGP10ZPMnrLH+Ou7XKc/ebTU86Paguvw28W007ihHqO4rgmrB38RlYcOVHBvq2oHUR4D1Mfg6imsb8+gPMSzB1SuRx7f1Ed5rONlyu58wdodo7Jb6Ry3XMmgTIQnu9NcCJJkb0lmdRvyd7ktXk704K/cRZnbjld6YoRSp9Z+rZprlcWD0o+7jWI/WHADbmy/R08+AwtpxNC2FPfNOAHdeoQyR7y2P3mUev3oh9cj95cfZ/sNij73ox9e9vT557AuXEI8n3stdtw76/mlXcby0G21Y1wV/661LYm0/4ze/HSY5qZgiGjGzekexBpGsTR93iVlsqgzr6Rd23zKWCJa5uxYGCwXbSbuijhi6CWZtdXjzm28cSp/4w9vU/4wP552udxBj0TaVco+qBLl+9xfKOPno9uWlW1BZRU5em7vtrpjS11LGbk9bwDj1/lD1LawC8v0TVQaih3tlcD0WKunvU0hp3uB7foiqta2JLm8e4201uMuj6wP+ailHlnPK26e9qDgEIQE65QHUPQQWcwozi1EUd8aVreeoCXZeV2ux+LDpk65vPddLuPrqMXTrqXvchu+BiKt9fy4ttA2Kci69nWkccP3GMV1R1g9DGnnoQt2TPU6c2/zkBVdcCiCg51hEkndG7Bavec252MCr2d6uGXP/JWRJL0HxFgyWhfseHQhRxlDZXK+hwwGGzG4tYsb1aFKWfk50dYWD1OxuywQ5PvVR639ctWPrLMsUTaWfBkPbauoj2EQX+R/JsV9C/UzsK4OIkV0yvmXR4t+pPAbO1bHe5GeXYTG+zuwrtxAqurFRi36kXUQycOgntxERuYAprcsqIvxsigLacQwj88/49xJ5nVoaUsq8w7nansxxmPNearJ6R6UXd2G+iVYsb60fkzZNtGesleO/cynol2fmpEZJNlqojtVwZHWetznL2+cytf4I+tZPjIxKYbrjpV8LRBHIu3fkLTzt5fzBt+Jq1w51prHWa3db1UIMY85i04rQU6K801oLWW48fmqvfzuLtbvNCgeAhkULKgG/Vt23DQ6Xzrl8epNbnndRdB6jGl3ekX2AFtO+djrGNA0tiXJnIoOix2eUlntS2a3cB2532IbGuURtw3dVuf8BZeVW3WKV0Mk7Y4/V2K6dLTNfcHKo70x7f5s6q/vavl9fS/koVSqP3tyj2nXqkN/8mitxx0b7rJrree42SLQMe1q7yGNG66OBcKq9zFT/bxFlQ3j9qwF3WWuObbl7CBTaiId3oChV7/iRq2UcIDjuZiHRfpI/8vr4f+xcc+U5CRHIfFIKypGgvyiKstG15oradelXcOU7Qv6K93IoPhCoufYX21t5aB73Y6HPc7FiFofEm609YunjVST9qD4HtwTPeuOWPXycaxujiGfMegqJ8Uc5zzDmhjqMi45uPjixL88/vUj1yP/l4kuYwBTth0M1jgTJGjRj6yLoIoJrG3eQ8flLazca/H6R4oshWd42/uCqJa2+GKkbWEb10YsYlYYJrTg5vQYLlv2klemb8bI9q8YqHJmCZJl5UfN/EfE1RuYSrswatvbjpZ63Ocv76Rd2zPI5Rez2GzNotJDBh5+nYUFoSlNh6ZTzgWzuv/+vhNpDzRpl/9cqaQONX1zmNn6jNutzkEuJN+MmW0bRno7UFJWgwrTfUy+/oSRxjhlINRSRjZsQtczrD+3wFRd6fhTiRIkRvBQnCQ0zXzB6vIUWutrUFzZijbzY0yuuU6IEmnfxIjj7el6MXvMB1yrcMseo/pzpbNuf66ktS0RsCwMFaO/YnXhDqoqeWaEGhRlnpK8GfuR2Rdp11hPSM4QHsnZY8rl7DE/4Uq5c3BUk3Yuvy7jGia3PsLcnLBve/FtYm99l+3p76gvn8SizZFto7IBzeY5TKleRCVb+H++/OHQnw0CfV30tNO44XWM8mcvrZh3n6Dd7ai1nqM4bsieRR5KoX4fSdadwfwB1uer6G6qh6H6HC7MfsDq4iDSlbR/UkKEeVWSgr36EVA08jPW1x6hpbYGRWc6YBrfxuq6GdmOkBqekrZ64gusGxZ0GutQYryK/gebWPBAqlhCL8ZtO7jVW4t8MXtMIeIUeTS0JYap8HSPez31suyio2raDt/9CkPJrV9g3ViCyVgLQ90F9Fs+YWnyrJJwINa0BuvcBZxiDHzO5f+9Ioe6zF4tkuYvTfL4148UfrOLwWopjSXP+FI9/gnri1eQ6AgD5fb2ZwtFBzze27aFx+s7uFbhGhfPItORJ2fu6V7Aqm0D5ysdf06VlaC8Z+evLYm0v8fc0xUxg5tI2p++xax1GOlu71Hw/tRMfsHKQ5OSkEOWlR+18h85nGdyYQNrHv79Vks97mOCd9Kube7meKub+ozV8XaXtNnq/iXkhuJrrwBLBpF2hUSpFfQ9v/PJV45Ds27/ioU1K/rPFiNSFW/NQZFQfRNmy3usvPmIhZVVXOkodjGwljJyv5iQiTrzM8y92hXbttp4XJm07RScZETvw03Mv/os5l+/3pGPmjseSPuDXhR1zWLq+SdYnj3HjS5XeTiw5X6tv/mAR4/voyEnykXfWtqSZdadbsO1uXewOGLt1fGrWupxf9DketVHLfVwPceLeey3lTztfX7ztIcg/dJLrL+cQ6Vjm3E/9vLVd7X83r7zAS+76xEmn+1g+fkmhs9WoumB64uoWvou1+9LHi31/Mi2kHV42CONG77HKFm/hFXPY6asn4SWecy/+gkjLc6c3PK1oGgD2u9uYPrFJ1g2NnF76DyyVDnIGTPgwnM77rQ5nUfyvepjUFQx2kY3MPOS1/MKd0cuIi/WGS7Iy4akduDawjtYXn3A1OQgCpsnsGqbQ6WDkMv18T8fLO5fU81dS6h2eOx5GX9tSSErez3Dcv38qLlfMWWOvPKfYHnyHCP9rUgOc4Zv8Kwqcsx70c2PGOtIgERU7bjd4kg0IYbQ+JaHy+RPP576FZw3ghnbB1wpc+6c+9OPrAeW2IcJmx3WjVHkqkJs+HXBOKvM7fIcLx/XbjuzqPlrSw77kWLnGZi+FSM2O+avl+yJAuDtBmdexeSbHYz2FiNCxY/4Na3zKd8dyu5/K8o/21+8px0t9bjPX/web39Y6Wv8EeUOikZ27xosbzbQlu66q8SvS31jaKoW8PV8CJq9vDsil/V2JE97AD3t3pRM550vaZAuSBeEAcIAYYAwQBj4sTEQUXAdY5u7WFycQpUj+85xxQQ73YaBxZ+x/nINpnxXh6a6T3yhcdskYLdKp+STV1/X8p1IO5F2F4+5FtBQmR97sCX7k/0JA4QBwgBh4LAY0EXloKzLjFrHP5kftr7f6n6WZUJPlxGpUZ497LJcLCwYG70CJpOcuzjyNa1HIu1E2om0EwYIA4QBwgBhgDBAGCAMfEMMhKaG4C87Q1DqFqaklbDzckTav6GB9mMIKkteC8IAYYAwQBggDBAGCAOEAW8YINJOpJ1W1oQBwgBhgDBAGCAMEAYIA0ccA0Taj7iBvK226DytxAkDhAHCAGGAMEAYIAz8OBgg0k6knVbWhAHCAGGAMEAYIAwQBggDRxwDRNqPuIFoBf3jrKDJ1mRrwgBhgDBAGCAMEAa8YYBIO5F2WlkTBggDhAHCAGGAMEAYIAwccQwQaT/iBvK22qLztBInDBAGCAOEAcIAYYAw8ONggEg7kXZaWRMGCAOEAcIAYYAwQBggDBxxDBBpP+IGohX0j7OCJluTrQkDhAHCAGGAMEAY8IYBIu1E2mllTRggDBAGCAOEAcIAYYAwcMQxQKT9iBvI22pLPs9YEHTBwQhi7Mg8bEdRJllfdNy/B4PsuX+dHQWcBQUHQ/edxgWmi0ZyRQcKk47OOHQUbPA9ZGBJlaityEREMOn+e+ib2jie4+FJsRuR9gCSdsaCcap8AMOL72B5s4O5ZQt6jZkQ3CZOxqKR03IFdfnRhybaMcY5WGw7uGmMP3RdgQL1UZQpUH3zVg9jdRi02fHk7R+Uz+2W2N/EJiW3dmG934oQB+4YC8WZ+3as3apzkUcrDr3ZM/3yltJX3m/3+r3p6nudz7i87SKf2h6MhSCuvB+D89uwvPmE+dVVXDRmuDyrXG9imbktLL7awZxlAV3liQoR5ouZ4pFPsNo+40qZTtQtP2cw/4rVW3Wqcv7bCrROhCIzZra+YKI708XmgW6H16dLNOLi/AesvdxAa5Z34shYBGof2GEZPrNvmbRi1Vf/Coc/Kniw2r7A8uQFzP0tSBK8y+yrPl/Xsvt/gnW6BzFuY7+ve7xd89d3lnUREy93sTR/F2WJwfvWrbd26TyRU8LA0cMAkfYAknZd1nVMbe3g3uA5lFXUoebCIua23+NaRaTLQMpYOkzLdjw4n+5y/iAPSHTtIyy8fo/B2t+GIHqS+SjK5EnOQJ5jLAbJhgoUiJ9e3Ny0Q00SA9mWv7q0k3ZtOPRmT31SsaO/Veie2bso8Cenp+uMleLSCzvMzYdf0EamlUvyVd/CA9sOLhqc5CyiYhxzW9u42WtCSYURjUMbWN7ehCk9SHkmI8vvY3ZrGyN9HSitbEbH/W2sv1lAVZRUD2PxaJq2Y317FxPdqeJ9jCWgedaOqV4nWdbSFtdFIPse2ziHpVfbuFr1bccFFlWNa9YvmLlrQrLeqV/Ptj0MadeGVU/tyuc4abcumGEQn9EzKG0xY/S5HQvmGugDQK7ldvgxsKTdf9+ZPhN1o9tYs46jKNK3HdRy0vejR8rIJmQTXxgg0h5A0s49j1bLVSQqHs4wVI59weodo+J148YIJGn3ZVy69ts8/IwVo2/j5JB2fzjy5sn3d5+n6+zUOYzZ3qE7J3DEg+UMY872DM0JMtlORuuCHdNXC5XnkunO4NorO0YapQU2Y8loX7Tj0eUCZ5nYbozZdnChSK6nBBef72Bi4TXW7jQgmDGFeA/V6R0k3n9bsh6+Rd/lur/Fke8s5l63Yd0ygBQNoRmH87T7J67++iiS9gcmhKkIekT9LFZtFtQGmOh+b9LO+86Cs9Fp2cXs9RIRi/70Qdd/m/mB9E56PwwGiLQHkLRnX3sH6+JlJKgmheCIeMRGh4kTP0u9gim3EAo5nMI614dYmexXPoB16wFqS4Zw17qD5RdbGB129WTpqqeUrV5ex/TlPMVDKANCmqR6UNg5h6kXH2F5uoGBs4UIV8nHWCQyz05h4glv5xVudlejmW9hD1XsqU+u19ORe3flvsjHRxdyXOrgbWWffYhx6wesbu9iZeMVbvU3Il7nJGiMCUioGsLI4jYsr37BzOI8uqtSlFAP3raWfnmS0f2cLiQMgt7DJ+RwW8yeSPv37Ls/T7tWHGrBGNdpIEh7/o0Pe/DDcWS17eJGraDgiIVnoqp/Hg+sv2D5xTYmRq8iJ9rpHXe3Mf8t1M+Iz5PBgTPGqtG/5SToch8iTiUiUi/VxaLO4q7tZ/Tmq7AZ3Ym7tvfocZxjESbctm2i68IjrK0MIJmT9ih+zobubJnY+29LS9/5To7xkR0z/c0oH1jD9OZHLK6toLcqybmoYJk4u+IM0bLa5lHl5v1mQgtu2r7gamMFzk5uYunVDmbnJlGT6tQx14cuthTtoxuYefkJS8tzaDxzGeO2bXSqwl9YcCWuvtz1uivCWBSyOqcw8XQHlo3nGGwzwDjpGh7DiX9C5SCGF2ywvN7B/LIFfQ1ZSpiSVqz6q4f3yRNpZ6lXMaXql5Z6xNCqiusYWtgS9ecpDNKdtPN60y9tYn1jCiWOBQKvRxzrLO+x/OYj5hZnYSqLd9pT43zB+yZ/IpqXsP7yPgpUY6p8jTGGwqJQ7PYI2CwKImKv0pusIzo6sUS6OJq6INIewAdXXzkJi+0dBpszoQ9yTvYy+Jk+BbkVNTBUdOH6EztmbnXBIP6ugSE/GaEupH0bU+P30VhTi7L2u5jYtGO6v1gZaIOiMx2hCS24tGz3TtpXn2PY3IfySiOMg09gsb3H5ZIwZZAXSu9h3raDe9e7UFbZgGbzAqae7J+0K6EI4tZzO66t2+FO2oPyzViwvcPN880oLqlCeZsZYy92ce9siiJPSO4wHm//grHr3SjjMl9fh2V7C+dyQ5Uy4uTrp1+yzr0dGQtD9biT4MgLDZEojrcrpMHb/b7OeyLt37Pvfkm7RhxqwRjXw2FJO48Dj86QQovODG3C+vwxGpVQoxIkySRHlwzj1A4sS5NoqatFiXEAtzfsWDTX+LRXcu8mrJZ+JMnPF8tG15odlqk+nPYSz8xErK6iPtr5HLPcm5i3raHhlIOQZw9h1raE6twrmNqeRaXAwMRzTs8t89OW5r6zQvRu2DGzvITrPa0orWxD19R7WF/PoDxcXiBE4XSRpMeq4VewbpiRqVqgi7ZKu4ZHtneYnHwIU2M9SoyDog7XHp5FpKyf4Ay0z/2KleUptNbXobRpBLcs72DhfXW0Jdb1/7P35V9NJF/7/099s5AXZPGwiXDYBGRLWHJkjawSdhwZFUSWqIAgEGQnQAgOo6Ak4zgOOiP5nPN55/2fnu+pTrrTCVkajQzq/YHTIamuunXvU1VP3b51O+MnPHO9hjnHpyP+vfgXWzWLddd7TA91eecWK2Zt/qRdXTSKJed7TA11oaKqEQ33drDheotBvWeOUjpnRqqHyxSMtGsqnsIms6mSerQFD2F1HmNmpA9VIcIgA0m7OvMOZo+OMSE7e6QtnsCy8713rrsJ07Adm0evYM7zOA2U9l3UN7+y3CEsuvbReuW0TThprzfG4P9u/w8+GtVhx4y8TvrswzTpgnTxb2OASLtskflSYzBVGqosR7C7TrDl2MXwoBn5l097bSOFxzDuaXcd+sXXZva/guOXIIswu4LW1TCk3WFBvuRhzIXZ5sbqULm0sBYNv/N7OsDUxehznJ20y3XHWBY6Nk+T9vhWGxwvJ1EoIxKxKbnISLnkL89yv++pA0tDy7Iba8MGqYyw+Ebol1yeYJ85WUrIKkV+UZC/rMtflI0nGGk/z75HIu2iPiLh0FcuNMZ4mS8l7WI7/Fo49A6OpT4kyTAi/q4ue4INpx1NqT7PevZPh3BsDeFqkPIe2dSoePwJu9Mt0oaXf59knMHSkRv2X19hfGQApRmecBaxrbimdTgOplAsq1dnWoXjcAYl3g15TMMSdl9NoUhTh6E3Hu+6rmHpFMYjtSW2Ga7vLLYNFpcbz/pyJWyyvAdYch2hK/80Qbs+8h6OxR6JiIttqGsWYHe9RneBb17KHTyCY3cUOd6+Cnp27aMtw6fn/HtOOPYfoUCmD1bwEMuuPTSnnm6ft1cyeux3GJOpS9DP5xbZQdQk/W30dFYj0VsvYxloW3NjfUgvjXdeVySsKqlHmDesPUgSnq7FIymnEbc3/sbOUj9Sve0rqUeYM5cHpEOm3AFw4+kn7DxqlLzkctLOzzmYrB+x/bwPqTJnTrGgHx/WxTMS8vlZSd9F2wplU/sx43Ki2/ukR/6b8LuKIS1ehUsyOQLL0P9ETAkDFxcDRNqjSNqFSZHpkFpuRrfFhqVDNxz766jL8GSWEAdCpAXIQ9qXUCWLE9XoH2Jm5SGKAiZbFom0L3RK4TA89KSGZxGx1AsLImNqVE264Zhs8hEBloCGha9D2lUFo1h2vcfUcB+qDSW4kujznou64/JtT9T6LdhlPEPHTLsUIiMsvmH6Jer537oGI+3n2fdvlbRz8lM357F/sBSmOXfewLE+KBEsbt+cn177bToDbc7YVbTz+PUg4WMx6ZVoGJzH018+wfH6BdpzA4isLGSN1ytsENbvIM1L8AQP/goPa7uCtlU3LM2JEL4LkjUkXFu87kh99xD0Qz+vNssw4+GqFXXeWH2x7zwUyzOGjX7jiP+e3r0Px944cmXkWyDta3ckvQoOAtt96ckEv+/avd9ObaY8TxWCk3bGYlEz68bWeI0kgySXjLSLMqs0Md5QtUTUz54+1BxpzlRSD5835E/U+Gfb+hQqM3x2j1SPMIcG9Eu8R34VSPvyHaTHxiHZ9By2o3205/jaEeuxjdX5hejpx47heNrqt8FU2nfePhNIuy88Sy4Tfb64RIxsQ7ZRigEi7VEm7XLFqxONGOSP4R81+j2KjDQJe0j7c1TKSLu8XvnniKRddvAq0CPK4yyrp9xwPLkpW1i9GR7OGNPuL1NwTzsnJpkmCyY23mHH5YbD+RFLC6MoTvZ46vjvPGRF7onj9QokXRayIvwfpl9yWcJ9Pt+Y9vPr+7dL2gvRvevGXE+OhEfRfh6snmDHUi/bYGpQ+eQT7JNNkodTLC9eGavG3QM3LN4DpuL38iuLLcdtPk7Hbgj18Fhj4/TptqomP8H+2ONN5U9qDI8+YcdSBxVTCV7l9SGDkO6RbzqDbTp4m4FtiXIwFrrvvIym1opd5zKqtMG92mI9QhvsOnocbsx2+8LOxN9LOSmcM0vZUiS9elNU8o18xaNP2J1skogjH5cCAQ/oV3jSfnosBzuIqs1uw93l37B15B+qFpg+NNKcqaQeYd5YeYgS4elaMTLTEqAJcIJEqifUHCXqV7xy0i7fIGxPNgWsAcrD8yL1XWyTXz2kPbSnXV6WPhNRJAx8exgg0h4l0s49S0lZ+UhL9HlT+IDI6NmHY/chsmWerUiT8HmRdi6fsIhbu6TH6Dy0hWfNOOtBVPngDxUeIy+jjk1FpmEAEy/c2Bw1esmS50mAIk/7F5J2cfGVL6ziZ4dsgyCXOdhnlnkTPUNdyJPFRjNWicED/4OO8nu/dt/LLZ/gmG3znZHgT1hm3QLBlMsRCYdi2XAbQ14mcDMo3nfWK9OYMHJ0goe1/k9gPG14cClPpShi1TpwTSD5CaW9fqEWwn0pfXjqeoveIu/GUJ2E9JwcJMnsxcvx3OoObwiNiF//trLRYXNjod+TylEM45jvzxPavnxrB47FB+ha9G06+AuHIrUl6ihc33kZYR5x+EJYxPuCXZm2CWPOEwzf8J+LGEtB05J/6AljOULInNgPyRs+6vPSM0017r50S2ktxTZZzhCsrgPcyjq9kVDiaed6bl8/gW1pHEZ9uTdUzQDz87N52pXWE7jZF/shXpXUI3rIt2VPEPj9Ko0WWo3viargabdZUF5UirLbduwc7aE10/e7WI9tqvd0iF5AeJ7Sccrl8Bys9X8iI/aPrt8eQSObkc0CMUCkPWqk3RN7vTpSKfNQqVEw5IJj465fRhnGPARAXCgDjXKepD2xaR07zkMM1l1DUmIa8lqnMP/y65D2+Bwj9NczJP3wfhc9+AMO2abBEy/qH9PeHCym/YtJe3Ri2lnmz1hwvcVAsY8gsSu38cz1HgMlPjJznn0Xwjh4NhOvF5GpCtC944b1doGfBzsSDkVcRibtGlRNnmD3yc2QHmZeV2LlGB6v2NBTGTx3OBMONgb3EjKWjy7eB1n+c1VaP546eTYXT+y1EPrB467FfjMVUjp2YP91CkXiuY7L3ZhyvcdPZTICpSlGr6xuX1uezQCXXXXlNmadb9FX5M0uw6rw84Evsw0rsWD94BfM7pxgpFYr6JkpaEvScdi+e1/iJPOQi/cFu7IsnqXq9AFRMWzrSXuqhAOmrsPQ0QlG6jzZYziZrHzyEY49K2pyUhCfch019+xYc/Eynn6JbbLYFkw4/8aDGv/MM+LvgkNAFioUGNPOVLxtN8ZNvoPxQlx3kJz/4bCqtJ6IpF2hPMIcJYRFeTeCwpOIT9iWvVDLL6ZdnYv21U/YXjwd026faZM88PwpR1KOAYVZ/u8oCNd3UdfiVVe7iJ2jFRgDsgaJv7M4FZpz1GhO8Z1XEH+jKxFEwsDFxwCR9iiRdg721FYbbPyFLT+ZUVFVj5qeRSwefcRkh/9jau7lrZ76GzvrT1Bj5Nlk6lCWn+JbSIWDqKHDY/jkftmbbaNE78kes/6k15tNphqZ3pe/BC5SwTyiTJ2LhqdO2Hm4iusE67N30Gf9OqQ9wbSK7aMD3O9oQqneCP3Nh5jcd2Np0JeukmePWeQZFXjGiWoTGod2sel8g57A7DFfSNqjNTmJh8zsu8voMDVCXz+AuxvHsG/cR6YsvOk8+67OuYd55zFmH/YKWTv4i4NszpfokMXU8v6Hw6FSjIl6TO/+Bbu/2mCuNXpxaMCVeN+mRfQs8qcZ8qcA4v2CPOkDmHUd49FAPYqF7DGlSPV6xLmshkd/wrG/CbOpHvqGnzBk+4jNuU7pcJ9pW6PRAAAgAElEQVS6aAxLrmPMjnRBb6iBsXse1tfvMWZKlzYTTHMdPTtubNvm0NZYj/LaTnTPO2F/MQ+99NKkWOgt7+HYt6HT1AB94x0Mb33E5uwtJIsbAiH9o2+DweI78Mh1gl3nETrzvGROQVti/1nYvnte4rQWcDhTvFfQXUIurosZd3rWsePaR5/R+7Kva+nCRpldugWL6xiDspdMsXS+wfRP5RhTMIjpl55wFcfhAQZ7nmA+yIFX/qbOurlP2F4wBz04HFs1hw1+hoVnhhEyU63CKjuIyp9WNC9/wo6QpaYO5cY2tFueY84ezNMees5UWk/gfCjXn6BDhfJoC0exKGaPqRJfovc77lb5XqInJ+28bnXefcwdfYClJV2a57XFFiw7XZgY6IChsg7V5hnMvf6IiSbfpsojV+i+y/vANzwN1r+wM3sL8bInu/Iy6UUx+GdAB1sekXa5XujzxSerZCOPjYi0R5G0M1US8tom8dj2G2xv/sLm7i7umcuREBA3ycGnvtqO+6tvYfPGcspjOCN52sOFdnBSNGT0kIbARSoYaeey8LjWuLQ8ZGUlI4YlofGLSbsnS43cKyq0o0pGSf9zIW+z3XmCrf03mBzvRJbMK8TJnZC7eNMl5Glf2QyVp933kpRQ/TqvQa5KLEHTxA6s+zwf9RGeTt5DcYrP837efecx2WlGX657QYfGTL8nHKJuQuFQKcbEepguHw2WX7B66MnX7wjIcc7LpbeuYe3wd0y0+m9ipTpYMsqH7LI6/FMMqi5Xwjy9j5WDj7Dt/YqJoTZkxsk3BnHIbJ7G5NY72A7/wPPV5+g0ZklhQmI7upw23F44wMrB39h+eYTpR3dRmupvL1WSAR28rVcfYXP8ivF7rbgqx+n1Cay7bKjzbkwYK0avg2981/1yoytpi8vFwvSdMT1++tUNuYdc7It41ZlW/GKoxVAvfpXi8K+NYFn2kimhXf00bK4N1Mj0yL9X6ZJxJTcfyZc0UFXOYJuXkaV7FNvV5N/D3JtjTA2UIz5gnuOkvqB7EXO/HGPr1wOMdRrRzN8BITuIqskwYWDhAGuHfwnvkRjuKEbdk9OknbcXCqv8NyX1BM6HYh/kVyX18PkmTcgt75TytN825Usec15fIGnnYzJ38BV2X63CeNm7qWMxSK8dh8X2DttvPmB9ewd3O8qDEu5wfeft8bWnYMAO25t9vwPV8r7xlI/NtTr806dFi4KzEfJ76TORWsLAxcAAkfYokvbvAdRi3Gtg2rGz9I3F3sTD126MNfoee5/lfip7MSYHsgPZgWMgrXMPDseYX8YZOTbiS4YxfXCCjQ0raq76NlHyMvT562GJXW3Hg40/sPvKDnNxouTJD9Q5Pzz92KzDSY1aOogcWIb+/3p2It2SbqOBASLtRNpx6apeCq3RN01h/ugjRutDT/6BwOMeNfGlLqU3zOhZeIvd/WcoDeKZC7yX/qeJjDBwsTAQk14szQeltYOYePEJCwOFUohRMHupEwtR2W1BveyNqcHK0XfRtzW7ZkZ/twnZAUkQAnXN4jTYH9BhLoM2VoG6of+jj0vS6dfRKZF2Iu3Co1wh1th1gu39Q1ju1Umxu0oGHk+r9/OhJwbWfvAb5ucsMGaRl12J7qjM15nYSK+fr1ce2iHOB1v7B7Dca0Sa9yAv6fXz9fpv6y4mW4v/dmlRQbYM+TTi37YRtf/tjq/zsh2RdiLtNIERBggDhAHCAGGAMEAYIAxccAwQab/gBjqv3Ru1Qzt8wgBhgDBAGCAMEAYIAxcXA0TaibTTzpowQBggDBAGCAOEAcIAYeCCY4BI+wU3EO14L+6Ol2xDtiEMEAYIA4QBwgBh4LwwQKSdSDvtrAkDhAHCAGGAMEAYIAwQBi44Boi0X3ADndfujdohTwFhgDBAGCAMEAYIA4SBi4sBIu1E2mlnTRggDBAGCAOEAcIAYYAwcMExQKT9ghuIdrwXd8dLtiHbEAYIA4QBwgBhgDBwXhgg0k6knXbWhAHCAGGAMEAYIAwQBggDFxwDRNovuIHOa/dG7ZCngDBAGCAMEAYIA4QBwsDFxQCRdiLttLMmDBAGzgkDTJ2EzOoOlGYw0vk56fx7IiCR8MOYCmqNBipG+Pre7c4yjKivzke8JrSto1Xme9Llt94XIu1RWjgYy0fXzgl2j9ZQc8kziNildkwcnWB35wEyaRIlkhIlrH1Lkw6NC5/HRn3FhDtr72F/tY+2a76FtmT0T+z99h/hz3F0jFWbDbebChD7GXMGY0kobL2LhuKkzx5v0ZSHY5UllKNj9gAbb048fXStoFrr67/SMt8S7r+GrKHwI2/rsmkVNtcxxk1pn21/eX3fwudImI8mniO19TX0Fcru7NodPHt1gs21SVRe0QS1d7TKfI1+UZ2+teEsuiDSHiUi5SEnr2Hd+oiHtXHCANLWLMC2dYjnRNqDTihnASqV/bwB/m/rjcaFx24ssRb3HZ+wPGlGZqw/YeWkwrE6Br2+GiWVjWgc2sWm63f8bPDMI2exIWO5MG+5Md+X+9ljLprycNlz7ryBY28RTVXVKOF91BcgUeWvAyVlzqKH761sOPzI+5pUv4j11+8wUp/82faX1/ctfI6E+WjiOVJb0dZXJLuz2Hw0TDlhd8yiLMF/TImyRKuMWB9d/921mEh7VEn7Ee6O22Cz1EPD1CgZfY/HE8+wRKT9h1lAaELzn9A8pP3HHheMaVA07MKu7QGygjzKFkjF7C3ovJ51xpLR9NyNjZHKM4+baJCK6MqjgXHaDfujxpB94fqJVOZHHleR8PMj64b3PRLmo4vnL98UK7WXUrszTQG6bCdYGTZAE+LpXLTKKJWdyvmvg9HUB5H2qJL2Dxhs6cfMy6coUZeg/8UemlqmsSUj7YxpkV4zignbO2y9+YDVjRWYK9Oglg02xhJQ0LmAWcd77DhPsL1/iEdDTUhT+3bSyspokG4cwdi6C7bXx1jbsuH2zWsSOeBA4vXkd1rxbO8YWy8PMd5Ti5Z5N2yj1dIiq0TmSKBkmpt46DrAQPckrAd/YLrHgOI7L7Dx6ggjTVlSDKaStpT1XYkOL45+uP7U2jjoYoP8aYM/+gyl81pjDP4xqVFTHANndwxOzDFYvq5Coh/GGLKztbC16+Dui8FxmxYjV5k06Sfka/FPsxppjIGlaPF+QIfxZAbGGLpNOtjyfFgMJQf/3kPaf+xxwTRG3Ht1AktL8JCV06QiFjUzJ7CN3RDGINPV48GBG3O9/t7z5I4dOA6tMOgYWPZdWF1uKcxGDLfhV8fqbSRLG4LI808kebhdDY9O4Jhpg1aqNwY3Zjg5b/DIrNJAK2A5EfWzbtifNMuwHSPMd0xBGQ+GIsvMjPNwHM2j3jCKSQefy44wNXb6qUZ4rGahY/ME96s4znWomvoLjhWP7tjVO5g/mEOZhv92GaZFN5aHWlD1wI6lgw/YsG9joCbDbx5Xp1TBPL2PlYMPWF+fw43y25hxHaEr3zN2mK4V465PuHezEh0zL7F+eIzV9QU05OikuVfofwT8cFvI7c0/L/5U6F+HojVF51mbNpywHf6J5Y019NRkSTbmspSOfYBjvh+lXauwvvwA24t9POgsxSXZ3BJOx+Jv0Vh3lGI+Ep7Pe3wpWb+U2F3UJb/Gt2xi99UMSmQcQf57NMrwub+0LAYn/ToclKmktSKwHfr/6xF2rlsi7VEl7W6M1OXi1sZb9LXeh3XjZ2TUWuGQkXZt8QSWne8xPdyDSuNNmIbt2Dx6BXOej5ipii1Yd73FeF8Lyg01qGq3YPrlCZ52ZkkTsZIy6qJRLDnfY2qoCxVVjWi4t4MN11sM6n2P3XUVT7HmOsbT4W5BnhbLOqx7/qRdicyRBqqHtL/H9N0OVPVvYPPgEPe7m9BgeQPHCwvyvJO+kraU9F1JmQulHxaH2tkQpEvmhY2kZ/67QNo7YrBxQ4PWLDX6q2JwMhCDOdnhx5g0Df4Y0GG/UoPmLDX6KrX41B+DkcsqD+lK0+JjlwZ6xqDL0eJ9ZwxWszlhUWHCrMOj1LOQ9h97XLCMn/DM9RrmnOA6E0jFXCcSOMm9lILMmseYP/oNt8tjPbZgWpRPvIfDdh8ZEklOhmnxBLZHjQKpYrFZKKqug766G8N7biw/6oZe+L8O+uJMxJxhfEWSh2MsImlP6sJkqE2EN6adKSjD21IyJ3hIuxPW2Rk01dWj8tYknh24sTRUrphcMMZJ+yfcrWRg6hu4v/UWq8sDuMwYLt/awfZkk6BHxkoxsO/G8tYmhvvbUGFsR7f1HRyvl1ElnmdS56Nj/RO2bHNoa2hARYsF40uvsObaQE2cl7Tn3Mei6y3mZp/BfLMRBtMDPNp3wz5vRoKMBEfCT0JOlTfsiIce3cL9Xfcp0q5kPtQWjeG580/v2mSCaXgXNucReotipHVHIO07v2LMchtVRhNMI3uwud6dOZQrGuuOUsxHwjN3FJ3n+FJiC477SHbnZcQ/ljuERdc+Wq8En2OE+r6wDCft9cYY/N/t/8FHo9rP+SfKQVefTb6WLoi0y4D/JUr2eBTdmGhKQNbtQyztHsE6cA1xTWt+pL149BiOpT4kSYtvGpqX3FgdKpcGYHyrDY6XkyiUTdyxKbnISLl0pjJJ+tvo6ayWPKyMZaBtzY31Ib1UT9HwOzg2fka6KI+6GH0Of9KuROZIuvOQ9j8wUMzAYttgcW2i9hIDK7Fgw7WICq+HQElb36V+mAoJWaXILwryl3VZehIRSc/8d4G0m7Uo88YNc6I9ckuH4wq1ZPcb1TrJk87v4WV+avaVYXEa7A/EoF3DkF8aA6tRi4MSFZhajZV+Lbp1oRcHuYw0Lv4fWMFDLLv20Bxio8NJhdxT6nB9xOxP5X6Lolo/iXXXATqyvYQv0YzHzg+4Xx3glY0Q065kfCmRJyJpVyfjqoBlA8zPORG9I8N2DhJUnBhHLsOxpERmgbS7DmHO9Ww6+X2Z/a/g+MWCfNk8Ksdm4GdO2m9tfMCgnkFV8gjzo9MYF0j7JdTO/oWxxgRh/HjmLzee9eVK45LlPcCSzIvO7bXp3ENzuncTzFQo5HPt/iMUeOVR1yzA7jrwc9jwtcNhf4gsmcyR8CPvh2fjcZq0K5kzhbVguV/2VCYNLcturA0bpHlDIO0OC/K987UQmmLzX7/k8oT6HM11R0l4zEUaX0pswfV2Jrun9mPG5UR3Qeh5mUWhDFMxpMWrcCngTEooO9P30SfxRNqjTNqftKeA5fVhfHEFTbkMSe1bEmnnj1xrZt2wjdXJHhXHQT92DMfTVskjpCoYxbLrPaaG+1BtKMGVRJ+nQxwESspIZTUx3va8j6rFR9hMjapJNxyTTb7FhyWgYcFH2pXKLLYV6uoh7b+jr8hD2idca7gRy8CKxrHmeo5K4bHzj6ufUHr7nO8F0n5TI9usMXQ06PDfGx7Szj0mHY06nBjViNOqpL8Gow7/1Ks9nlumwkJvDIYSGRpqYnAvW4PDG2qo4jU46NaiQkYqwskokvYfeVywglGsRCDtjqUHuM5JbrERxv5VrBz9jiHjZYksMXU5bv/ihnUgX/guvmkd9oN56GP8F+lwBEbpWBY8kxHkiUTaRUww5h82I34vv4Yro1RmD2lfQpXszIBG/xAzKw9RpJBgeEj7n7hdxpD38z4GjW0Y5yRW24CRQxvqE70bJoGgH/o9OWEZZjxctaIu3VMma+AAjo27kjOE97dg6Hc4FnulcZnevQ/H7kNky8ZSzk+v4Vi/I4SliTqKhB+xHL+GIu2R1gtBzzNubE/USpjj9ZVNfIRjpl0KkRFI+0KnFA4j3me31PvdJ5cp8DOL8roTDvO8bSV4Ps/xFckWor7OZHeBkLvQE5G0f3kZUT66Rp+QK9EpkfYok/apDv9UW5c77DLSriwEgrE4ZJosmNh4hx2XGw7nRywtjKI42bdAKymjzW7D3eXfsHXkH3YhxZ0yDaqn3HA8uSlNuIzFo14W087biUbYhjLSrqwtJX1XUuYi6YcP1ujGtGsQ7yUDnKTfatDhf2tE0q6CuUEnPObkjzrlf/80qBHH49iZCvfadJi7ynCnWYubWjVszRqkp2tw4o11VzLBiKT9Rx4XkRZfgVTIQqA4ESodewfH8oDM66lC/l0nHNs8fWw8amY/wWapk8iUaItwBEbpWFYiz/mRdoVzAo9p927+RV2c9eoh7fxpYC7Mq1bo41swvtSPZP0UNpf6hDAZXqem1opd5zKqAtJWiu3xA4SVTz7B/sQkxbiLureNGaW5tpQ7a2bbpScqwe7jdUbCj9iuUFYI8TntaY80H/rk85yjEOsUSLoMm8L/82ZhjvC0F3lTJtYlXnk/o7nuhMM8b1MJnvl8d17jK5ItJD1F2OyL5fg1Gl50pfXI26XP50/cibRHmbRPm69IkzIHdLJZTtq9nuSpXtmjYm84RIgQCHVsKjINA5h44cbmqFFaBOSDJVgZvgC1r5/AtjQOo77c2573UbXX087rEBYOa5cUQ+lZuIJ42s8gs1w28bMy0v4D6ydKmyOub89B1HCk3etpr9OgPFXl/5fIPIcEmQrNtTo4CtSYbdHgGlPhcbsWpnyt4KEX7RrpKpL2H3lcsJwhWF0HuJXl23TL9RZIKvhvwhM6WSgF/46HYCy6jmAubsbY0THuVp5+AheOwEhe6whjWYk85ZZPcMy2SbHyYt07ljq/+S+cF13UQbgyYr22CDJ7PO2eJ3ZivWe9eua+t+itH8D001bodC2YWOpH5T0nnnX7zhNl9OzD4RhFjsxDLm+LsUy0rfsTZ8YK0b3rxqy3HsZS0LTkxposLFKce8WnKWKdkfAjluNXXkfHpn/b8t/55+DrhQ41Sj3tX0jauQzRXHfCYZ63pQTPvNx5jS/elvgXzBbib2eye/Y9WHl4WIhzM0L/olRGlI+uPjuepy6ItMsG0JcoXgk54fXz+Ez7TJvMu6JGUo4BhVm+zBLxOUbor2dI4TL8vqIHf8AhI9eRyjBVHYaO3Bg3+Q6dMpaG5mVfhgdeb2LTOnachxisu4akxDTktU5h/qWPtCuVmZcL96eEtCttK1LfeT2Rylw4/UQ7pt0UmrRz/fCY9v9t0Mg8ZgypSSpUJPpiggvLYvCHUQt7gwaxTIXemzGYrY7Bq2JfmXA257/RuPh/YLEtmHD+jQc1/vHnou4CSQU/GHd95C0c64NIlRFDxnJgtrkxt2TH1sEzlAbx9DKWjQ6bG/P9eUHHo5L5R4k8Quz1zkNkiecmVIXo2fGF74h9C0fIlZZRIvNZSHti5Rger9jQU+mfy5yT7fZ1J+5P2IRMP0J2l6Vp/GzzkSHukS3nISNz5pAvv2KsAN12f+KszrkPq+sThoyehAOMleP2vhvrwwYpNFGV3o+nzve4U+47eyKMoQj4EfUolA1B2iPNh/zeYDHtfL04FdOukLSH0jNvK5rrTiTMK8GzR3fnM76U2EKQ5wx219UuYudoBcaAd0DwesS/aJRhcSo056jRnKJ8DRDbp6vPFl+iCyLtMlB/iSKVkhNtsQXLThcmBjpgqKxDtXkGc68/YqIpVRpcCaZVbB8d4H5HE0r1RuhvPsTkvhtLg9cVl+GHTpuXP2Fny4q2xjqUG9vQbnmOObs/aWfqXDQ8dcLOw3BcJ1ifvYM+qz9pVyJzJN0pJe1K2voe9RNJf2f5PZKnndcVk6bFH/0xsJWpYcpUo7VIi9e9OtjyfZNxXJ4W/2uOwb7e852xOgbvzTpYM31lIslF44JvXJJQN/cJ2wtm6QC6XG8CqRBfrmRoQN3tVSwf/YXHbRnSeBfL8zhofqhuc7zGb1Mv/s4fvVdP/Y2d9SeoMfJsMnUoy0+R6lEyvpTIo84exLOjD3g22odKYxOax3/F9tELtGYGEM4vjGnn/VIis1LSLnruuQ7lTwp4Ox7S/g6rL7ZxM4VBIO0vfsOKYwy5UqiZJ3HAmuwwv6h78cpYImqffYJj34YuUwMMpnsYmj/AuswTyi7dgsX1Hta1DQy0NkJffxtDto+wr99HZkDavkj4Edv19CG4p13JnMmzxyzyzGZDXaisNnle8uV8g57A7DEKSHs4PQtyRnHdiYR5JXgWdXge40uJLTy2DD9viDJzZ1yD9S/szN6SQiLF38RrtMqkF8XgnwGe8lf5GiDKQFci7dJCdBHAoJSccM9Teu04LLZ32H7zAevbO7jbUe432JgqGSX9z/HsxTHszhNs7b/B5HgnsmS7aCVlNBkmDCwcYO3wLyGf7nBHMeqe+JN2rjseYxiXloesrGTEsCQ0BpB2JTJHsoFS0q6kLSV9V1LmIuknkv7O8rsS0s7j3HOyNdi+FYP/9MXg460YzBeq/UglS9XgeECH7WueCfrqdT5hew6nKpWHxoVnotbk38Pcm2NMDZQjPuBgJCcVYnYLh/NvrNsdGOosFzKsBOrZk6XkTwwafCliA8uor7bj/upb2LxnWcQzLLyckvGlRB4+ZyQbhjC6znN6v8fy2iI69P7vmxDbk+dvD5RVSRklMisl7by99NY1rB3+jolWX8iLRw5PWAt/wiG8nyC2DRMuj6dZJZF2PX761Y0n7T4nS7A+abM7cH/9raAb69wISlueYce1CqM36xK79hBLrj20Gm5hZPMPbB38jrmZByhNCW7XcPiRty+EitiCPPFQsqYwb572TZeQp31lM1SedmUx7aH0LMobzXUnHOaV4FmSSThk/HXHl5K1SZQnkt2ZKgkFA3bY3uyjPTc4dqJWhjEhZPKfPi1agjzlE2Wma3TIeSg9kqc9Sp72UAr+1r4XYy3lKSi/tT58TXlJP193QvqatvuSuqNh9/iSYUwfnGBjw4qaq8Hj2yPJyM/I7Aovb/u8+yPVT7+fD761dYvYPbJCL8t2E0n3SvDDYm/i4Ws3xhp9YZGR6r0Iv0djfEWjHxdxfIWyO7vajgcbf2D3lR3m4sSgTsxoleG65aFhj806nNSoQ4aGRcMGVEf4OYhIO5F2XLqql17OoW+awvzRR4zWB58EfsQBRfoJP4l8r5j4GnZXJxaistuC+mtnJ93SexZGq4MeSP9e7fA99utq369wbA0jU3ZmQUk/A/HDQ2eulvGXKlWj9IYZPQtvsbv/DKXelzwpqfPfKvM1xteX9OUij69Au/N+smtm9HebkJ0Y3MMezTJCXcK7O3R+L+n7En3TvZ+3rhJpJ9Iu5A8WYjxdJ9jeP4TlXh2SAx7h/8gDjOdXJv183gTzLePmotmdZQxizvUed/ShF+lvWd8/iuzCYVbLX6di6j+n/4xV4+dDT0pf+8FvmJ+zwJj1bXjZaXx9W3NqTLYW/+3SSi9C/By80j1fbnMi7UTagz5Wo8H15YOLdEg6JAwQBggDhAHCAGEgWhgg0k6knUg7YYAwQBggDBAGCAOEAcLABccAkfYLbqBo7c6oHtrpEwYIA4QBwgBhgDBAGPh2MUCknUg77awJA4QBwgBhgDBAGCAMEAYuOAaItF9wA9GO+NvdEZPtyHaEAcIAYYAwQBggDEQLA0TaibTTzpowQBggDBAGCAOEAcIAYeCCY4BI+wU3ULR2Z1QP7fQJA4QBwgBhgDBAGCAMfLsYINJOpJ121oQBwgBhgDBAGCAMEAYIAxccA0TaL7iBaEf87e6IyXZkO8IAYYAwQBggDBAGooUBIu1E2mlnTRggDBAGCAOEAcIAYYAwcMExQKT9ghsoWrszqod2+oSBr4sBpk5CZnUHSjMYLXyyeZUxFdQaDVTs+9SLSqOB+jvt23nNGeepQxqn/vMgyzCivjof8ZrQ41NJmfPCyo/eDpF22eISDTAwFo/cax2oTo3/rIU7s3wZi/0vpL+FG4bPqkdpXwqrtqS2rH27eNaxgJ8rbiAtzABWWnekcozFoaphD8+qSr9qHyPJ8W/8znFSP++GbexGyL4HK2N4dALHTBu0XpLAWAxuzLhhf9QQsp6v1T/G8tG1c4LdozXUXPJM+OxSOyaOTrC78wCZPxCRUV8x4c7ae9hf7aPtmm/xY0yDZMN9PFw7wubhMVZsG+irzZbsp8Q2uT8fYe+3/0h/wWytpIySts5ShrEkFLbeRUNxUljsXTatwuY6xrgpLWy5s7R9UcrqyixYPvqEZz35X6VvcU1rkt05Bh63JX+VdqKtT1b6CJsuG+oTfGMhVBtfW4fydkONU3mZH+0zu3YHz16dYHNtEpVXNEHxpaTMj6a3f6u/RNqjTtqv4mb7HsZLrgYFfyRD6+ILUZBRgoKMMrQ27eE8SLu1pR/FQpulKMnvx3DnHqaNeui+Muki0v49kPbXsG59xMPaOAHv2poF2LYO8fwHIu0ssRb3HZ+wPGlGZqw/SVHn3sf80TGejfajytiIhnvb2HA5MVASq3h+iM0oR4m+GiX6GvQsB9+gKSkTae456++M5cK85cZ8X27YviTVL2L99TuM1H8bhPMsekhuWsXmoRP3ar5O33TpJR7b1z7CvOsDBvX++DqLrLwsYxUYfOmGpSX8Ruus9QaWj2/ZhOPlJIoUrCHR0KGSfoUbp4Hy/2j/s9h8NEw5YXfMoizERktJmR9Nb/9Gf4m0XzDSLoKAMS0MdedE2hsaECubXC/ljmO+7wkqdV+2QIh9CXUl0v49kPYj3B23wWaph4apUTL6Ho8nnmHpByHt3JNeNOzCru0BsoI8ncr72QmH7T4yvOOLe6cbrCewjdecOVxEyVMVJWVCjcezfq+UtJ+1XirvH77A9cEKRrHi2kfrlS+bk1lKL6Zdb9FT+GX1RLKRgPvlAVyWrSuR7vmS3yP1K9I4/ZK2v5d7maYAXbYTrAwboAlhNyVlvhd9XNR+EGmPEmlniR2w9O1JoSbyEBdrcyuSpEVbg5TMbtxpWcFs9xam2x7DnJeFmIBBEom088U5JasHg628HhuetFrQmpXu99idsUvIKXqAhx2bmO91YM68iHsVVUhR+V7kBkoAACAASURBVCZsHh5jDSDtLMkMS98KWpI95VjmMKy9w6i60ouhji3MdS5huKoBV7S+epTJE4+c6yMYNdvwzDyP/oJC3AgIjym+sQtrXY00aQTTgxBykNmJn1qWMdO9han2x+jIzfTTIS+TktWLwdYNzPVsYaplHDczLvvFnirpl5KBy9tKN45gbN0F2+tjrG3ZcPvmNb8nFYwl4lqXFc9eHMO2/ytG2vUwzfmTdiVllITHMJaAgs4FzDreY8d5gu39QzwaakKaWm4vLdJrRjFhe4etNx+wurECc2Wav36M83AczaPeMIpJxzG2Xh5hasznTfaEx3zAYEs/Zl4+RYm6BP0v9tDUMo0tGWnnNozYliKZlfRLiS0SkN9pxbM93qdDjPfUooWHKo1WSx5jJTJzbDCNEfdenQT1XPJY7qrJEzgmm/wIeuK1OlQWZ0q6Zkzn0c+GE7bDP7G8sYaemiy/sSy0pSAUKhJpV9IvXia1ehij656QntUtGwZM+RKeWfZdWF1uv7ANMXzHsXobyd65TF1r9Suz9PN1Sb/iuFLS99KxD3DM96O0axXWlx9ge7GPB52luCSbM5VgXmwz0lWT0YiemX2svPobu0fHWF1fRFPBJUl2jvvObV//Ha411AQ8YWG6Voy7PuFeUzU65w48oVGrc6jL1kn1cDnUyRW4NbWP5Vcfsbm1iqYbP2PW5USXLMSKl9PWP8fukRX6IBtD/jv3gtYObcC6/0EYp08tvciWyVT88L2fLSR7uU7wsN4nE7uUj5qhNcw7/sTWSyeeTd1DYZJKkllJvwQMPj3BtqXOD/dyvSvRIS8fyRaK+xVunGpu4qHrAAPdk7Ae/IHpHgOK77zAxqsjjDRlSX1QNnaUzFFKypzvPCbahj8h2X01gxLZWiH+Jl7DlWGMobQsBif9OhyUqaR1XLyXrqc35GfVCZH2aJF2TTryMvW4nmlCX8centww4brwvx7X03xkWp3ag8e9NgwbGlFytQLV+ik87VtDZ4Zv4uRG5BNEOE+7JqUXj/pseGC4idLMShgNTzHbt4S2VK00warSBjDdt4Y7JTdQdKUMZQW38aBrFyNF6VKZYKRdnXEXs33TuBEnJ+3LsNTfRU22AaUFdzDavYfHhgJpUCqRR3f1Pp4KMptQmlmFOuMIHrb5x7QrIe2alB5Yem14WNmMsqsGVJZaMNW3gZ5M38KqSevHE0k/VTAapjHTa8XNy2qp7x7SHr5fSgaUumgUS873mBrqQkUVD4HYwYbrLQb1npARXkds1SzWXe8xPdSFSuNNtFismLX5k3YlZZSQdlWxBeuutxjva0G5oQZV7RZMvzzB084sqe/a4gksO99jerhHkMc0bMfm0SuY83wxjUwg7U5YZ2fQVFePyluTeHbgxtJQuWB3D2l3Y6QuF7c23qKv9T6sGz8jo9YKh4y0K2lLicxKyiixha7iKdZcx3g63O21xTqse/6kXYnMwjjN+AnPXK9hzvFtiETM8M1c9ZQbjic3Jb2Lv8mv2qIxPHf+6bWFCabhXdicR+gtivG7LxIhF+SJQOyV9Etb8BBW5zFmRvpQVd2Aup82sOp8h/vVCYI8LDYLRdV10Fd3Y3jPjeVH3dAL/9dBX+zbPKuS8r1hPa0Y3HIjGGlX0neBtO/8ijHLbVQZTTCN7MHmeoefDb7xpQQbcp2H+sxURejeOcHyzCCq9AYU6pvQvfgnHLZ7sqclibhaxsOVqlEzdgjHvgX5sg2EYIec+1h0vcXc3ALMTY0wmEbweN8N+0InErxlmSYPt1b/xvaWFW2NDahonsAj21vYXJuo9Z4REeW82v8Sju3g50SYKgMNC39ie2vBU4/pgdDW8lC5sDHkm8ekPI+8N0YP4Pj1OZqEcCv+nQEZ3nAIps6EyXoM2+YcWhvqYfDWs2Gp823YlPRLQdgUd1BE1GEEWyjtl2CPcONUIO3vMX23A1X9G9g8OMT97iY0WN7A8cKCPK+9lIwdJThUUua85zERZyx3CIsRnuiEK8NJe70xBv93+3/w0aiWcCPWT1ci7X6L2kUABGPhY9oTr7SitagE8eLEzVLR0LKHaUOhX18ikfa8ig1Ym1pkHvzLqG3yr+fStcewdt5BrmxB0cVlIC3OF08rkHbTTSRqdYjRxiEhqQLmFjvmm5olj5lAbvsWcVPmcblSYoXVPIBsb91K5CmossF6sxmJYt9VeWjvODtpF9uS6mE66Ot2MX+jQvJeXuNtNTX52mKXUXNzD1MyPSvplxJMJelvo6ezWtZWBtrW3Fgf0ks2LRk9hmOpX3pczLhX2uFP2pWUUULa41ttQjxpoczusSm5yEjxbWqKBXn6ZPhJQ/OSG6tD5ZLMAml3HcKc6/O0Zfa/guMXD0kRSftEUwKybh9iafcI1oFr4Ifn5KRdSVtKZFZSRoktiobfwbHxM9JFHKqL0cdtIfO0K5GZY4MVPMSyaw/NqZ9P2gV5lvt9442loWXZjbVh/0Po0SDtSvrlkccX2sDD2G48/YSdR43S+BL6roCcecpdQetqcNKupO8CaXdYkO/1/glhOTZ/rCrBhpKxzPKG8dz1Eu1XffZUJ2YhJ++KXwihWNf1kfdwLPZIRFz8Xl2zALvrNboLfJvg3MEjOHZHkePFnbrsCTZc+2jL8I2v/HtOOPYfoUA2djk5Lbf8BcdsW1ASpNZPYsP5Ai1XfPUIJF8WliXKVTj0Do4l37gXv+dXQR6nHU2pvnqyfzqEY2sIV0WZFfSLqeswfHSCkTp/R5S8LfnnUDo8iy3C9Yu3FXacCqT9DwwUM7DYNli8myZWYsGGaxEVXtwpGTtKcKikzHnPY6I9WGo/ZlxOdBf48C/+Jl4jlWEqhrR4FS7JnuiL99KVSLtEMC4KGCKRdlFOlVqLGIEox6MySOx6ONLOF29D/R7mqn0Ei9dbVL0Na32N9FhdldKDJ32bGDY0oSwjH6k6nxdelIOTdnkoD/882zKI0oQAj3TfGEplg1Cd0YOHTd3IVzEokYc/BudPDuaqyySbCTHtjWcj7b62fPWIfRGvYpnZKr1Xx3xDosN1TuTrbkhPBzykPXS/xPqUXlWaGOhi46CLTUT9rO/AIGOxqJl1Y2u8Rtb3BDQs+Ei7kjJcDiWkXVUwimXXe0wN96HaUIIriYEeW50gj22szisvlzkO+rFjOJ62+vTDPe2uJVTJHslr9A8xs/IQRYLdefYYN560p4Dl9WF8cQVNuQxJ7VsSaed2532P1FYkmXnflZQRbRXaFmpUTbr9QlZ4aIVgCy9pVyozb8sTa/z5pF1oa8aN7YlaCRu83rKJj3DMtEtjWWgrghc9Uhkl/RLLyLHK6w32pzSmnbHgpF1p3wXSvtAphcOI99kt9ZJcZ8FGsL6I37GrdzDv+gtz472oLLuOtAQf6RbLiFcfboySHOJv6d37cOyN+zlMBNK+dgepXgIsbIADiPW1e7+dItXMu4lbuRd8zsu58wYO2zCyhLnHM5az+vfh2LwrbUy5XHy+rZvzYC1Y+k2hnvVBST5+T85Pr/02uEr6xdJv4xknfgEhPqJu5NdwOlRqi0j9EvounAkIMU4F0v47+oo8pH3CtYYbsQysaBxrrueo1PA17vuex0SbeAi5Cz0RSXv4MmJ9dA0+d36JXig8JsSC9LlKjUTaNUk16GpaxVyvf/x7YJaY8KRdh4p6f7LL5RW85vW1Umw3n2jSc/uFuO75vj1Y+7bxuLEX17xhL9I9TT0oSL2G7JQ8XLl0yc+bxst4yO0oSkPEufF2IskTrIxA2s8Y0x6snkBbiWUCNyP8f6tcPzxWvy90vwLrDfW/NrsNd5d/w9aRL86Vx4yKqfl4P2sF4upL7xiYzlFJGd6+EtLO68o0WTCx8Q47Ljcczo9YWhhFsXhGwSuPGNcqvzpmb0nePI+n3bNoBeu76Gmf6vBP5Xe5wy4j7Z6+y9sQP/u1FUFm3n6kfvEykW1xOmRFsoVE2pXJLMgUjgwoCI8JZnder0BUZbbw9D9yek++YQ2VAlRsS9S//CraQiwTLhUpl8Ujj7LsMaFJ++lxEazvgi7mzYjzkt1gfVSCDVHucFd+Dii3bQqPt/6AXRg7x7A+vY1cWXy4eD9j19HjcGO22xd2Jv5WyjfAc2bJO+8JlTrBzqMGb8iKGhWPPmF3ssm3SWZxns39RK0UR83rY8yAOy/dQdM9ivXKbSl+Fm0qysRYIbp33ZjryTm1yRDr2bHUS23z7yqffIJ9sklaEyL1S5BXPxU0xEeUQ34Np0OltgjXL7GtsJtrRaRd2ZygBIdKypz3PCbpKQqedrEuukafsHOdEmk/R9LOWDoaWhx4drMP+oxCZHOinFqImzdPZ4kJT9qVedrlg0atuYwrV1owaN7DTFWJNAkLRD/gIKr8Pv45MmmPLA8n0ko87deNdr+nBaLXfMHoCTUR/5d77LmMKrUGGpXn6YBYZra2yatjrmfvX2KCb1GKAmlnLAvt6yewLY3DqC9HflEp8osMMD//Op72cssn4TG5eHCZ65V7sncsdacWYq4XdWwqMg0DmHjhxuao0UsYvF6jqV6vvFxm71/WZZ9+BE97ZNI+bb7i13ayWU7albUlx1wwmeW/h+5XZFvwewXiYe2SQhq4DW9t+MJjRJ3aIuiH18VyhmB1HeBW1unHydJB1Kmbkk75PYkFjagu9RxEFdo6b097mH6Jfd+WPRXiMqs0Wmg1vqdvQt+/MDxGad+VkHYuj/inBD9i2XBXddwV5Jpmseg8wURTolS/eA/TNmHMeYLhG/7eeMZS0LTkHx7HWA7MNjfm+/OEeoJ5mJmmGndfuvGsJ9uvLRbfgUch0j2K2F0aa/WNYe9YzsvwnEGQ5NWYMHJ0goe1/k/e+O9iPdYBX75533fXvDJH7hevS3jStv/YL8RHlCHwGkqHgeXC2YKF6ZdYT9hxqoi0f9/zmKSn7Huw8pDIIGd0zlJGLEtX37wULV0QaZdN9tFQKvcqmVp5nvZMv4mX182YHr09e7iT64v1YyxZiEU/7WlXo6zWAWtNld+CL8ooxnX7stJ46pHHxl9KKsX11FTJk8Pvzeex8I0m6VFzNEg7r1eJPAU8U02EmPaMUius7d2+Q1+qHLTe2oNFpk9PW/KMPLEw1POYdoO0GeEx7Qt1NbKnDmokJBUhN9G3kEXajIi65tfEyjE8XrGhp9I/HzNT1WHoyI1xk+9QHH+c3RyQT1sgihFi2pWUEWJM+YE0b6gSUxWge8cN6+0CCW/xOUbor2f42b3owR9wyIgqj8+0z/hiZBlTIynHgMIsX/5mpZ72cKSd605JW0pkjlRGqS0Sm9ax4zzEYN01JCWmIa91CvMvfaRdqcy8HIttwYTzbzyo8Y1p/r34pyTlY7C4bo6f0zHtGiEbze4T/02A2JYgDwtfRoktBHlWfFlguGewZvYTtr1eYrE9xrLRISOi4veB11Cedl5OSd+VkPZI2JDLFHIsq9OQV12L7Mu+DRjT1OL+4QnGGn3nQcS6WBbPonP6EDJj5bi9z8PGUiUc8DjvIVmcN9+wVD75CMeeFTU5KYhPuY6ae3asuXgsuH8YIxMOf/6KNlmcvSQDyxdy5T81Z/ja0qYhp6wc6QGHWZlwGDN4vLL41ExO2lVp/XjqfIf+Yk+Mu5J+cbkKht6eCvER5Q28htThGWwRrl9ie+HGKVNA2nk9SsaOEhxGKvNvzGOinnS1i9g5WoExyJMlpWVYnArNOWo0p/jORoj30tW3NnyuLoi0yxbYz1Wi/D4+GZfV2rHQcgcGb/aYomQPEWIsFbVNu1hoG0F9rh5FmTVoMI5i7NZpTzuvM+X6M1g7H+Nmdqn3hUuFSI3xLChStpYKE0qvVsJY8RQzfc/RmuKb8C/lTmCu14rewioUXinF9bweDJn38Ljc9zKUaJF2JfLorg4J2WOGDSaUZFah1jgBS8BBVHViO8Z6tjBW1SxkmKmpnsdc7yzqEn1ePiF7TF9g9ph1dF/1LaxC9pjeFQyW1qH4qh5lhXcx1r2NwbzLvsVNoadd9D7yx878MJjo5eY2YiwDzcufsCNkgKhDubEN7ZbnmLP7PO28XGzVHDZ4nDnPMCNkj1mFNeAgqpIy6px7mHceY/Zhr5D5pGl0HzbnS3Tk+Lx9CaZVbB8d4H5HE0r1RuhvPsTkvhtLg76Ue9piC5adLkwMdMBQWYdq8wzmXn/ERJOMaETB0877rqQtJTJHKqPUFkydi4anTk/4g+sE67N30Gf1J+1KZPbYPwl1c5+wvWCWDvXy78U/dd4QFpz85Uo8E0sjGn7ewnrAy5V4BpVFnsmHZxaqNqFxaBebzjfoCcgew+tM7/4Fu7/aYK41ejOzGHAl3kcyI5VR0i9t4SgWxewxVWL2mN9xt8q34eXtcDJfPfU3dtafoMbIs8nUoSw/Reg73wRe9mYsKdF7ssesP+n1ylyNzESPzEr6roS0R8KGaI/wY9lDttfmh1Cp16NQ34gmywF29hdRIWZYScjFdTHzSs86dlz76DN6MrOUXEsXNsrs0i1YXMd+L0IS47zlqRxjCgYx/dITUuc4PMBgzxPMu47Qle9vT5Y+gFnXBzy5c1PSn9QWX28m/sCufRGt9XUou9EB86wTO7sWFMhS8gr2Euo5xqOBehQLfShFqvddHNyWhkd/wrG/CbOpHvqGnzBk+4jNuU6kig4CBf3i9fBQQPviQ5SLGYW81+uZnreEMyU69G58wtlCsmmYfkllWOhxqpS0Kxk7SnAYqcy/MY8J+GBpaLD+hZ3ZW1KiDFF/4pU7pCKVSS+KwT8DOtjyiLSLeovmlUi7bIGNlmLVCTXobV7DM2/cutyLro6vxK1GK6a7d/DMPIe+wjxU1gQn7UyTiSrjM0x17wqHRa19G+jwZqngISCR87QnoqBkVMiLvtC3iznzcwxVNyJDdrAwWqRdmTzxyC1+iDEzz/VuxZ3rpagNiGkXPL4ZZiEHu5B/vuUhTBnJkged24iHDnly3Yt52p8EydOuRUp2H35uWxfytE+3T6GrsEB6wiDUo5C087LprWtYO/wdE62n41c1GSYMLBxg7fAvIYf0cEcx6p74k3b+Up2C7kXM/XKMrV8PMNZpRDPPDT4mj3NXUkaLNOMoJrw5vVc219BjzPTzqjNVMkr6nws54e3OE2ztv8HkeCeyZN4Tbq/02nFYbO+w/eYD1rd3cLej3G+yjpanXVFbSmRWUEaJLTwY0iAuLQ9ZWcmIYUloDCDtSmTm9fA/Tf49zL05xtRAOeJlh7XFdlIrhzC67hRyda/aNtBXmx2w8fPmad90CXnaBZsGydMu1KfLR4PlF6wengh5tx0uT9YLUZZIZZT0i5dJE9474JWZv3dAlqdd3pb6ajvur76FzXueI/AchxhfHXgdMnqIKSfRQg7/MH1XQtqVYF6UO9xYTiwfwrjtd9iOTmA/+B1W6yTq8nzOAJ1pJWi+c94/+2NPdh12bQTLrl/Qku4j30w/DZtrAzWy80RcHpUuGVdy85F8SQNV5Qy2eZlADzlLRNHtTSy9+iS1LbYl1JFYjnZvrnfb/iEmJ+7gerLPySH2mz/VLR+yy7Djn1pSdbkS5ul9rBx8hG3vV0wMtSFTJq+SfjF2TTicHmhv/v+k98mDEh1ymSPZQmm/xHKhxqlS0q5o7CiYo5Rg9bznMaZKQsGAHbY3+2jP9TmARN3xq6IyjKG5Vod/+rRoCdg0yuuizz7Hzll1QaT9K5D2sxqByn8+gEl3pLsvxYAYgyxPd3nWOuNLhjF9cIKNDStqgoQxnLU+Kv/j4Tqtcw8Ox5hfxhnCQXRx8D2P08+dx9jVdjzY+AO7r+wwF58+u8ExqKSMUI6p8Nisw0mNWjqETRiOLoaJtBNplx7l0+CK7uAifV5cfV66qpdCDfRNU5g/+ojR+uALllI7qhMLUdltQb2CVHdK66RyFxdDX2qbmPRiCYOltYOYePEJCwOFQc8wfWlbdL8PR9/TOI3GPMaumdHfbUJ2YnAPO8eOkjJCuTgN9gd0mMvwPWUi7PmwFw1dEGkn0k6knTDww2GgYOh3b3jJCbb3D2G5V4fkgNCWaEywVEd0F6zvSZ9yDG7tH8ByrxFpIdLqfk/9pr5Eb0zIMXQR5rGYbC3+26WVXkhFto6erUVdEmknwvbDETYR/HSN/oRCOiWdEgYIA4QBwgBh4OtggEg7kXYi7YQBwgBhgDBAGCAMEAYIAxccA0TaL7iBaLf6dXarpFfSK2GAMEAYIAwQBggD3xIGiLQTaaedNWGAMEAYIAwQBggDhAHCwAXHAJH2C26gb2kHSLKSx4IwQBggDBAGCAOEAcLA18EAkXYi7bSzJgwQBggDhAHCAGGAMEAYuOAYINJ+wQ1Eu9Wvs1slvZJeCQOEAcIAYYAwQBj4ljBApJ1IO+2sCQOEAcIAYYAwQBggDBAGLjgGiLRfcAN9SztAkpU8FoQBwgBhgDBAGCAMEAa+DgaItBNp/y521owxqDUqqS8qjZpeB07YlvBAC8jXWUBIr6RXwgBhgDBwfhgg0v4DEBvGVFBrNBeOxDJ1EjKrO1CawT6bXDFtHLKaitD4wICWjhRoGANjamR2VKD5QRmMzWlI0H5+/T/yZMQyjKivzke8hvT3I+OA+n5+CzLpmnRNGCAMhMMAkfYokvbYPAsW+19If/evJX42GQ1ntLP+dtm0CpvrGOOmtC+ShyWUo2P2ABtvTrD323/gcK2g+jMJsfqKCXfW3sP+ah9t13ykkDEtsjor0HIrBWqmwtVbFWjpTEUM85WR9z+huhgtw4UoKEjE5WTPxoRvUmKSE5BScBVVwxWorY4N2u+ztiVv93v4zFgSClvvoqE4Kbh+rt3Bs1cn2FybROUVTdAy34MeqA+0SBIGCAOEAcLAt4ABIu1RJO0x8fkoyChBQfZtjPdtofMLPMjRBE9S/SLWX7/DSH3yFxGvnDtv4NhbRFNVNUr0/K8AiargZDqc/CyxFvcdn7A8aUZmrP/9jGmQzUl7ewpUTIWMdk7a06ANQtp5SExGWwWam4OTTi5DenMFWtqSgz5lOEtb4frzrf7GWC7MW27M9+WGxAWLzUfDlBN2xyzKEvxt9a32m+SmxZkwQBggDBAGvkUMEGmPImkXAcBSejDZN4e6+O+H5HCCa5x2w/6oMSTBE/sf7srrKRp2Ydf2AFlBwi64l5x715tbLgvtpLcYBK+7KihpVwmkPTQp9/3OCX6gXGdpK/De7+F/JaSd95NpCtBlO8HKsEEIP/oe+k59oAWbMEAYIAwQBr41DBBp/wqkXZszCmvPCIrVp4kiBwjTZsJgsGC8w4a5rhWM1ZqRG+s7RMnLqOOuo7F2Dk+6tjHTNoGarFsY7VtBS3LwOoMBT11rFcJYeCgL/1v6+fop4lo69gGO+X6Udq3C+vIDbC/28aCzFJe8JJepNNDGxkEXm4j6WTfsT5qhE/7n38VALZZjOqTXjGJiwwnb4Z9Y3lhDT03WKQ850xhx79UJLC2hveNpzQbcNHlCi1JN5WE96ak39WgxpwYlk3yDkGWuQJO3rmA6Oktbwe5X+h0PxRH0Y3uHrTcfsLqxAnNlmk9/sU0YfXMCS5O/XnS1i9h58xyV3icSkerh8kS0afZdWF1uP2yIGHGs3kZykA1OfMsmdl/NoCQIpvmGqLQsBif9OhyUqYLaQqmeqBwtooQBwgBhgDBAGAiOASLtX4G0p5cswNrehfQg5Iep0nHDZMOz1iHU5RhQnNuF++Y9PDXqpbhtps5EY7Md820jaMg1oCS/H/fa1jDb9wgVZ4ghVyXle8NYWjG45Q5N2nd+xZjlNqqMJphG9mBzvcPPhjiB4LOkLkyGIniymHZt0RieO//E9HAPKnk9w7uwOY/QWxTjt1FgGT/hmes1zDmhNx/JDWVoqIsX7kuqLYWpMfTZAF6Wh88Ei3kXwl+6KtDYkOAng3wyOEtb8vvO+llbPIFl53uvfm7CNGzH5tErmPM8seKMXULN7CfsPG2FTtoIaVBuOYZ9tg2x3u8i1cPlEkh7OJvGZqGoug766m4M77mx/KgbeuH/OuiLM4PrMncIi659tF45bTdO2uuNMfi/2/+Dj0a1JP9ZdUTlg0/SpBfSC2GAMEAYIAxwDBBpjzJp5yEX1407sNbXBCU/6vQ7eNo7jZo4n2c9o3QR1jazRPKFMn1zqE/wlcnWr8Bqvo3cIBuBSIOZsStoXQ1D2h0W5Hs9qELIhM2N1aFyD2lXJ+NqUSnyiwwwP3fDPn8H+cL//LscJHhj2ouG38Gx3C95aRlLQ8uyG2vDBj/CzAoeYtm1h+bU0+QvUj/E33k6R02MGjEJCSjsN6C+5lKImHUVkmpK0dyfieQErXCPRpYWUqzvPK7Fo8dwLPUhSSLkaWhe8umZyyB4s19bYYjx6IapKzD4q/9TCSX1CKQ9jE3F/ioNj+HlWWo/ZlxOdBcEtxtTMaTFq3DpM844iPLQlRYlwgBhgDBAGCAMhMYAkfaok/bLqG3aw6T+mh9ZFUF4tew5rC3tErnl33u+u4UUL6G7UmIVSHyajKDn6FdhbWpCouw7sc5I14ikfaHTFw7DdKiZccNuqfeTn7EY3ODfP2rw+563zbz3bE/U+v1WNvERjpl2vxAZVjCKlS8g7WI6x9bxSvC/m70ZSAzz9IFpL+Far14oy8uLaSEj6Syavwv6mXXDNlYnCy2Kg37sGI6nrVI4CUvuwbTrGHcrPd53VdEYVp12mLwhUUrrEUi7IptGPogq6sFD2l3oCUHaxXJ0DT3Zkm5IN4QBwgBhgDDwJRgg0h510l4Ic+cegqV75OEaZbUOLBgNkmeYk9DSml0s1FYJ8c38/5Ibdlhrqn3xzkwHQ90e5qrLpfvOYvSIpH3ejDjJAxycnIcn7XGoFUjpDT/SLpDH2Vt+4RJfTtp5Osd4XM5IQEpeOvR3Dagu1/m1K9dN/vXUfQAAIABJREFUnL4IzT/nIycvAZcz4qW0kPIyX/szYx79iHHj8qtDph/RTusjVYKds386hGPFF2OutB5B74pselbSHtrT/rV1SPXTQkcYIAwQBggDPzoGiLRHm7TH1OFeiHSPjKWjsXUPlpJMiWRK35VmCd/x2Obqxj08qyrxlVGVoKtrD6PFV6TvzgJckQyGPoj6paTd451X5GnPGYLVdYBbWcHDLM7SL142pbE8TEpIjZDz3dQYOqb9rO19TnnJQz7VKwst4uFFpcjPuuy3Ecvo2YfjhQX5qizc2nDjWU+2ZHOl9XwV0p59D1bXYdizCJ+jG7qHFmHCAGGAMEAYIAwowwCR9miT9iQzLH0LaAiS05qxTDS3+5N21aVmjPRt4FaaJ36de7RLa7Zh7RiBISkJl+JyYdBPY7rPgYHs0y+4Sawcw+MVG3oqQ+dg/9qknQ+2YDHtzcFi2mNbMOH8Gw9qQnvHzzJ4U3j2mJB53D2kXcxEc5Z6o12Wx6LbZ9qkpw78iUpSjgGFWf7ZYljOfVhdb2Cu6MZUEJKspB7lpD0bHTY35vvzpI1BqH4LWWyOVmAMyKsvlmdxKjTnqNGc4juHIf5GV2WTMemJ9EQYIAwQBggD4TBApD3apD2+BaN9W7hfVuV50RJ/2VJysjf0RYfiGzZYzY/RlGtAcU4betu2MdPQiMuyA3zalHY86NoT3qxq7bais/gOxvuW0RyQ7lH0vPJwC8dsm9/BV04KL+eJL0HyZI9Zf9LrzSZTjcxEj6dbOcELHjYjgotnj1nk2VGGulBZbULj0C42nW/QE5g9hiWhbu4TthfM0qFMsY7PuV5pNYR5eZInT7uY8/1z6hfvSS+MwT8DOjgKPo+UaostWHa6MDHQAUNlHarNM5h7/RETTal+hJmx6+hxuDG3vg/77ihyAs4wKKlHuU3jUD31N3bWn6DGyLPJ1KEsP8VPHt5/fqi4wfoXdmZvIT5AHkk/RR792PI+Tz9iPXSlBYswQBggDBAGCAPBMUCkPdqkncUjr/QxHnftCqR7sf8FFm5USvHpqtjruFnnyb8+27GAQUMN0oMcpFRpEpGalIkkrRqqjLuY77PAEKRceusa1g5/x0SrJ7xGBHq4+GdO8oeM0SXtfAMh5CHfdAl52lc2g+dp5/Jp8u9h7s0xpgbKES/brIiyK73yTD38janh3ojK87B73q76+eE4PKVhW50O//TFoM2b2UWpjGI5/gQlvXYcFts7bL/5gPXtHdztKD9FgnmfCoZ+E3KorwydPsOgpB6lpJ3Lpr7ajvurb2E78uRtDzxozFRJKBiww/ZmH+25p5/08Dq4fppruX60aAmCUVEHdA0+CZNeSC+EAcIAYYAwoAQDRNqjTNqVKP2sZZKvz8La0YvMEF7Os9Z3EcrHlwxj+uAEGxtW1Fz9fEJ9ub4MLYO5uHJZC3k6R54WMubyZZQOVqCx/sti2jmRnunS4aRGJYW3XAQdfm0Z2NV2PNj4A7uv7DAXh86Vz/Xz2Mz1o5byyX9t2ah+WuAIA4QBwgBh4EfDAJH2C0jatZfypNCawux2DJp3MVGS43dg8XsAqjqxEJXdFtRf+3zSzi4loXjAk9JRTOfIQ4MyOyo8KSEHcpB26fPr53pmSRo4B3SY9J47+B50r6QP7JoZ/d0mZCcG97CLdbA4DfYHdJjL+DI9i/XRlRZiwgBhgDBAGCAMnMYAkfYLSNpzKtY98ex9DsyZrfhZX4HkLwgj+d6Bz1Rq6JLikJSsETY23PMbk3wJCdz7HgW9Xb4Wg386NCj4jp50RBMTMdla/LdLiwrvC7qiWTfVdXrSJp2QTggDhAHCwI+JASLtF5C002D8MQcj2Z3sThggDBAGCAOEAcJAKAwQaSfSfipbSCiw0Pc0kRAGCAOEAcIAYYAwQBj4dzBApJ1IO5F2wgBhgDBAGCAMEAYIA4SBC44BIu0X3EC0m/13drOkd9I7YYAwQBggDBAGCAMXCQPfFGm/SIojWWggEwYIA4QBwgBhgDBAGCAMnBcGiLSTp50ehxEGCAOEAcIAYYAwQBggDFxwDBBpv+AGOq/dG7VDngLCAGGAMEAYIAwQBggDFxcDRNqJtNPOmjBAGCAMEAYIA4QBwgBh4IJjgEj7BTcQ7Xgv7o6XbEO2IQwQBggDhAHCAGHgvDDwTZN2tVYHdRTeeHleyqZ2aGD/WxhgKg20Wg15UWiTThggDBAGCAOEgW8UA98saWcsDrWzbtgP3+KpxYxMHSMQRgAhUychs7oDpRk/jq4YU0Gt0UDFLn6fWYYR9dX5iNdET1amy0fDxB5WD0/gmL0F3Tegh39rY0Pt0qaaMEAYIAwQBi4yBr5h0q5CQlY5imsfYPLlCRb68y8EaWeMoaJAg560zydetcYY/GPSID6KBEt9xYQ7a+9hf7WPtms+2a72/Yq93/5z6s+xehvJUWw/2oOAsSQUtt5FQ3FSWLtfNq3C5jrGuCktbLloy/c59bFrd/Ds1Qk21yZReSU6XvHM/pfYfbmNztoqFGRd/iY2L5+jO7qHFlrCAGGAMEAY+N4x8M2Sdrlh9JZP2J1qhvoCkEzu2R25pcObUtVnk8Rok3aWWIv7jk9YnjQjM9ZH2LkOOWl37D5Drb4aJfK/givQXgB9yu0s/8xYLsxbbsz35YbVc1L9ItZfv8NIfXLYcvK6/83PLDYfDVNO2B2zKEvwt9VZ5WJMg+qpE9gtdd9E38/aPypPCzRhgDBAGCAM/EgY+OZJOyfJVZMn+P/tnftXU0m6/v+fOrke7izukMX9Ei5JuCy5QwAxKgK2LQoqNHS32tBqbMUWo0LscdruVpgZZ1p7WjJnznfO//R8V+1kJzshkA0GOonPD1nZSWrX5a3Prv1U7bfebH09khKriKkm2qVwa17YwZbvGmxx3C4U0f5kDmUpLNDjXZB6RXu8c1P9O2FqxDnfLtYXnDB9RL+k2rWR6nZn/XjzJwNkgAyQgVRmIANEey4G7gbgW+w58mqidGmpqjLh8YQVv1+w4tdJC27VGZCtEUwyTbXNhCfjFuxesODdpBm3NWlEgQnbs1b838X/3vP6z5gJ5aG89JQVXGk3otduwfZ5C3Y9FjxsMSBfUx+9UAlTD6682sXKWHw3kkSiXYgyDHl/w+ajSygLbfoVhkq4H/yOZ/enUKx+J8wo6V7A4uM3ePLzOzx66sPscH2UD7UQZpT1LmLZ9xZPX7/Ho411eDpLo56QtC29h//uNOyT93H35Xv4/vRn3DjfEXYVEtVz8O4E9rjzSBcfrUuPsc8blebB5ZY9fAhhDdZnYxu+n3/Fw43vMdVri3rCEKzPDNrOPYL3x/fw/fAS1862IeeQfaGn7do+zR17gq1Xq2g1ftxqe9vSO/jveJB1yPpq68Jj3sTIABkgA2SADPzxDGSAaC/AsDeAxwvOPaJML2CWYjN2Zqz4scuEsSojznaY8W7WCm9VxMXFVGLC2xkr/uQyYrTKiCmnBf+ctWAttKlTmAzorDJisMqEBx4r/t5rwqDy2YjBUkNYNOkpSxHtZyx40mvCuM2ImS4LdmctuHOEDaSi4jN8u/MLPDXxxZ8i2n0LsGVlwxp+ZcGkEYuGihl88+Y9lkeDfuH5Q+vwvfkB41XGsM3NjTfg3X6H1evT6OoeRP9nG3i0/RZXu/MiaezLeLj9D9xemEJnzwiGFzbx5M0reOoi/tuKSH7+ZyytXERXzxCG5jfxZOcfuNqVq+Qjsmxo7u6Ho/s8Fl4E8PDL83Aon/vhsFfBEhKnhoL6kLvPOD5/GkA80W5uXsJ327+G6jOM4YUt+Lbf4EKzJVzn6PoMY/j6C/h23uKyMzucRg9nZh1t1+Yjaudxf+clxsvj95s27UHHzQtv4feeQx5F+6H66yCb8rc//sbFPmAfkAEy8CkykAGi3YC6y2+w9XgJTaUFyJLC85Ch7To7LZCr4aqLiFwNnxyw4t+9xrB7Qmm5CSstBhSHxI90PZgbt+K9KyLsJUCJ3GP0lKWIdo8JjpBwlnnemLTinSsikvXCKhpv4OHOC7hL4os/KdpjN6L6d97jc0ckvXSxqZp5ic2X36K9uAdzL3dxd7YpaoVcEYcPZ1EYtk82Tn3zAc+/HAqnsy++g//BNArCaUrhfhDAo/mOsKBSRLJ/GXXhtgfTxD5J0eseI0Q5xh/FF+3BOs+EN9wKUYqxhwF8r5kABuuzgvpwfWrh8UXXWU9f6Gm7Nh9RMoPVnW2cb4z0g/b3g46N5uAELLfUianHu3hwuTUlXMcOqjN/4w2YDJABMkAGyMDBDKS9aJcdLKx2eNZ/DYvPw4S2kwL9zJAVgR59gthgFMgyG5BtNuDcoBX/rzf6vINEu96yFNE+Ygq7wyjnDVrxv6eiy9IDt2hcxHoC0e7fvIWu5jbUh192lOZEi0VhtmPq6S4ebL7B5vNl1Fsiv0s3k961AJ5+0RsW37F1U9P4lvo1K/rZcEj3jW/Gw5MjRSTf80S5JrV/8Rv8a6djXG30bUTdT7Qr9VkN4NlyX1Sd25d/g3/1dNhFJlifs2F3GPW8zZWBqPNi26v9rLftUecoon0HU4cU7WooVHUi5lu/glqGQ9XdV9o+4PHBNw/ah/YhA2SADJwsAxkh2ss8W3ju/w7unk40SuF5iNB2UmR7BhOLdkuBEXfdFgRmov3WDyfa9ZUV9GmPhHxUVv7jTBD0XCy6RLvOjagVF14qE6O7M3VRIkgVir6lU1Hfa+unplHFpPZdO8lSRPLdaNGufBcTY/xjV9rV+sTWObas2PoIYcGp1QA2vxzct63adstjtSxtm9Vjbdu15x11pV3ynGeTE7AOtPTMYPHFP3Fzskp3XbV14PHJDsa0N+1NBsgAGSADBzGQ9qJdiHwMegPYuN55JGGirn7/K2al3WgUsIQ3WRpwZcKKXbcJpyuM6CgxKK8b7qOttB9UluyspIr2mnl4d37CpC2yMq4FItFGVDWtKBzD8qvfcdu7hWevHqGnMJKfupL8LGal3WAyw2wKPh1Q0/huXdCs6IdW9zWTLEUkx11pnwj7q8s6fbxot6JX70q7ZhJxNNEefBKRqO2qrZX2VV+Bd+fnffciaNMedNxy/R/w34s8KTgoLX/jzYIMkAEyQAbIQOoykDGi3bfYfSTRLuFU/cy1EV7ODFnwPyGfdiGMuD9txZM6rVA14LN9RPu101a82SdOe6KyZH2SKtqzxrC8/Tuu9Vrj2kePaJd/ZNT59VtsbsyjylIPz5NdPP56JBzRRdZZ8Q9fj/whk1xd7l37gGdfDkb5tG+uToTdXKRdC2qcaLJFItsooj2uT3t0/wpRjTO+AGJX/WMHm/3cY8J1fhjt0+6O59P+kaJdliV92hO1XVt3a999PH+zjp6YuPraNHqOFV96iva47OuxH9Ok7s2LfcO+IQNk4FNjIANEu/wDmQC2vhw68o3ZUmzCX2b3Ro+5F4oeI10OPnNb8O9JM+ZqDRiwGXHllBm/eOKvtI/3W/HvCTM8NhlNxoiBoshm1URlSQCTKtpFAfrvfMCze57wBlAt5IpoT/DnStmdq/h+5w2mW4LC32JfwYOdv2GuUxMZpmkR99XoMV1q9Ji/Ya5Lk8a+gofbO1iePQNnZz+6Pau488tvWB4tCfedItqfvsRibPSY7pxwGll/OSnovvU7nj/+Gr09MppMP9rri5U0cjJQWKf+WVQweszjry+E/zyqKj84+ZLRY+7LaDbz59DZPYyh+S082X6NqdjoMUkQ7WYdbVf7RW6IHfT+E8/XJqMmRurvh3l3fbUL/83R8MTpMOcyLW+IZIAMkAEyQAZSh4G0F+0Spo6VD/DfHgtvZjwsYNJFxhaKwf5BicG+N067Oc+Im8MWvL9gVeKmP2g24GzfXtEuyzblm+Adt4b937V+73rKSqZoV+pTfwV3Xr/DrdkO5IZcflQbxYseI/2t1ZjnIsuJS/4AHn3RGw5bKUQOOlbewu+/iebQSrB0GyntuY6lx9vhOO0X98Rpt6Cs7wus+N7i2ev3ePzsOebORGKwyzopon3tAlo834XjtF+fik6j1t1YeRpXH/0VvjfBuO2qn/lBPuSybfM9QdEuXXaUuPFPdpQ47etP9ovTHvGxP4p7jKyvPC9R25V0hgI0zm7C9/olTtdGQmGqbT7Mu4z603M7gOf8R9SoCd9hbMi0qXOzYl+wL8gAGfjUGUhr0S5D2+VVDuHK1uFD8H1qHZ/buoDbP+1iY8OL3sqIm0+q2UER7Z/onwGJytO4tvF3bL3ahMeenxSh2Xj1r/BvrcFVWYCsQ4ZCTTU2WB/esMkAGSADZOBTZiBtRbt2NdW3cQsdRakrRFMFMGN+EzrPr2CgIXVtpYh2jTtKqtjuJOohGjyYOT+M6vyPW2HX1lUU9ePSxjsl6s9+kWq06XnMGyIZIANkgAyQgdRkII1FuwxtZ4etsghWzb93ErTUBE1vv3zKol2vjQ6bThizkF/RiDpNlJ7D5sH06X1dsf/Yf2SADJCB9GcgbUU74Ut/+NiH7EMyQAbIABkgA2SADOhjgKL9v/QZikDRTmSADJABMkAGyAAZIAN/FAMU7RTtSdnw+EcBzHI5eJIBMkAGyAAZIAOfAgMU7RTtFO1kgAyQATJABsgAGSADKc5AWon2vLzIH/V8CjMqtpErB2SADJABMkAGyAAZIAOSAYr2FJ9V8ULlhUoGyAAZIANkgAyQATJA0U7RzsdhZIAMkAEyQAbIABkgAynOAEV7incQZ9acWZMBMkAGyAAZIANkgAxQtFO0c2ZNBsgAGSADZIAMkAEykOIMULSneAdxZs2ZNRkgA58SA0IIGE2GsHgwmIwwCBH+/CnZgm3ltU8GyICWAYp2ivaUvhkKYwGqus+grYI3be2Fy2MO5JnGgDBnwzbajKFrToydKYZJCAhhRNUZF9zX2tHjLkWemeNAqve7qOjBQHc9ck3sq1TvK9Yv/e4jFO1JFO1ZdSu4P/ND+HW1IT+lBXGqX7DG8mFc+v4f2Hz1EhMNkRuAEGbYzrowNlkMozCgctKFsbMlsKTIapwQJtg8LoyMBPtfiGw0XnJhbLEBldZgO4SlGK4bLoxdqkReitQ71Xlg/VLrBiM5L2qrQHWlKSnjXF63HWMLTWhszEdhkUlZXRfCAEtRHoobK9G14EJfd1bcslJ9TDhudoUoQNP4HAbtBXHtc9zla/MXDZfw7atdPPn+JjrLk8OGNn8ep9Y4wP442f6gaE+iaLfk1qOxohWN1RfxxfRTnOXq8JFvICK/D1f9H/DwpgdVWRHBLgcIKRaqpWg/XQyDMKDitBTtpTCniPiNL9pb0XfRAUejUbGJsaEOI5+1YoCi/ciM8GZxsjeLWHsLkYWGz1zo7YovpGPTH/RZusRUTLjgdu8vOsvcLoxNFMV1lUn1MeGgtifjNyFq4XkawN3p2pS4nkRWPQZvbWPTv4b2vOjxOxntZR5/7LVP+/9x9qdoT6JoV0EWxVO4OX0H/bkcrFSbHOZd3oCbF3aw5bsGW5xHrHL1Ta6uu8cKlRtU2ZhTWXVPFb/X+KK9DW2jjRh1FygTjZLhDnSO1lK0H8P1dxjWmPboN5/kinaDItr3F+WR36XAj+23VB8TYuub7M+pJtpl+4SpEed8u1hfcCquTsluM/M7+rVL26Wv7Sjaj0E0mGsW4Z26Drtx781FGczMVXA6V/DFGR/unFvHUp8HtVmRjVcyjTG7BUN9d/D1uWdYnVhGr20Si9PrGCuKn2e8i1A+Mi7rXcSy7y2evn6PRxvr8HSWwqi56Ymeu/C/uYsB5yJu+t/h6Y9vcGspenVbVxphDZa1sQ3fz7/i4cb3mOq1Ra1+68lHsY+pB1de7WJlbP9Vt1K3EyPDQfcTKYBjV+ikcC501uHU5Q64F50YvdqKzoEi5Bgi9pM3+pwGG1wXOzB6w4GhmQY01JqjVvJKRhwY85ShxNWAvnkHRubs6HDlRrdLluWqx6k5B0au2tHRnovqPe4xDrS2lqFnoQYlhly0zDWjprUGo5qVdj310dcunW2vr4Jzpg0j1x0YutiIlpbsaDaUdtWhd86B0flWODsLUCvbFbK70lc6bKinzvH4jf1Ol33qazG2WAtbtQ3dl2W929A9UoI8i6bf9aQRRmQ3VME524aRaw4MzDagqcEabR8d+cS24aifE7VdWIrguOGEy26OErSmxnq4b9SjPNT+RPnI+iViXhRVoH/JhfEvOve8xi6UIys0vsgNpCZLnJdmk6nWHsFyS+IKPHUiPKphT3uuPE40JsSmP+rnROOqyBrF4utdrIxGj1/Wvvt4/vo7dIaeHCbKR9avbek9/Hdn0HbuEbw/vofvh5e4drYNOSEbi+o5eHcCePGXf+15+R9dRJFmrD9qe7Xn6amzNn3u2BNsvVpFa5x7oZx8tbVbsDtjxU/thrj9rs2Lx+krNNl3yes7ivZjEO1lrffgPX0OZXEGTGEow6lhH74dn0d/jRP22nO46nmBb3ocYZ9sYazCkHsTdyeuY7DWidb6GVyZ+B5r01/CdYiNWGb7Mh5u/wO3F6bQ2TOC4YVNPHnzCp66iJ9hUEhvw7u2itH+AXRO3sS3PwXwYL4jPIjqSWNuXsJ327+GyhrG8MIWfNtvcKHZEhYRevKRF7eo+Azf7vwCT01EaMVe9EWD7Rjsz1XyLuhrw/BQ9P4BUVmNoaV2OLuKUVpdgIr2avQsONHjjDzKN1baMLjUge6BUpTXFaF6oAnDi3Y0lEQmUIqQuGSH010eTDPUgtGldrTWBN1cZL1MdbUYWupAj5JPIWrd9Th1ca9Pu6MxC/Wz7Whuq0TfTAVyG+ujfNr11EdPu/SkMVRUYWBRtr0E5bWFqO5vwrBsV3WkXcaaGgwtOdAzKO0j29WI/rlo0Z6sOsf2b7zPuspShHQb+s7UoKaxAOUd1Th1zYWBgdzwZEzoSGMsr8LAkkPDRjNGltrQVBFhQ08+8dpxlO8StV1u2KyUGzaVfR7B60YK9FK3A+7Qpk5ZbqJ8ZJpEzAuzFUV1hSirK0XHnAuDY6UoUz4XoqwyOLFRN5DGFfaa+mhtIa9p6eYWb2+KFO3V51wYGswLjyfac+VxojEhNv1RPycaV4XIQe/aBzz/ZhxWVVwLEzpW3mFzbSI8qUmUj6yfItqf/xlLKxfR1TOM4esv4Nt5i8vObMUOIsuG5u5+OLrPY+FFAA+/PA+H8rkfDntVXFsetd3yPD111uYvaudxf+clxsv3juVStA/0WPB/F/8bv/UYw7bSns/j5Ik92jIzbEnRnmTRLm+ULT3P4R3ojTtgGssu4ZsLt9GbHbn5V7Tdh3fCExb5SprpOxjIi6SpdqzD67mI2jgTgf0uRvviO/gfTKMgfOMohftBAI/mO8I3PkVI7/wMT22krKqZV/D/aQX16nlyNT5BmuaFt/A/nAmv7AhRirGHAXy/4DxUWbItovEGHu68gLtk70C/X1tjv7e0NWFsvjpcH/m7KTcLubkRUVosV9GnSsM3CyEsqJlyYWggIgwUAXO5GgWhFXrFJeBiTJphmU9Z+GYsDDlovrxXtLvsJuT1tGLgchv6e7JhtjdEiXY99dHTLj1prNXlaHLma9puRd20bFdwIiTtpYiomYrIqp7aLs1qZ7LqHNt/8T7rKUsR0kutaNCwo2xwvFIduQ6kaE+QRmm7tk+FGbUxbOgpK147jvKdnrZb2hrhvl6PspBLmTDkoXXeic7WyCRdTz56mJdtOMg9Ro6DlqJcFFbEeYU2mco81NV4S14emmacGOjNCU+utHaS+RX0tsE9U4WiPHNwBX+fFXvtecdxrGdcVVaYf/HCqT7hMLrw+Z+jnx7qyUcR7f4V1IdWqhU3GF/0GC7beFLuMXrqrLW5KJnB6s42zjfGH8uFQaA01xD1BFR7Po8zQ2iyH5PXjxTtSRfthegbfYGbjoawWNUCW9n+Hbxjp6PEZPC7SRSHRHJ5q1cR8aUagV7jeATv6CjyNd9p8409FsKK3rUAfEv9sGZlh1+OpXfwfzMevYq+8wBdGt9xk+MGVtdvoFkVqopo3z+NUtZqAM+W+6La3L78G/yrp8OuJMEJwv75qG0QjYtY/0jRLsrkSmlwFb2iJhc5Me5H6srkyEhh1CP8MinkJ+UG1+BNRhEwmk2u6nmqO476eVTzKFx9lB8bPaar3QxRUgbn+QbUlAhY25vCol3NJ1F9ErVL2lBPmrCtjYZQ+02wyZXa0D4BKZLKJ4Ib/1Qf4nC7QqI9mXVW67Pfu+6yFEFej3LN43hDdRV6LlShSOU5QRq1LG2fynqVjjqUUISqe1lQtB9c1n7tOcz3an0SspFTip4lB9pCE3BRXoXBpWZU5wRZ1ptPIubVuh8k2tU0B73L+shwjupq/MiFCuQf8CRRmHPQcMERTq+GhTyojGT/pntcLZrC7Z13mOsMTpgMzUt4tL2J4ZB7o958FNF+72xk4izH9dUANlcGosbakxDteuustXlQtO9gah/Rrk3L4+QJO9oyc21J0Z500d4Ez9kXiBfuUYqe9j4/7vU4w6JQ3rjaerdwr69L8ZeVn1tPbcLb2x32n5WDpbP/Be50d4TPS3RRyjCDfWv7+DquTUZWWBVB/h06NaI9Nu+g2N4/jVqWb+lU1I1EueEcsixZdlJEuzAit8UG52wH3EsujC05MHDWhmKNgNEKBlU4yHetGFAEjKckMvGI2QSrCg9VoCv13yfkY7cj2t/Y6miOEu166iPLO6hdwfITpzEWF6Ntqh2jixHRJNuuFe0ymofcGKjyEE+0J6vOahn7vat21vaTeqztr3hCOjbPRGnUsrR9KvNQWNC4diTKJ7bco35W66O2V/se1XZhQe0FF4aG8pVxIr+nFVofc735JGJebUci0a6uou/xaw+tkEdW4/NQXFcGx5wT3R3WMG9qOep7tqMZ7sv1qKnLC67ga1bs1TSkCh1LAAAQU0lEQVTH/a6OdXF9yLVjnSjH+KMAHl/vUvqi+rOf4V+P+JjrzUcZQ+96kB1aRJBPA09J0f7lYJSdTka067unaPsg0Uq7Ni2PM1dosm+T17cU7ckW7ZZ+XNkn3KMQZRgaf4GV1qrwgBv+rs2mfCf9IbuHXuDbrtZIGkMrzp17gUV7efi7RBdBeFXk1gXUN7dFv2yFYfGfSJDLchKlUcrSvdK+v/hX2yRq5uHd+QmTtviPVNV0et8NZgvyqsvgmnNheDgoaKSAkT7AIxNlex/ha8RAIgGj5qNdlQ2L25g47d2OiH+/rHuWI85Ke4L6aNscr13a3+VxvDRSbNXNODE6ZUNFdUgAVeSh4XxkpV2eq7Rd42Ms+7l+NuLTrrY9kQ21dYpXH+3v+x3rLUuPkE6URi1L26eyXnpW2ver/8d8r9ZHj51zOlswNleNQqWPXTjVGdnDoTefRMyrbTlItMuy9Ezo1Lzke/FQx76hW5Vr6qwLw0MR1zXtuSd1rHdclfWpmHoJ/w8rqDfYMLkRwLdT1eHxW28+qSXaQ09vE9xTtH0hqq/AK10rD9ifpE3P4+SJO9oyM21J0Z5s0V7gwcr0PQzGiU0rRBXcp6NFuyHHjevTG5gsDfqUy5WUtt5n8J65DmdBAXKya+F03MbtaT9mqyO+qeoFmd+5hK/WfZjqjKyIqr9J/8PN1YnIqrowoqDGiSZbJKpBIkEu89KTJp5PuzuuT7sO0Z41huXt33Gtd/9VN7WN+71bivNRVmENT05kuqLBoChQN7pJ/165cU/+86LSTmGAtTgPhUWRFXE9AkZJo/V/Vn2/DyHaZfl66qOnXYnSCFGI9hsuOFsi/v2qP7+60i7rY7U3wr3YitbGbFizLShoq0HfQkS0J7POMq9ELz32SSTIZRl60uz1ad+730FPPonapPd3PW1X2lYsI7u0oqGmFN3yvTh64qsnHz3MK2XJOO0X5R8eBTdFatsSWUU/2Kdde46s237/t6CKdm3kIu25J3msZ1yV9RE1V+HdeQ2P6zxuxRGuevLRL9qrccYXwN2ZuoTX0cfYSk+dtfkrEXPerKMn5r821DQi2wB3jRHu4sieKvU3viceE2mjT89GFO06xMJhLgyRO4bF6ae42t4V/KMl+WdLRUUh1xcr7Kd88Hq+wmitE/aaCVyYeIbVwSEUakIRmotP49q5F8o/q3rPe3HWfglfTD+EOybco7paIx/V+tcm9mx8NdtX8HB7B8uzZ+Ds7Ee3ZxV3fvkNy6Ml4YFdjyDXk0ZGj7kvI9XMn0Nn9zCG5rfwZPs1pmKjx+zoEO2iAP13PuDZPU948+Bh+kCmtTQ3YPRGK9o7ilBSnY/Slip0XXUpG93UvJRIGottcPaUoKy2EBWOGvRed8Blj6yI6xEwpto6DIej0MgoKw3oi7MR9aCVdlknPfXR065EaSQ3NVNOuD+rR11zAUrri1EnI958Hr3SLgxZqJ5sD7kXOTF0phzNZ6NFe7LqrPbJQe96ytIjpPWkkdFj+sMRgWRkoWYML7WiqTwiLvTko7bH2tGMsSUnutoibKm/6XnX03aZj3xS13TZhd6ZFrgvV+3ZA6MnHz3MB8syomLCCfdMNSpD0WNKSyMTXj3t0qYpH3ce8OdJwTjt2kml9tzDHJc1WfCfWSv8jZG+PMz5esZVmZ8QLZjyB3Dn8Utsbi2iJmY/kp589Iv2bHTf+h3PH3+N3h4ZTaYf7fXF4XFebd9JtT3Y/lIMev+J52uTyI1pe7g+zcG+8NUdrS/UfPj+6YnXT7XPKdqTLdpFLuravsJX57YU0X1/5gfcO9UZ9k83ZLVgpD8Yf33tzD187uxFWZzNVwZTPkoKqlBgNsJQMYe70ytwxklXNv49vv/5b1geD7rXaEGWq6dlfV9gxfcWz16/x+NnzzF3piNqANUjyHWlUeO0P9lR4rSvP9knTrsO0S7bYKq/gjuv3+HWbAdyNRMabfsOOpbxhEu6g7HT3UvBOO3do6XI09hQrgbmNNrQebE9GKf9sya0deRFTX70CBhZVlFnPU5dCcUzd+WjZk+cdhcSiXY99dHXrsRtNxQUodljx9A1J0bnWtDhyEGV/EfK0EZU1bayTua8bOQVmWEUZthiRHuy6qyWd9C7rrLibDKNzVOP2JbuHdo47YP7xWlfit6IGluW/CzzUv6193oDKqzRK9/x0sf7Tk/bg2UJFA20K5s1BwfyoG4iVvPUk48e5tX8DIXFaJ9ux0hob0QsP2q6RO+yXtJG6gbveOllHPbgvyAfzYYyT2mPiX4r/jNtwYQmdn+88vb7Ts+4GizLgMb5vyjx09fn9+5H0pOPXtEuyzNWnsbVR3+F701wL9Nev/cTbLuhAI2zm/C9fonTtXufEAftI+Duk31hxphmXN7P7vyewpwM/Bco2pMs2o8DqqKWNXjPXEDVPqsVx1FmKuSZ27qA2z/tYmPDi97Ko9+oU6EtmVAHOWGIDYmZCe067jYIkQf7VRdG3AXhyftxl5mO+RcOtGPs81qUF5ph0oRzlBtaLYWFaPs8OtTqUdooJwer56zY7TWE3QaPkk86nnNSbReVp3Ft4+/YerUJjz36/zO0dpP1+coj+8IYDper/Z3HFOlkYC8DFO0pKNrNOXVh15qm6tP43LOF5daaKP/sTwVmY34TOs+vYKCBov2P6HNzYa7iXiRdjMrsNehddMDRFH/l7I+oXzqUGfwH0Q40V9IF4KD+EjkFsM8GQzqqUXG0G1pHZmtQGor+dFA+B/0mCkzYnrXiZmgP0UFpM+23k2q7aPBg5vwwqvMPHidEtgkvZ624U8GxPdNYY3v2iu1k2YSiPQVFe43rcdCffdqPOx4vLjtc4RjTyep45nN8F1Um2bZwoENxtRhbcmH0ais6+wuQdQR3pUyyyWHbIv/0aOxSFfI+sSdlh7WTTC8MRlgLslEQiuAkV2MtRTnIk6vvSeCusMGC/5wxofET7ItUa7ul2oz/PWeGS/OfCkdhhufwXvYpMUDRnoKi/VMCkG3lgEsGyAAZIANkgAyQgcQMULRTtO+JMMALJ/GFQxvRRmSADJABMkAGyMBJMkDRTtFO0U4GyAAZIANkgAyQATKQ4gxQtKd4B53kDI5lccWADJABMkAGyAAZIAOpyUBaiXZClJoQsV/YL2SADJABMkAGyAAZOF4GKNq50s7HYWSADJABMkAGyAAZIAMpzgBFe4p3EGetxztrpX1pXzJABsgAGSADZCAdGKBop2jnzJoMkAEyQAbIABkgA2QgxRmgaE/xDkqHmR/ryBUKMkAGyAAZIANkgAwcLwNpLdqNZiuMSfiXPEJ2vJDRvrQvGSADZIAMkAEyQAY+joG0Fe1CZKNvLYDNn/+Kb1Y8qLIKPtbhUwMyQAbIABkgA2SADJCBjGQgjUW7AXm2Dtj7ruHmj7u4N1OfkR3EWenHzUppP9qPDJABMkAGyAAZyAQG0la0a43vWPmArVtuGAVX27V24TEHKTJABsgAGSADZIAMZAYDaS/ahTCg6+Yutr4egYGinU8b+EiQDJABMkAGyAAZIAMZyEAGiPZcDNwNwLfYQ0AzEFCuDmTG6gD7kf1IBsgAGSADZODjGMgA0V6AYW8AjxecFO0U7WSADJABMkAGyAAZIAMZyUAGiHYD6i6/wdbjJTSVFiArKxtWsykjO4sz1I+bodJ+tB8ZIANkgAyQATKQrgykvWiXhhdWOzzrv+LFX/6lvPxrk7DSv50TF640kAEyQAbIABkgA2QgQxjICNFe5tnCc/93cPd0orG5DfW2Qm5KzRBA03U2zHpzJYcMkAEyQAbIABlIJgNpL9qFyMegN4CN652cSVKokwEyQAbIABkgA2SADGQkAxkj2n2L3RnZQcmcoTEvzvjJABkgA2SADJABMpCeDGSAaDeh+1YAW18OUbRzZk0GyAAZIANkgAyQATKQkQykvWiXs8WOlQ/w3x6DiZtPMxJSrgik54oA+439RgbIABkgA2QgeQyktWg3mrORVzmEK1sBPJrvoGDlzJoMkAEyQAbIABkgA2QgIxlIW9EuRDb61gJKiEffxi10FImM7CDOUJM3Q6UtaUsyQAbIABkgA2QgXRlIY9FuQJ7NDltlEaxGCvZ0BZD15uBJBsgAGSADZIAMkIHEDKStaGfnJu5c2og2IgNkgAyQATJABshAZjBA0U6/L7oVkQEyQAbIABkgA2SADKQ4AxTtKd5BnB1nxuyY/ch+JANkgAyQATJABj6GAYp2inbOrMkAGSADZIAMkAEyQAZSnIEDRfvHzAZ4LmeTZIAMkAEyQAbIABkgA2QgOQxQtKf4rIqgJwd02pF2JANkgAyQATJABtKZAYp2inY+DiMDZIAMkAEyQAbIABlIcQYo2lO8g9J5Rsi6c0WDDJABMkAGyAAZIAPJYYCinaKdM2syQAbIABkgA2SADJCBFGfgUKLdaLbCaOC/j3LGmJwZI+1IO5IBMkAGyAAZIANkQB8DukW7ENnoWwtg8+e/4psVD6qsFO+ETB9ktBPtRAbIABkgA2SADJCBj2PgEKLdgDxbB+x913Dzx13cm6nnY5QUf4zCi+PjLg7aj/YjA2SADJABMkAGUoUB3aJdW2HHygds3XLDKLjarrULj3lhkwEyQAbIABkgA2SADBwHA4cW7UIY0HVzF1tfj8BA0c6nDXzaQAbIABkgA2SADJABMnDsDBxBtOdi4G4AvsWeY6/cccxSmCdnv2SADJABMkAGyAAZIAPpxsARRHsBhr0BPF5wUrRzVkkGyAAZIANkgAyQATJABk6AgSOIdgPqLr/B1uMlNJUWICsrG1aziZ11Ap2VbjNC1perGGSADJABMkAGyAAZSA4Dhxbt0vDCaodn/Ve8+Mu/lJd/bRJW+rdz4sKJCxkgA2SADJABMkAGyMCxMHAk0V7m2cJz/3dw93SisbkN9bZCbkoloMcCKGfnyZmd0460IxkgA2SADJCB9Gbg0KJdiHwMegPYuN5JkUahTgbIABkgA2SADJABMkAGToCBI4t232I3O+gEOoiz4vSeFbP/2H9kgAyQATJABshAMhg4gmg3oftWAFtfDlG0U7STATJABsgAGSADZIAMkIETYODQol3OFDpWPsB/ewwmbj4lpCcAaTJmp8yDqxxkgAyQATJABshAOjNwKNFuNGcjr3IIV7YCeDTfQcFKwUoGyAAZIANkgAyQATJABk6AAd2iXYhs9K0FlBCPvo1b6CgS7KAT6KB0nhGy7lzRIANkgAyQATJABshAchg4hGg3IM9mh62yCFYjBTsBTA6AtCPtSAbIABkgA2SADJCBxAzoFu00ZmJj0ka0ERkgA2SADJABMkAGyMBxMEDRThcXujmRATJABsgAGSADZIAMpDgDFO0p3kHHMVNjnlwBIANkgAyQATJABshAejFA0U7Rzpk1GSADZIAMkAEyQAbIQIozQNGe4h3EWXB6zYLZX+wvMkAGyAAZIANk4DgYoGinaOfMmgyQATJABsgAGSADZCDFGaBoT/EOOo6ZGvPkCgAZIANkgAyQATJABtKLAYp2inbOrMkAGSADZIAMkAEyQAZSnIH/D+n9jZYJ3kRmAAAAAElFTkSuQmCC;" parent="1" vertex="1">
          <mxGeometry x="144.3099999999999" y="2080" width="691.38" height="300" as="geometry" />
        </mxCell>
        <mxCell id="Nr-5HNH66WC3xI2fJL6_-1" value="addUgcFakeLikeAndViewCount" style="rounded=1;whiteSpace=wrap;html=1;fontSize=15;direction=east;" vertex="1" parent="1">
          <mxGeometry x="327.5" y="1670" width="235" height="60" as="geometry" />
        </mxCell>
        <mxCell id="Nr-5HNH66WC3xI2fJL6_-2" value="" style="endArrow=classic;html=1;fontSize=15;exitX=0.5;exitY=1;exitDx=0;exitDy=0;entryX=0.5;entryY=0;entryDx=0;entryDy=0;" edge="1" parent="1" source="Xova7BRaURqqxDnmJqIO-6" target="Nr-5HNH66WC3xI2fJL6_-1">
          <mxGeometry width="50" height="50" relative="1" as="geometry">
            <mxPoint x="490" y="1700" as="sourcePoint" />
            <mxPoint x="540" y="1650" as="targetPoint" />
          </mxGeometry>
        </mxCell>
        <mxCell id="Nr-5HNH66WC3xI2fJL6_-4" value="1、addFakeView&lt;br&gt;2、addUgcFakeShare" style="rounded=1;whiteSpace=wrap;html=1;fontSize=15;direction=east;" vertex="1" parent="1">
          <mxGeometry x="630" y="1670" width="240" height="60" as="geometry" />
        </mxCell>
        <mxCell id="Nr-5HNH66WC3xI2fJL6_-5" value="" style="endArrow=classic;html=1;fontSize=15;entryX=0.5;entryY=0;entryDx=0;entryDy=0;exitX=0.5;exitY=1;exitDx=0;exitDy=0;" edge="1" parent="1" source="Xova7BRaURqqxDnmJqIO-6" target="Nr-5HNH66WC3xI2fJL6_-4">
          <mxGeometry width="50" height="50" relative="1" as="geometry">
            <mxPoint x="295" y="1560" as="sourcePoint" />
            <mxPoint x="260" y="1620" as="targetPoint" />
            <Array as="points">
              <mxPoint x="750" y="1560" />
            </Array>
          </mxGeometry>
        </mxCell>
        <mxCell id="Nr-5HNH66WC3xI2fJL6_-6" value="LIKE" style="text;html=1;strokeColor=none;fillColor=none;align=center;verticalAlign=middle;whiteSpace=wrap;rounded=0;fontSize=15;direction=east;" vertex="1" parent="1">
          <mxGeometry x="394" y="1590" width="40" height="20" as="geometry" />
        </mxCell>
        <mxCell id="Nr-5HNH66WC3xI2fJL6_-7" value="SHARE" style="text;html=1;strokeColor=none;fillColor=none;align=center;verticalAlign=middle;whiteSpace=wrap;rounded=0;fontSize=15;direction=east;" vertex="1" parent="1">
          <mxGeometry x="690" y="1560" width="40" height="20" as="geometry" />
        </mxCell>
        <mxCell id="Nr-5HNH66WC3xI2fJL6_-12" value="changedDocIdSet，随后在缓存中添加假曝光次数" style="text;html=1;strokeColor=none;fillColor=none;align=center;verticalAlign=middle;whiteSpace=wrap;rounded=0;fontSize=15;" vertex="1" parent="1">
          <mxGeometry x="55" y="1780" width="110" height="20" as="geometry" />
        </mxCell>
        <mxCell id="Nr-5HNH66WC3xI2fJL6_-20" value="increaseUserLikeCount、&lt;br&gt;increaseFakeViewCount" style="rounded=1;whiteSpace=wrap;html=1;fontSize=15;" vertex="1" parent="1">
          <mxGeometry x="342.5" y="1790" width="205" height="60" as="geometry" />
        </mxCell>
        <mxCell id="Nr-5HNH66WC3xI2fJL6_-21" value="" style="endArrow=classic;html=1;fontSize=15;exitX=0.5;exitY=1;exitDx=0;exitDy=0;entryX=0.5;entryY=0;entryDx=0;entryDy=0;" edge="1" parent="1" source="Nr-5HNH66WC3xI2fJL6_-1" target="Nr-5HNH66WC3xI2fJL6_-20">
          <mxGeometry width="50" height="50" relative="1" as="geometry">
            <mxPoint x="360" y="1950" as="sourcePoint" />
            <mxPoint x="410" y="1900" as="targetPoint" />
          </mxGeometry>
        </mxCell>
        <mxCell id="Nr-5HNH66WC3xI2fJL6_-22" value="" style="endArrow=classic;html=1;fontSize=15;exitX=0.5;exitY=1;exitDx=0;exitDy=0;" edge="1" parent="1" source="Nr-5HNH66WC3xI2fJL6_-20">
          <mxGeometry width="50" height="50" relative="1" as="geometry">
            <mxPoint x="370" y="1950" as="sourcePoint" />
            <mxPoint x="180" y="1900" as="targetPoint" />
            <Array as="points">
              <mxPoint x="445" y="1900" />
            </Array>
          </mxGeometry>
        </mxCell>
        <mxCell id="Nr-5HNH66WC3xI2fJL6_-23" value="" style="endArrow=classic;html=1;fontSize=15;exitX=0.5;exitY=1;exitDx=0;exitDy=0;" edge="1" parent="1" source="Nr-5HNH66WC3xI2fJL6_-4">
          <mxGeometry width="50" height="50" relative="1" as="geometry">
            <mxPoint x="670" y="1940" as="sourcePoint" />
            <mxPoint x="440" y="1900" as="targetPoint" />
            <Array as="points">
              <mxPoint x="750" y="1900" />
            </Array>
          </mxGeometry>
        </mxCell>
      </root>
    </mxGraphModel>
  </diagram>
</mxfile>
